<svg xmlns="http://www.w3.org/2000/svg" width="1200" height="630" viewBox="0 0 1200 630">
  <g id="그룹_10696" data-name="그룹 10696" transform="translate(-1482 7184)">
    <rect id="사각형_7490" data-name="사각형 7490" width="1200" height="630" transform="translate(1482 -7184)" fill="#0170f2"/>
    <g id="그룹_10695" data-name="그룹 10695">
      <g id="그룹_10693" data-name="그룹 10693" transform="translate(12186.436 915.349)">
        <path id="패스_4622" data-name="패스 4622" d="M277.125,90.756H260.448v1.868h5.557a9.251,9.251,0,0,1,4.329.614,13.455,13.455,0,0,1,3.075,1.847c.636.614,1.25,1.868,1.868,2.482a6.687,6.687,0,0,1,.614,3.075,4.634,4.634,0,0,1-.614,3.1,8.553,8.553,0,0,1-1.868,2.482,13.451,13.451,0,0,1-3.075,1.847,10.626,10.626,0,0,1-4.329.614H243.647a9.169,9.169,0,0,1-4.329-.614,13.639,13.639,0,0,1-3.1-1.847c-.614-.636-1.233-1.868-1.847-2.482-1.25,0-1.25-1.233-1.25-1.847a4.514,4.514,0,0,1,.636-3.1,8.92,8.92,0,0,1,1.847-2.482,13.2,13.2,0,0,1,3.1-1.847,9.169,9.169,0,0,1,4.329-.614h5.557V91.984H232v-7.4h45.125v6.154Zm-1.847-7.4a67.4,67.4,0,0,1-10.522-2.482c-3.075-.614-6.79-1.847-9.878-2.482a62.859,62.859,0,0,1-10.565,2.482,80.426,80.426,0,0,0-10.5,2.482L232,76.545c2.482-.614,4.943-1.233,8.04-1.847l7.426-1.868a2.053,2.053,0,0,0,1.233-.614h-14.83V64.79h40.8v7.426H259.817a2.233,2.233,0,0,0,1.25.614l7.4,1.868c2.482.614,4.943,1.233,8.04,1.847Zm-11.755,19.756h1.868c.614,0,.614-.614.614-1.233s-.614-1.25-2.482-1.25H245.6c-1.847,0-2.461.636-2.461,1.25s0,.614.614,1.233Z" transform="translate(-10572.436 -7751.879)" fill="#fff"/>
        <path id="패스_4623" data-name="패스 4623" d="M269.057,88.111a11.691,11.691,0,0,1-4.943-.636,9.877,9.877,0,0,1-4.329-2.461,16.505,16.505,0,0,1-3.1-3.711,10.544,10.544,0,0,1,0-9.878,9.148,9.148,0,0,1,3.1-3.814,10.113,10.113,0,0,1,4.329-2.482,13.6,13.6,0,0,1,4.943-.614H270.9a12.025,12.025,0,0,1,4.943.614,10.114,10.114,0,0,1,4.329,2.482,15.978,15.978,0,0,1,3.058,3.711,10.544,10.544,0,0,1,0,9.878,15.978,15.978,0,0,1-3.1,3.711,9.878,9.878,0,0,1-4.329,2.461,13.188,13.188,0,0,1-4.883.739Zm19.756,1.847a9.169,9.169,0,0,1,4.329.614,6.013,6.013,0,0,1,3.1,2.482c.614,1.233,1.232,1.847,1.847,3.075a11.506,11.506,0,0,1,0,7.426,14.122,14.122,0,0,1-1.847,3.1,6.156,6.156,0,0,1-3.1,2.461,10.521,10.521,0,0,1-4.329.614H267.829a9.169,9.169,0,0,1-4.329-.614,6.154,6.154,0,0,1-3.1-2.461c-.614-1.25-1.233-1.868-1.847-3.1a4.514,4.514,0,0,1-.636-3.1,7.691,7.691,0,0,1,.636-3.711,13.453,13.453,0,0,1,1.847-3.075,6.012,6.012,0,0,1,3.1-2.482,10.522,10.522,0,0,1,4.329-.614h21.005Zm-18.467-9.878a4.3,4.3,0,0,0,4.329-3.711c0-1.233-.614-1.847-1.233-3.1a4.759,4.759,0,0,0-3.1-1.233h-1.233a4.2,4.2,0,0,0-4.368,4.226,3.2,3.2,0,0,0,1.233,2.461,4.655,4.655,0,0,0,3.1,1.25Zm16.079,22.255a2.255,2.255,0,0,0,1.847-.614c.614-.636.614-.636.614-1.25s0-1.233-.614-1.233-1.233-.614-1.847-.614H270.345a2.255,2.255,0,0,0-1.847.614c-.614.614-.614.614-.614,1.233s0,1.25.614,1.25a2.255,2.255,0,0,0,1.847.614Zm11.136-13.7h-9.878V64.5h9.878v6.811h5.557V79.9h-5.527v8.654Z" transform="translate(-10547.781 -7752.21)" fill="#fff"/>
        <path id="패스_4624" data-name="패스 4624" d="M323.732,109.929H314.46V89.542h-2.482V109.3h-9.289v-8.023l-4.329,4.329H279.892V65.423H300.3v9.289H288.546V97.581h13.6V64.765h9.272V80.226H313.9V64.19h9.294l.614,45.739Z" transform="translate(-10522.093 -7752.512)" fill="#fff"/>
        <path id="패스_4625" data-name="패스 4625" d="M341.506,101.781h-9.878V78.9H320.492v22.878h-9.878V69.631H334.1a5.622,5.622,0,0,1,3.1.614c.614.614,1.847.614,2.461,1.233a3.156,3.156,0,0,1,1.25,2.482,4.615,4.615,0,0,1,.614,3.075Z" transform="translate(-10489.793 -7746.815)" fill="#fff"/>
        <path id="패스_4626" data-name="패스 4626" d="M359.025,94.364a5.621,5.621,0,0,1-.614,3.1c-.635.614-.635,1.847-1.25,2.461a3.221,3.221,0,0,1-2.461,1.25,4.677,4.677,0,0,1-3.1.614H335.542a5.583,5.583,0,0,1-3.1-.614c-.614-.636-1.868-.636-2.482-1.25a3.2,3.2,0,0,1-1.232-2.461,4.677,4.677,0,0,1-.614-3.1V77.052a5.542,5.542,0,0,1,.614-3.075c.614-.636.614-1.868,1.233-2.482a3.242,3.242,0,0,1,2.482-1.233,4.634,4.634,0,0,1,3.1-.614H351.6a5.622,5.622,0,0,1,3.1.614c.614.614,1.847.614,2.461,1.233a3.221,3.221,0,0,1,1.25,2.482,4.618,4.618,0,0,1,.614,3.075ZM348.5,93.131v-13.6H337.384v13.6Z" transform="translate(-10471.461 -7746.829)" fill="#fff"/>
        <path id="패스_4627" data-name="패스 4627" d="M355.771,90.95h-10.5V81.072h10.5Z" transform="translate(-10453.373 -7734.761)" fill="#fff"/>
        <path id="패스_4628" data-name="패스 4628" d="M367.884,106.514h-10.5V74.372H352.5V65.1h15.384Z" transform="translate(-10445.771 -7751.552)" fill="#fff"/>
        <path id="패스_4629" data-name="패스 4629" d="M414.5,89.842H369.38V81.8h13.58v-6.79h11.119V81.8h20.409v8.04Zm-11.136,1.847a9.17,9.17,0,0,1,4.329.614,14.356,14.356,0,0,1,3.1,1.868,13.214,13.214,0,0,1,1.847,3.1,11.447,11.447,0,0,1,0,7.4c-.614,1.233-1.232,1.868-1.847,3.1a13.64,13.64,0,0,1-3.1,1.847,10.562,10.562,0,0,1-4.329.614H381.113a9.251,9.251,0,0,1-4.346-.6,13.458,13.458,0,0,1-3.075-1.847,12.918,12.918,0,0,1-1.868-3.1,11.445,11.445,0,0,1,0-7.4c.614-1.25,1.233-1.868,1.868-3.1s1.847-1.233,3.075-1.868A9.25,9.25,0,0,1,381.1,91.7Zm8.654-11.119h-9.878V72.53H371.85V64.49h40.181ZM400.9,102.825a2.255,2.255,0,0,0,1.847-.614c.614,0,.614-.614.614-1.25s0-.614-.614-1.233a2.254,2.254,0,0,0-1.847-.614H382.956a2.3,2.3,0,0,0-1.868.614c-.614.614-.614.614-.614,1.233s0,.636.614,1.25c.614,0,1.25.614,1.868.614Z" transform="translate(-10428.032 -7752.197)" fill="#fff"/>
        <path id="패스_4630" data-name="패스 4630" d="M438.619,100.642H421.311v9.285H410.175v-9.285H392.88V91.988H438v8.654ZM436.2,88.909H395.972V64.79h9.878V68.5h20.512V64.79h9.826Zm-9.878-8.654v-3.1H405.807v3.1Z" transform="translate(-10403.33 -7751.879)" fill="#fff"/>
        <path id="패스_4631" data-name="패스 4631" d="M462.125,107.454H417V98.8h17.312V92.646H420.075V64.79h39.567V92.624H445.427v6.137h17.291v8.654ZM449.142,83.97V74.092H429.983v10.5h19.159Z" transform="translate(-10377.974 -7751.879)" fill="#fff"/>
        <path id="패스_4632" data-name="패스 4632" d="M453.8,87.685a12.026,12.026,0,0,1-4.943-.614,9.878,9.878,0,0,1-4.329-2.461,16.974,16.974,0,0,1-3.1-3.711,10.544,10.544,0,0,1,0-9.878,16.082,16.082,0,0,1,3.1-3.711,9.909,9.909,0,0,1,4.329-2.482,13.6,13.6,0,0,1,4.943-.614h2.4a12.309,12.309,0,0,1,4.965.614,9.946,9.946,0,0,1,4.295,2.482,15.566,15.566,0,0,1,3.1,3.711,10.544,10.544,0,0,1,0,9.878,16.4,16.4,0,0,1-3.1,3.711,9.923,9.923,0,0,1-4.295,2.461,13.742,13.742,0,0,1-4.965.614Zm30.295,22.255h-9.908V106.23l-3.075,3.711H445.77V89.553h38.97l-.614,20.387ZM456.176,79.667c1.25,0,1.868-.636,3.1-1.25a4.655,4.655,0,0,0,1.232-2.461,3.238,3.238,0,0,0-1.232-2.482,4.725,4.725,0,0,0-3.1-1.233H454.33a3.281,3.281,0,0,0-2.483,1.233,4.725,4.725,0,0,0-1.233,2.482,3.2,3.2,0,0,0,1.233,2.461,4.84,4.84,0,0,0,2.483,1.25ZM474.1,101.922V98.216H455.635v3.711Zm9.968-13.5h-9.908V64.8h9.908Z" transform="translate(-10353.589 -7752.522)" fill="#fff"/>
      </g>
      <g id="기본_type_White__v.투명박스" data-name="기본 type(White)_v.투명박스" transform="translate(1683.273 -7039.817)">
        <rect id="사각형_7110" data-name="사각형 7110" width="798" height="266" transform="translate(-0.274 -0.183)" fill="none"/>
        <path id="패스_4633" data-name="패스 4633" d="M183.34,7.78v96.933H283.928V7.78ZM261.877,83.3H204.485V29.589h57.392Z" transform="translate(370.466 15.721)" fill="#ff0051"/>
        <path id="패스_4634" data-name="패스 4634" d="M140.182,96.761V102.8c26.7,1.148,44.434,8.518,44.434,23.712,0,17.731-23.259,24.407-56.637,24.407s-56.637-6.464-56.637-24.86c0-15.889,17.731-22.564,44.434-23.712V96.308H65.36V77.429H190.838V96.308H140.182Zm-15.5-35.221c-13.351,7.37-32.925,11.509-53.647,11.509V54.17c17.036,0,35.916-4.38,43.286-10.361H72.73V24.93H183.679V43.809H142.236c0,1.148-.665,1.843-1.148,3.021l45.582,9.062-5.528,18.124Zm3.685,58.933c-18.426,0-30.629,1.843-30.629,6.223s12.083,6.041,30.388,6.041,30.388-1.148,30.388-6.041-12.687-6.223-30.3-6.223Z" transform="translate(132.07 50.375)" fill="#fff"/>
        <path id="패스_4635" data-name="패스 4635" d="M143.233,121.843c9.666,0,21.416-1.178,28.545-4.38v21.386c-7.37,3.021-20.722,4.38-31.083,4.38H112.15V28.2h54.1V49.589H135.862v72.5h7.37Zm90.62-96.933V149.27H210.593V93.811H200.232v52.952H178.151V25.665h22.564V70.794h10.361V24.97Z" transform="translate(226.616 50.334)" fill="#fff"/>
        <path id="패스_4636" data-name="패스 4636" d="M283.178,89.391v20.027H157.73V89.391h50.626V80.178H165.8V24.93h23.712V34.2h62.135V24.93h23.712V80.419H232.763v9.213C233.246,89.391,283.178,89.391,283.178,89.391Zm-93.217,39.6h87.025v20H164.859v-34.5h24.86v14.5Zm-.695-67h62.165V52.327H189.266Z" transform="translate(318.717 50.375)" fill="#fff"/>
      </g>
    </g>
  </g>
</svg>
