<svg xmlns="http://www.w3.org/2000/svg" width="120" height="40" viewBox="0 0 120 40">
  <defs>
    <style>
      .cls-1 {
        fill: #ff0051;
      }

      .cls-2 {
        fill: #fff;
      }

      .cls-3 {
        fill: none;
        opacity: 0.852;
      }
    </style>
  </defs>
  <g id="그룹_10572" data-name="그룹 10572" transform="translate(2867 8165)">
    <g id="ᄉ_로_type" data-name="세로 type" transform="translate(-2867 -8165)">
      <path id="패스_4736" data-name="패스 4736" class="cls-1" d="M161.87,7.32v18h18.708v-18Zm14.682,14.085H165.936V11.39h10.616Z" transform="translate(-95.65 -4.325)"/>
      <path id="패스_4737" data-name="패스 4737" class="cls-2" d="M5.727,3.9H3.6v.258h.728a1.849,1.849,0,0,1,.556.086.618.618,0,0,1,.385.254,1.084,1.084,0,0,1,.258.344,1.334,1.334,0,0,1,.086.43,1.575,1.575,0,0,1-.086.409.683.683,0,0,1-.258.344,3.6,3.6,0,0,1-.409.258c-.127,0-.3.041-.556.041H1.456A1.8,1.8,0,0,1,.9,6.239a.605.605,0,0,1-.385-.254A.6.6,0,0,1,.3,5.642a1.313,1.313,0,0,1-.086-.425A1.575,1.575,0,0,1,.3,4.807a.683.683,0,0,1,.258-.344,3.6,3.6,0,0,1,.43-.258,2.238,2.238,0,0,1,.556-.086h.6V3.9H0V2.962H5.727ZM5.47,2.876c-.409-.086-.9-.172-1.325-.3s-.847-.225-1.28-.344a13.162,13.162,0,0,1-1.285.344,12.362,12.362,0,0,1-1.325.3L0,1.976c.344-.086.642-.127.986-.213l.982-.258c.086-.041.131-.041.172-.086H.258V.52H5.437v.945H3.6c.041.041.086.041.172.082.344.086.642.172.982.258a8.509,8.509,0,0,0,.978.217ZM4.025,5.4a.552.552,0,0,0,.254-.041c.045-.045.086-.086.086-.131,0-.127-.127-.172-.34-.172H1.755c-.213,0-.344.045-.344.172,0,.045.045.086.086.131s.131.041.258.041Z" transform="translate(0 -0.307)"/>
      <path id="패스_4738" data-name="패스 4738" class="cls-2" d="M16.53,3.27a1.735,1.735,0,0,1-.642-.131,2.262,2.262,0,0,1-.556-.3,1.358,1.358,0,0,1-.385-.47,1.567,1.567,0,0,1-.127-.642,1.567,1.567,0,0,1,.127-.642A1.657,1.657,0,0,1,15.331.53a1.415,1.415,0,0,1,.573-.3A1.735,1.735,0,0,1,16.53.1h.258a1.7,1.7,0,0,1,.642.131,2.41,2.41,0,0,1,.556.3,1.313,1.313,0,0,1,.385.47,1.567,1.567,0,0,1,.131.642,1.567,1.567,0,0,1-.131.642,2.454,2.454,0,0,1-.34.556,1.366,1.366,0,0,1-.556.3,1.735,1.735,0,0,1-.642.131Zm2.569.213a1.424,1.424,0,0,1,.6.127,1.46,1.46,0,0,1,.409.3,1.391,1.391,0,0,1,.258.409,2.1,2.1,0,0,1,.086.47,1.51,1.51,0,0,1-.086.475.859.859,0,0,1-.258.409.843.843,0,0,1-.409.258,1.248,1.248,0,0,1-.6.127H16.46a1.076,1.076,0,0,1-.556-.127,1.559,1.559,0,0,1-.385-.258.818.818,0,0,1-.213-.409.732.732,0,0,1-.127-.475,1.636,1.636,0,0,1,.082-.47.92.92,0,0,1,.258-.409,1.538,1.538,0,0,1,.409-.3.847.847,0,0,1,.511-.127ZM16.763,2.2a.589.589,0,0,0,.385-.127.491.491,0,0,0,.127-.344.491.491,0,0,0-.127-.344.52.52,0,0,0-.385-.127h-.131a.6.6,0,0,0-.385.127.491.491,0,0,0-.127.344.491.491,0,0,0,.127.344.52.52,0,0,0,.385.127Zm2.045,2.827c.086,0,.172-.045.258-.045a.213.213,0,0,0,0-.34.36.36,0,0,0-.258-.086h-2.09a.45.45,0,0,0-.258.086.319.319,0,0,0-.082.168.225.225,0,0,0,.082.172c.045.045.131.045.258.045Zm1.4-1.694H18.943V.231h1.268v.9H20.9V2.244h-.687Z" transform="translate(-8.757 -0.059)"/>
      <path id="패스_4739" data-name="패스 4739" class="cls-2" d="M35.928,6.155H34.7V3.586h-.3V6.115h-1.15V5.084L32.7,5.64H30.34V.547h2.614V1.619H31.5V4.527h1.755V.42H34.41V2.433h.29V.42h1.227Z" transform="translate(-17.928 -0.248)"/>
      <path id="패스_4740" data-name="패스 4740" class="cls-2" d="M53.85,7.9H52.565V4.983h-1.37V7.9H49.91V3.87h2.954c.131,0,.258.045.385.045a1.821,1.821,0,0,1,.3.168.663.663,0,0,1,.168.3,1.186,1.186,0,0,1,.086.385V7.9Z" transform="translate(-29.492 -2.287)"/>
      <path id="패스_4741" data-name="패스 4741" class="cls-2" d="M64.922,6.962a1.227,1.227,0,0,1-.086.385,1.636,1.636,0,0,1-.172.3.72.72,0,0,1-.3.172,1.3,1.3,0,0,1-.385.086H61.935a1.33,1.33,0,0,1-.409-.086,2.336,2.336,0,0,1-.3-.172.72.72,0,0,1-.172-.3,1.334,1.334,0,0,1-.086-.385V4.778a1.3,1.3,0,0,1,.086-.385,2.152,2.152,0,0,1,.172-.3.712.712,0,0,1,.311-.16,1.15,1.15,0,0,1,.409-.045h2.045c.127,0,.258.045.385.045a1.943,1.943,0,0,1,.3.168.671.671,0,0,1,.172.3,1.186,1.186,0,0,1,.086.385Zm-1.285-.217V4.99h-1.37V6.745Z" transform="translate(-36.028 -2.295)"/>
      <path id="패스_4742" data-name="패스 4742" class="cls-2" d="M73.585,12.156H72.3V10.88h1.285Z" transform="translate(-42.723 -6.429)"/>
      <path id="패스_4743" data-name="패스 4743" class="cls-2" d="M78.5,6.164h-1.37V2.139H76.49V.94H78.5Z" transform="translate(-45.199 -0.555)"/>
      <path id="패스_4744" data-name="패스 4744" class="cls-2" d="M93.117,3.69H87.39V2.7h1.755V1.85H90.5V2.7h2.61V3.69Zm-1.452.3a1.849,1.849,0,0,1,.556.086.618.618,0,0,1,.385.258,1.227,1.227,0,0,1,.258.385,1.583,1.583,0,0,1,.086.47,1.9,1.9,0,0,1-.086.47,1.059,1.059,0,0,1-.258.385A1.412,1.412,0,0,1,92.2,6.3c-.127,0-.3.041-.556.041H88.777a1.824,1.824,0,0,1-.556-.086A.618.618,0,0,1,87.836,6a.683.683,0,0,1-.237-.376,1.51,1.51,0,0,1-.086-.475,1.759,1.759,0,0,1,.086-.47,1.023,1.023,0,0,1,.254-.385,2.254,2.254,0,0,1,.385-.258,2.271,2.271,0,0,1,.56-.086h2.864Zm1.154-1.5H91.534V1.506H87.68V.52h5.138ZM91.407,5.355c.086,0,.172-.045.258-.045s.086-.086.086-.127-.045-.131-.086-.131a1.588,1.588,0,0,0-.258-.041h-2.27c-.127,0-.172.041-.258.041s-.082.086-.082.131.041.086.082.127.131.045.258.045Z" transform="translate(-51.64 -0.307)"/>
      <path id="패스_4745" data-name="패스 4745" class="cls-2" d="M108.235,5.167H106.1V6.32h-1.411V5.167H102.54V4.054h5.727a9.2,9.2,0,0,0-.033,1.113Zm-.3-1.5H102.8V.63h1.285V1.1h2.569V.63h1.285ZM106.651,2.6v-.43h-2.569V2.6Z" transform="translate(-60.592 -0.372)"/>
      <path id="패스_4746" data-name="패스 4746" class="cls-2" d="M123.257,6.126H117.53V5.054h2.14V4.236h-1.8V.73h5.011V4.24h-1.8v.818h2.14l.045,1.072Zm-1.636-3V1.843h-2.455v1.33h2.455Z" transform="translate(-69.45 -0.431)"/>
      <path id="패스_4747" data-name="패스 4747" class="cls-2" d="M134.183,3.08a1.694,1.694,0,0,1-.642-.127,2.327,2.327,0,0,1-.556-.3,1.362,1.362,0,0,1-.389-.47,1.5,1.5,0,0,1-.127-.642A1.485,1.485,0,0,1,132.6.9a1.326,1.326,0,0,1,.389-.47,1.4,1.4,0,0,1,.556-.3A1.694,1.694,0,0,1,134.183,0h.34a1.694,1.694,0,0,1,.642.127,2.2,2.2,0,0,1,.556.3,1.326,1.326,0,0,1,.409.47,1.485,1.485,0,0,1,.127.642,1.812,1.812,0,0,1-.127.642,1.362,1.362,0,0,1-.409.47,2.328,2.328,0,0,1-.556.3,1.694,1.694,0,0,1-.642.127ZM138,5.907H136.72v-.47l-.43.47h-3.207V3.338h4.876L138,5.907Zm-3.567-3.862a.483.483,0,0,0,.344-.127.487.487,0,0,0,.131-.344.466.466,0,0,0-.131-.385.483.483,0,0,0-.344-.127h-.213a.491.491,0,0,0-.344.127.483.483,0,0,0-.127.344.479.479,0,0,0,.127.34.491.491,0,0,0,.344.131h.213Zm2.27,2.827V4.463h-2.356v.409ZM138,3.166H136.72V.172H138Z" transform="translate(-78.277)"/>
      <path id="패스_4748" data-name="패스 4748" class="cls-2" d="M13.954,44.259v1.06c4.966.254,8.264,1.583,8.264,4.451,0,3.35-4.324,4.549-10.53,4.549s-10.53-1.2-10.53-4.5c0-2.909,3.293-4.193,8.26-4.451V44.3H0V40.79H23.318V44.3H13.954Zm-2.909-6.464a22.141,22.141,0,0,1-10.019,2.14V36.384C4.3,36.339,7.7,35.655,9.16,34.457H1.325V31H22v3.469H14.253a4.3,4.3,0,0,1-.213.556l8.517,1.669-.982,3.424Zm.6,10.915c-3.338,0-5.65.3-5.65,1.113s2.311,1.113,5.65,1.113,5.65-.254,5.65-1.117S15.026,48.71,11.643,48.71Z" transform="translate(0 -18.318)"/>
      <path id="패스_4749" data-name="패스 4749" class="cls-2" d="M70.2,48.967a17.714,17.714,0,0,0,5.392-.785v3.935a18.11,18.11,0,0,1-5.776.818H64.46V31.5H74.52v4H68.866V48.926ZM87.017,31V54.073H82.738V43.788H80.811v9.847h-4.2v-22.5h4.2v8.374h1.927V31Z" transform="translate(-38.09 -18.318)"/>
      <path id="패스_4750" data-name="패스 4750" class="cls-2" d="M150.343,42.974V46.7H127V42.974h9.409V41.305h-7.985V31h4.455v1.755h11.6V31h4.451V41.305h-7.961v1.669Zm-17.337,7.319h16.265V54.06H128.383V47.642h4.664v2.651Zm-.127-12.412h11.6v-1.8h-11.6Z" transform="translate(-75.045 -18.318)"/>
    </g>
    <rect id="사각형_7200" data-name="사각형 7200" class="cls-3" width="120" height="40" transform="translate(-2867 -8165)"/>
  </g>
</svg>
