<svg id="레이어_1" data-name="레이어 1" xmlns="http://www.w3.org/2000/svg" viewBox="0 0 462 88"><defs><style>.cls-1{fill:#e93356;}.cls-2{fill:#fff;}</style></defs><path class="cls-1" d="M176.8,0V47.92h49.73V0Zm38.88,37.37H187.35V10.85h28.33Z"/><path class="cls-2" d="M37.57,61.18v3c13.26.6,22,4.22,22,11.76,0,8.73-11.45,12-28,12s-28-3.32-28-12.36c0-7.83,8.74-11.15,22-11.75v-3H.5V51.53H62.58v9.35h-25ZM29.73,43.7c-6.63,3.62-16.27,5.72-26.52,5.72V40.08C11.65,40.08,21,38,24.61,35H4.12V25.62H59V35H38.47c0,.6-.3.9-.6,1.51L60.47,41l-2.71,9Zm1.81,29.23c-9,0-15.07.91-15.07,3s6,3,15.07,3,15.07-.6,15.07-3S40.28,72.93,31.54,72.93Z"/><path class="cls-2" d="M85.79,73.53c4.82,0,10.55-.6,14.16-2.11V82c-3.61,1.51-10.24,2.11-15.37,2.11H70.42v-57H97.24V37.67H82.17V73.53Zm44.9-47.91V87.1H119.24V59.67h-5.12V85.89H103v-60h11.15v22.3h5.12V25.62Z"/><path class="cls-2" d="M200.61,57.56v10H138.53v-10h25V53H142.45V25.62H154.2v4.52h30.74V25.62h11.75V53H175.6v4.52ZM154.5,77.15h43.1V87.1H142.14V69.92H154.5ZM154.2,44h30.74V39.18H154.2Z"/><path class="cls-2" d="M254,77.45h-8.13v.91h2.71a4.51,4.51,0,0,1,2.11.3,6.56,6.56,0,0,1,1.5.9c.31.3.61.91.91,1.21a3.26,3.26,0,0,1,.3,1.5,2.26,2.26,0,0,1-.3,1.51,4.17,4.17,0,0,1-.91,1.21,6.56,6.56,0,0,1-1.5.9,5.18,5.18,0,0,1-2.11.3H237.68a4.47,4.47,0,0,1-2.11-.3,6.65,6.65,0,0,1-1.51-.9c-.3-.31-.6-.91-.9-1.21-.61,0-.61-.6-.61-.9a2.2,2.2,0,0,1,.31-1.51,4.35,4.35,0,0,1,.9-1.21,6.44,6.44,0,0,1,1.51-.9,4.47,4.47,0,0,1,2.11-.3h2.71v-.91H232V74.44h22v3Zm-.9-3.61a32.86,32.86,0,0,1-5.13-1.21c-1.5-.3-3.31-.9-4.82-1.21A30.64,30.64,0,0,1,238,72.63a39.21,39.21,0,0,0-5.12,1.21L232,70.52c1.21-.3,2.41-.6,3.92-.9l3.62-.91a1,1,0,0,0,.6-.3h-7.23V64.79h19.89v3.62h-7.24a1.09,1.09,0,0,0,.61.3l3.61.91c1.21.3,2.41.6,3.92.9Zm-5.73,9.64h.91c.3,0,.3-.3.3-.6s-.3-.61-1.21-.61h-8.74c-.9,0-1.2.31-1.2.61s0,.3.3.6h9.64Z"/><path class="cls-2" d="M262.09,76a5.7,5.7,0,0,1-2.41-.31,4.81,4.81,0,0,1-2.11-1.2,8.05,8.05,0,0,1-1.51-1.81,5.14,5.14,0,0,1,0-4.82A4.46,4.46,0,0,1,257.57,66a4.93,4.93,0,0,1,2.11-1.21,6.63,6.63,0,0,1,2.41-.3h.9a5.87,5.87,0,0,1,2.41.3A4.93,4.93,0,0,1,267.51,66,7.79,7.79,0,0,1,269,67.81a5.14,5.14,0,0,1,0,4.82,7.79,7.79,0,0,1-1.51,1.81,4.81,4.81,0,0,1-2.11,1.2A6.43,6.43,0,0,1,263,76Zm9.64.9a4.47,4.47,0,0,1,2.11.3,2.94,2.94,0,0,1,1.51,1.21c.3.6.6.9.9,1.5a5.61,5.61,0,0,1,0,3.62,6.89,6.89,0,0,1-.9,1.51,3,3,0,0,1-1.51,1.2,5.13,5.13,0,0,1-2.11.3H261.49a4.47,4.47,0,0,1-2.11-.3,3,3,0,0,1-1.51-1.2c-.3-.61-.6-.91-.9-1.51a2.2,2.2,0,0,1-.31-1.51,3.75,3.75,0,0,1,.31-1.81,6.56,6.56,0,0,1,.9-1.5,2.94,2.94,0,0,1,1.51-1.21,5.13,5.13,0,0,1,2.11-.3h10.24Zm-9-4.82a2.1,2.1,0,0,0,2.11-1.81c0-.6-.3-.9-.6-1.51a2.32,2.32,0,0,0-1.51-.6h-.6A2.05,2.05,0,0,0,260,70.22a1.56,1.56,0,0,0,.6,1.2,2.27,2.27,0,0,0,1.51.61Zm7.84,10.85a1.1,1.1,0,0,0,.9-.3c.3-.31.3-.31.3-.61s0-.6-.3-.6-.6-.3-.9-.3h-7.84a1.1,1.1,0,0,0-.9.3c-.3.3-.3.3-.3.6s0,.61.3.61a1.1,1.1,0,0,0,.9.3ZM276,76.25h-4.82V64.49H276v3.32h2.71V72H276v4.22Z"/><path class="cls-2" d="M301.27,86.49h-4.52V76.55h-1.21v9.64H291V82.27l-2.11,2.11h-9V64.79h9.95v4.53h-5.73V80.47h6.63v-16h4.52V72h1.21V64.19H301l.3,22.3Z"/><path class="cls-2" d="M325.68,85.29h-4.82V74.14h-5.43V85.29h-4.82V69.62h11.45a2.74,2.74,0,0,1,1.51.3c.3.3.9.3,1.2.6a1.54,1.54,0,0,1,.61,1.21,2.25,2.25,0,0,1,.3,1.5V85.29Z"/><path class="cls-2" d="M343.16,81.67a2.74,2.74,0,0,1-.3,1.51c-.31.3-.31.9-.61,1.2a1.57,1.57,0,0,1-1.2.61,2.28,2.28,0,0,1-1.51.3h-7.83a2.72,2.72,0,0,1-1.51-.3c-.3-.31-.91-.31-1.21-.61a1.56,1.56,0,0,1-.6-1.2,2.28,2.28,0,0,1-.3-1.51V73.23a2.7,2.7,0,0,1,.3-1.5c.3-.31.3-.91.6-1.21a1.58,1.58,0,0,1,1.21-.6,2.26,2.26,0,0,1,1.51-.3h7.83a2.74,2.74,0,0,1,1.51.3c.3.3.9.3,1.2.6a1.57,1.57,0,0,1,.61,1.21,2.25,2.25,0,0,1,.3,1.5Zm-5.13-.6V74.44h-5.42v6.63Z"/><path class="cls-2" d="M350.39,85.89h-5.12V81.07h5.12Z"/><path class="cls-2" d="M360,85.29h-5.12V69.62H352.5V65.1H360Z"/><path class="cls-2" d="M391.38,76.85h-22V72.93H376V69.62h5.42v3.31h9.95v3.92Zm-5.43.9a4.47,4.47,0,0,1,2.11.3,7,7,0,0,1,1.51.91,6.44,6.44,0,0,1,.9,1.51,5.58,5.58,0,0,1,0,3.61c-.3.6-.6.91-.9,1.51a6.65,6.65,0,0,1-1.51.9,5.15,5.15,0,0,1-2.11.3H375.1a4.51,4.51,0,0,1-2.11-.3,6.56,6.56,0,0,1-1.5-.9,6.3,6.3,0,0,1-.91-1.51,5.58,5.58,0,0,1,0-3.61c.3-.61.6-.91.91-1.51s.9-.6,1.5-.91a4.51,4.51,0,0,1,2.11-.3Zm4.22-5.42h-4.82V68.41H370.58V64.49h19.59Zm-5.42,10.85a1.1,1.1,0,0,0,.9-.3c.3,0,.3-.3.3-.61s0-.3-.3-.6a1.1,1.1,0,0,0-.9-.3H376a1.12,1.12,0,0,0-.91.3c-.3.3-.3.3-.3.6s0,.31.3.61c.3,0,.61.3.91.3Z"/><path class="cls-2" d="M415.18,82.27h-8.43v4.52h-5.43V82.27h-8.44V78.05h22v4.22ZM414,76.55H394.39V64.79h4.82V66.6h10V64.79H414V76.55Zm-4.82-4.22V70.82h-10v1.51Z"/><path class="cls-2" d="M439,85.59H417V81.37h8.44v-3H418.5V64.79h19.29V78.36h-6.93v3h8.43v4.22Zm-6.33-11.45V69.32h-9.34v5.12h9.34Z"/><path class="cls-2" d="M446.83,75.64a5.87,5.87,0,0,1-2.41-.3,4.81,4.81,0,0,1-2.11-1.2,8.28,8.28,0,0,1-1.51-1.81,5.14,5.14,0,0,1,0-4.82,7.84,7.84,0,0,1,1.51-1.81,4.83,4.83,0,0,1,2.11-1.21,6.63,6.63,0,0,1,2.41-.3H448a6,6,0,0,1,2.42.3,4.85,4.85,0,0,1,2.1,1.21,7.59,7.59,0,0,1,1.51,1.81,5.14,5.14,0,0,1,0,4.82,8,8,0,0,1-1.51,1.81,4.84,4.84,0,0,1-2.1,1.2,6.71,6.71,0,0,1-2.42.3ZM461.6,86.49h-4.83V84.68l-1.5,1.81H442.91V76.55h19l-.3,9.94ZM448,71.73c.61,0,.91-.31,1.51-.61a2.27,2.27,0,0,0,.6-1.2,1.58,1.58,0,0,0-.6-1.21,2.3,2.3,0,0,0-1.51-.6h-.9a1.6,1.6,0,0,0-1.21.6,2.3,2.3,0,0,0-.6,1.21,1.56,1.56,0,0,0,.6,1.2,2.36,2.36,0,0,0,1.21.61Zm8.74,10.85V80.77h-9v1.81ZM461.6,76h-4.83V64.49h4.83Z"/></svg>