<svg id="기본_type_blue__v.4.12" data-name="기본 type(blue)_v.4.12" xmlns="http://www.w3.org/2000/svg" width="264" height="88" viewBox="0 0 264 88">
  <rect id="사각형_7110" data-name="사각형 7110" width="264" height="88" fill="none"/>
  <path id="패스_4633" data-name="패스 4633" d="M183.34,7.78V39.87h33.3V7.78Zm26,25h-19V15h19Z" fill="#ff0051"/>
  <path id="패스_4634" data-name="패스 4634" d="M90.13,48.71v2c8.84.38,14.71,2.82,14.71,7.85,0,5.87-7.7,8.08-18.75,8.08S67.34,64.5,67.34,58.41c0-5.26,5.87-7.47,14.71-7.85v-2H65.36V42.31H106.9v6.25H90.13ZM85,37.05c-4.42,2.44-10.9,3.81-17.76,3.81V34.61c5.64,0,11.89-1.45,14.33-3.43H67.8V24.93h36.73v6.25H90.81c0,.38-.22.61-.38,1l15.09,3-1.83,6Zm1.22,19.51c-6.1,0-10.14.61-10.14,2.06s4,2,10.06,2,10.06-.38,10.06-2S92,56.56,86.17,56.56Z" fill="#fff"/>
  <path id="패스_4635" data-name="패스 4635" d="M122.44,57c3.2,0,7.09-.39,9.45-1.45v7.08c-2.44,1-6.86,1.45-10.29,1.45h-9.45V26h17.91v7.08H120v24h2.44Zm30-32.09V66.08h-7.7V47.72h-3.43V65.25H134V25.16h7.47V40.1h3.43V24.93Z" fill="#fff"/>
  <path id="패스_4636" data-name="패스 4636" d="M199.26,46.27V52.9H157.73V46.27h16.76V43.22H160.4V24.93h7.85V28h20.57V24.93h7.85V43.3h-14.1v3.05C182.73,46.27,199.26,46.27,199.26,46.27ZM168.4,59.38h28.81V66H160.09V54.58h8.23v4.8Zm-.23-22.18h20.58V34H168.17Z" fill="#fff"/>
</svg>
