<svg xmlns="http://www.w3.org/2000/svg" width="240" height="48" viewBox="0 0 240 48">
  <g id="그룹_10582" data-name="그룹 10582" transform="translate(5869 8655)">
    <g id="그룹_10578" data-name="그룹 10578" transform="translate(-6229 -8669)">
      <rect id="사각형_7113" data-name="사각형 7113" width="240" height="48" transform="translate(360 14)" fill="none" opacity="0.543"/>
    </g>
    <g id="그룹_10579" data-name="그룹 10579" transform="translate(12074 -2817)">
      <rect id="사각형_6322" data-name="사각형 6322" width="20.56" height="19.67" transform="translate(-17842.703 -5833.003)" fill="none"/>
      <g id="가로_type_White_" data-name="가로 type (White)" transform="translate(-17943.5 -5835)">
        <path id="패스_4618" data-name="패스 4618" d="M176.8,0V22.887h23.751V0Zm18.569,17.848h-13.53V5.182h13.53Z" transform="translate(-92.099)" fill="#e93356"/>
        <path id="패스_4619" data-name="패스 4619" d="M18.2,42.6v1.433c6.333.287,10.507,2.015,10.507,5.617,0,4.169-5.469,5.731-13.373,5.731S1.966,53.8,1.966,49.481c0-3.74,4.174-5.325,10.507-5.612V42.436H.5V37.995H30.149V42.46H18.209ZM14.46,34.255A27.468,27.468,0,0,1,1.794,36.987V32.526c4.031,0,8.5-.993,10.221-2.426H2.229V25.62H28.44V30.1H18.634c0,.287-.143.43-.287.721l10.794,2.144-1.294,4.3Zm.864,13.96c-4.3,0-7.2.435-7.2,1.433s2.866,1.433,7.2,1.433,7.2-.287,7.2-1.433-3.023-1.433-7.2-1.433Z" transform="translate(0 -13.384)" fill="#fff"/>
        <path id="패스_4620" data-name="패스 4620" d="M77.761,48.5a19.617,19.617,0,0,0,6.763-1.008v5.053a22.569,22.569,0,0,1-7.341,1.008H70.42V26.332H83.229v5.043h-7.2V48.5ZM99.2,25.62V54.983H93.736v-13.1H91.291V54.4H85.98V25.749h5.325V36.4h2.445V25.62Z" transform="translate(-36.526 -13.384)" fill="#fff"/>
        <path id="패스_4621" data-name="패스 4621" d="M168.179,40.874V45.65H138.53V40.874h11.94V38.7H140.4V25.62h5.612v2.159H160.7V25.62h5.612V38.7H156.235v2.159Zm-22.022,9.356h20.584v4.752H140.254V46.778h5.9ZM146.014,34.4H160.7V32.1H146.014Z" transform="translate(-72.107 -13.384)" fill="#fff"/>
        <path id="패스_4622" data-name="패스 4622" d="M242.507,70.836h-3.883v.435h1.294a2.154,2.154,0,0,1,1.008.143,3.133,3.133,0,0,1,.716.43c.148.143.291.435.435.578a1.557,1.557,0,0,1,.143.716,1.079,1.079,0,0,1-.143.721,1.992,1.992,0,0,1-.435.578,3.133,3.133,0,0,1-.716.43,2.474,2.474,0,0,1-1.008.143h-5.206a2.135,2.135,0,0,1-1.008-.143,3.176,3.176,0,0,1-.721-.43c-.143-.148-.287-.435-.43-.578-.291,0-.291-.287-.291-.43a1.051,1.051,0,0,1,.148-.721,2.077,2.077,0,0,1,.43-.578,3.075,3.075,0,0,1,.721-.43,2.135,2.135,0,0,1,1.008-.143h1.294v-.435H232V69.4h10.507v1.433Zm-.43-1.724a15.693,15.693,0,0,1-2.45-.578c-.716-.143-1.581-.43-2.3-.578a14.635,14.635,0,0,1-2.46.578,18.727,18.727,0,0,0-2.445.578L232,67.527c.578-.143,1.151-.287,1.872-.43l1.729-.435a.478.478,0,0,0,.287-.143h-3.453V64.79h9.5v1.729h-3.458a.52.52,0,0,0,.291.143l1.724.435c.578.143,1.151.287,1.872.43Zm-2.737,4.6h.435c.143,0,.143-.143.143-.287s-.143-.291-.578-.291h-4.174c-.43,0-.573.148-.573.291s0,.143.143.287Z" transform="translate(-120.936 -33.846)" fill="#fff"/>
        <path id="패스_4623" data-name="패스 4623" d="M258.626,69.976a2.722,2.722,0,0,1-1.151-.148,2.3,2.3,0,0,1-1.008-.573,3.844,3.844,0,0,1-.721-.864,2.455,2.455,0,0,1,0-2.3,2.13,2.13,0,0,1,.721-.888,2.355,2.355,0,0,1,1.008-.578,3.166,3.166,0,0,1,1.151-.143h.43a2.8,2.8,0,0,1,1.151.143,2.355,2.355,0,0,1,1.008.578,3.721,3.721,0,0,1,.712.864,2.455,2.455,0,0,1,0,2.3,3.721,3.721,0,0,1-.721.864,2.3,2.3,0,0,1-1.008.573,3.071,3.071,0,0,1-1.137.172Zm4.6.43a2.135,2.135,0,0,1,1.008.143,1.4,1.4,0,0,1,.721.578c.143.287.287.43.43.716a2.679,2.679,0,0,1,0,1.729,3.289,3.289,0,0,1-.43.721,1.433,1.433,0,0,1-.721.573,2.45,2.45,0,0,1-1.008.143H258.34a2.135,2.135,0,0,1-1.008-.143,1.433,1.433,0,0,1-.721-.573c-.143-.291-.287-.435-.43-.721a1.051,1.051,0,0,1-.148-.721,1.791,1.791,0,0,1,.148-.864,3.133,3.133,0,0,1,.43-.716,1.4,1.4,0,0,1,.721-.578,2.45,2.45,0,0,1,1.008-.143h4.891Zm-4.3-2.3a1,1,0,0,0,1.008-.864c0-.287-.143-.43-.287-.721a1.108,1.108,0,0,0-.721-.287h-.287a.979.979,0,0,0-1.017.984.745.745,0,0,0,.287.573,1.084,1.084,0,0,0,.721.291Zm3.744,5.182a.525.525,0,0,0,.43-.143c.143-.148.143-.148.143-.291s0-.287-.143-.287-.287-.143-.43-.143h-3.744a.525.525,0,0,0-.43.143c-.143.143-.143.143-.143.287s0,.291.143.291a.525.525,0,0,0,.43.143Zm2.593-3.19h-2.3V64.479h2.3v1.586h1.294v2H265.27v2.015Z" transform="translate(-133.192 -33.679)" fill="#fff"/>
        <path id="패스_4624" data-name="패스 4624" d="M290.1,74.84h-2.159V70.093h-.578v4.6H285.2V72.825l-1.008,1.008h-4.3V64.477h4.752V66.64h-2.737v5.325h3.166V64.324h2.159v3.6h.578V64.19h2.164l.143,10.65Z" transform="translate(-145.954 -33.533)" fill="#fff"/>
        <path id="패스_4625" data-name="패스 4625" d="M317.807,77.1h-2.3V71.773h-2.593V77.1h-2.3V69.614h5.469a1.309,1.309,0,0,1,.721.143c.143.143.43.143.573.287a.735.735,0,0,1,.291.578,1.075,1.075,0,0,1,.143.716Z" transform="translate(-162.002 -36.364)" fill="#fff"/>
        <path id="패스_4626" data-name="패스 4626" d="M335.274,75.362a1.309,1.309,0,0,1-.143.721c-.148.143-.148.43-.291.573a.75.75,0,0,1-.573.291,1.089,1.089,0,0,1-.721.143h-3.74a1.3,1.3,0,0,1-.721-.143c-.143-.148-.435-.148-.578-.291a.745.745,0,0,1-.287-.573,1.089,1.089,0,0,1-.143-.721V71.331a1.29,1.29,0,0,1,.143-.716c.143-.148.143-.435.287-.578a.755.755,0,0,1,.578-.287,1.079,1.079,0,0,1,.721-.143h3.74a1.309,1.309,0,0,1,.721.143c.143.143.43.143.573.287a.75.75,0,0,1,.291.578,1.075,1.075,0,0,1,.143.716Zm-2.45-.287V71.909h-2.589v3.166Z" transform="translate(-171.121 -36.356)" fill="#fff"/>
        <path id="패스_4627" data-name="패스 4627" d="M347.715,83.372H345.27v-2.3h2.445Z" transform="translate(-180.108 -42.351)" fill="#fff"/>
        <path id="패스_4628" data-name="패스 4628" d="M356.082,74.743h-2.445V67.259H352.5V65.1h3.582Z" transform="translate(-183.885 -34.008)" fill="#fff"/>
        <path id="패스_4629" data-name="패스 4629" d="M379.887,70.393H369.38V68.521h3.162V66.94h2.589v1.581h4.752v1.872Zm-2.593.43a2.135,2.135,0,0,1,1.008.143,3.343,3.343,0,0,1,.721.435,3.076,3.076,0,0,1,.43.721,2.665,2.665,0,0,1,0,1.724c-.143.287-.287.435-.43.721a3.176,3.176,0,0,1-.721.43,2.459,2.459,0,0,1-1.008.143h-5.182A2.154,2.154,0,0,1,371.1,75a3.133,3.133,0,0,1-.716-.43,3.008,3.008,0,0,1-.435-.721,2.665,2.665,0,0,1,0-1.724c.143-.291.287-.435.435-.721s.43-.287.716-.435a2.154,2.154,0,0,1,1.008-.143Zm2.015-2.589h-2.3V66.362h-7.054V64.49h9.356Zm-2.589,5.182a.525.525,0,0,0,.43-.143c.143,0,.143-.143.143-.291s0-.143-.143-.287a.525.525,0,0,0-.43-.143h-4.179a.535.535,0,0,0-.435.143c-.143.143-.143.143-.143.287s0,.148.143.291c.143,0,.291.143.435.143Z" transform="translate(-192.704 -33.69)" fill="#fff"/>
        <path id="패스_4630" data-name="패스 4630" d="M403.53,73.138H399.5V75.3h-2.593V73.138H392.88V71.123h10.507v2.015Zm-.564-2.732H393.6V64.79h2.3v.864h4.776V64.79h2.288Zm-2.3-2.015V67.67h-4.776v.721Z" transform="translate(-204.98 -33.846)" fill="#fff"/>
        <path id="패스_4631" data-name="패스 4631" d="M427.507,74.724H417V72.709h4.031V71.276h-3.315V64.79h9.213v6.481h-3.31V72.7h4.026v2.015Zm-3.023-5.468v-2.3h-4.461V69.4h4.461Z" transform="translate(-217.58 -33.846)" fill="#fff"/>
        <path id="패스_4632" data-name="패스 4632" d="M443.366,69.648a2.8,2.8,0,0,1-1.151-.143,2.3,2.3,0,0,1-1.008-.573,3.953,3.953,0,0,1-.721-.864,2.455,2.455,0,0,1,0-2.3,3.745,3.745,0,0,1,.721-.864,2.307,2.307,0,0,1,1.008-.578,3.167,3.167,0,0,1,1.151-.143h.559a2.866,2.866,0,0,1,1.156.143,2.316,2.316,0,0,1,1,.578,3.625,3.625,0,0,1,.721.864,2.455,2.455,0,0,1,0,2.3,3.82,3.82,0,0,1-.721.864,2.311,2.311,0,0,1-1,.573,3.2,3.2,0,0,1-1.156.143Zm7.054,5.182h-2.307v-.864l-.716.864h-5.9V70.083h9.074l-.143,4.747Zm-6.5-7.049c.291,0,.435-.148.721-.291a1.084,1.084,0,0,0,.287-.573.754.754,0,0,0-.287-.578,1.1,1.1,0,0,0-.721-.287h-.43a.764.764,0,0,0-.578.287,1.1,1.1,0,0,0-.287.578.745.745,0,0,0,.287.573,1.127,1.127,0,0,0,.578.291Zm4.174,5.182V72.1h-4.3v.864Zm2.321-3.143h-2.307v-5.5h2.307Z" transform="translate(-229.7 -33.523)" fill="#fff"/>
      </g>
    </g>
  </g>
</svg>
