<svg id="레이어_1" data-name="레이어 1" xmlns="http://www.w3.org/2000/svg" viewBox="0 0 208 88"><defs><style>.cls-1{fill:#ff0051;}.cls-2{fill:#fff;}</style></defs><path class="cls-1" d="M161.87,7.32v44H207.6V7.32Zm35.89,34.43H171.81V17.27h25.95Z"/><path class="cls-2" d="M14,8.79H8.79v.63h1.78a4.52,4.52,0,0,1,1.36.21,1.51,1.51,0,0,1,.94.62,2.65,2.65,0,0,1,.63.84,3.26,3.26,0,0,1,.21,1.05,3.85,3.85,0,0,1-.21,1,1.67,1.67,0,0,1-.63.84,8.81,8.81,0,0,1-1,.63c-.31,0-.73.1-1.36.1H3.56a4.41,4.41,0,0,1-1.36-.21,1.48,1.48,0,0,1-.94-.62,1.47,1.47,0,0,1-.53-.84A3.21,3.21,0,0,1,.52,12a3.85,3.85,0,0,1,.21-1,1.67,1.67,0,0,1,.63-.84,8.81,8.81,0,0,1,1.05-.63,5.47,5.47,0,0,1,1.36-.21H5.23V8.79H0V6.49H14v2.3Zm-.63-2.51c-1-.21-2.19-.42-3.24-.73S8.06,5,7,4.71c-1,.31-2.09.63-3.14.84a30.22,30.22,0,0,1-3.24.73L0,4.08c.84-.21,1.57-.31,2.41-.52l2.4-.63c.21-.1.32-.1.42-.21H.63V.52H13.29V2.83H8.79c.1.1.21.1.42.2.84.21,1.57.42,2.4.63A20.8,20.8,0,0,0,14,4.19ZM9.84,12.45a1.35,1.35,0,0,0,.62-.1c.11-.11.21-.21.21-.32,0-.31-.31-.42-.83-.42H4.29c-.52,0-.84.11-.84.42,0,.11.11.21.21.32s.32.1.63.1Z"/><path class="cls-2" d="M19,7.85a4.24,4.24,0,0,1-1.57-.32,5.53,5.53,0,0,1-1.36-.73,3.32,3.32,0,0,1-.94-1.15,3.83,3.83,0,0,1-.31-1.57,3.83,3.83,0,0,1,.31-1.57,4.05,4.05,0,0,1,.94-1.36A3.46,3.46,0,0,1,17.47.42,4.24,4.24,0,0,1,19,.1h.63a4.16,4.16,0,0,1,1.57.32,5.89,5.89,0,0,1,1.36.73,3.21,3.21,0,0,1,.94,1.15,3.83,3.83,0,0,1,.32,1.57,3.83,3.83,0,0,1-.32,1.57,6,6,0,0,1-.83,1.36,3.34,3.34,0,0,1-1.36.73,4.24,4.24,0,0,1-1.57.32Zm6.28.52a3.48,3.48,0,0,1,1.47.31,3.57,3.57,0,0,1,1,.74,3.4,3.4,0,0,1,.63,1,5.13,5.13,0,0,1,.21,1.15,3.69,3.69,0,0,1-.21,1.16,2.1,2.1,0,0,1-.63,1,2.06,2.06,0,0,1-1,.63,3.05,3.05,0,0,1-1.47.31H18.83a2.63,2.63,0,0,1-1.36-.31,3.81,3.81,0,0,1-.94-.63,2,2,0,0,1-.52-1,1.79,1.79,0,0,1-.31-1.16,4,4,0,0,1,.2-1.15,2.25,2.25,0,0,1,.63-1,3.76,3.76,0,0,1,1-.74,2.07,2.07,0,0,1,1.25-.31ZM19.57,5.23a1.44,1.44,0,0,0,.94-.31,1.2,1.2,0,0,0,.31-.84,1.2,1.2,0,0,0-.31-.84,1.27,1.27,0,0,0-.94-.31h-.32a1.46,1.46,0,0,0-.94.31,1.2,1.2,0,0,0-.31.84,1.2,1.2,0,0,0,.31.84,1.27,1.27,0,0,0,.94.31Zm5,6.91c.21,0,.42-.11.63-.11a.52.52,0,0,0,0-.83.88.88,0,0,0-.63-.21H19.46a1.1,1.1,0,0,0-.63.21.78.78,0,0,0-.2.41.55.55,0,0,0,.2.42c.11.11.32.11.63.11ZM28,8H24.9V.42H28v2.2h1.68V5.34H28Z"/><path class="cls-2" d="M44,14.44H41V8.16h-.73v6.18H37.46V11.82L36.1,13.18H30.34V.73h6.39V3.35H33.17v7.11h4.29V.42h2.83V5.34H41V.42H44Z"/><path class="cls-2" d="M59.54,13.71H56.4V6.59H53.05v7.12H49.91V3.87h7.22c.32,0,.63.11.94.11a4.45,4.45,0,0,1,.74.41,1.62,1.62,0,0,1,.41.74,2.9,2.9,0,0,1,.21.94v7.64Z"/><path class="cls-2" d="M70.63,11.41a3,3,0,0,1-.21.94,4,4,0,0,1-.42.73,1.76,1.76,0,0,1-.73.42,3.19,3.19,0,0,1-.94.21h-5a3.25,3.25,0,0,1-1-.21,5.71,5.71,0,0,1-.73-.42,1.76,1.76,0,0,1-.42-.73,3.26,3.26,0,0,1-.21-.94V6.07a3.19,3.19,0,0,1,.21-.94,5.26,5.26,0,0,1,.42-.74A1.74,1.74,0,0,1,62.36,4a2.81,2.81,0,0,1,1-.11h5c.31,0,.63.11.94.11a4.75,4.75,0,0,1,.73.41,1.64,1.64,0,0,1,.42.74,2.9,2.9,0,0,1,.21.94Zm-3.14-.53V6.59H64.14v4.29Z"/><path class="cls-2" d="M75.44,14H72.3V10.88h3.14Z"/><path class="cls-2" d="M81.41,13.71H78.06V3.87H76.49V.94h4.92Z"/><path class="cls-2" d="M101.39,8.27h-14V5.86h4.29V3.77H95V5.86h6.38V8.27ZM97.84,9a4.52,4.52,0,0,1,1.36.21,1.51,1.51,0,0,1,.94.63,3,3,0,0,1,.63.94,3.87,3.87,0,0,1,.21,1.15,4.65,4.65,0,0,1-.21,1.15,2.59,2.59,0,0,1-.63.94,3.45,3.45,0,0,1-1,.63c-.31,0-.73.1-1.36.1h-7a4.46,4.46,0,0,1-1.36-.21,1.51,1.51,0,0,1-.94-.62A1.67,1.67,0,0,1,87.9,13a3.69,3.69,0,0,1-.21-1.16,4.3,4.3,0,0,1,.21-1.15,2.5,2.5,0,0,1,.62-.94,5.51,5.51,0,0,1,.94-.63,5.55,5.55,0,0,1,1.37-.21h7Zm2.82-3.66H97.52V2.93H88.1V.52h12.56Zm-3.45,7c.21,0,.42-.11.63-.11s.21-.21.21-.31-.11-.32-.21-.32-.32-.1-.63-.1H91.66c-.31,0-.42.1-.63.1s-.2.21-.2.32.1.21.2.31.32.11.63.11Z"/><path class="cls-2" d="M116.46,11.72h-5.23v2.82h-3.45V11.72h-5.24V9h14A22.49,22.49,0,0,0,116.46,11.72Zm-.73-3.66H103.17V.63h3.14V1.78h6.28V.63h3.14Zm-3.14-2.62V4.39h-6.28V5.44Z"/><path class="cls-2" d="M131.53,13.92h-14V11.3h5.23v-2h-4.4V.73h12.25V9.31h-4.4v2h5.23l.11,2.62Zm-4-7.33V3.45h-6V6.7h6Z"/><path class="cls-2" d="M136.66,7.53a4.14,4.14,0,0,1-1.57-.31,5.69,5.69,0,0,1-1.36-.73,3.33,3.33,0,0,1-.95-1.15,3.66,3.66,0,0,1-.31-1.57,3.63,3.63,0,0,1,.31-1.57,3.24,3.24,0,0,1,.95-1.15,3.42,3.42,0,0,1,1.36-.74A4.14,4.14,0,0,1,136.66,0h.83a4.14,4.14,0,0,1,1.57.31,5.38,5.38,0,0,1,1.36.74,3.24,3.24,0,0,1,1,1.15,3.63,3.63,0,0,1,.31,1.57,4.43,4.43,0,0,1-.31,1.57,3.33,3.33,0,0,1-1,1.15,5.69,5.69,0,0,1-1.36.73,4.14,4.14,0,0,1-1.57.31ZM146,14.44h-3.14V13.29l-1.05,1.15h-7.84V8.16h11.92l.11,6.28ZM137.28,5a1.18,1.18,0,0,0,.84-.31,1.19,1.19,0,0,0,.32-.84,1.14,1.14,0,0,0-.32-.94,1.18,1.18,0,0,0-.84-.31h-.52a1.2,1.2,0,0,0-.84.31,1.18,1.18,0,0,0-.31.84,1.17,1.17,0,0,0,.31.83,1.2,1.2,0,0,0,.84.32h.52Zm5.55,6.91v-1h-5.76v1ZM146,7.74h-3.14V.42H146Z"/><path class="cls-2" d="M34.11,63.41V66c12.14.62,20.2,3.87,20.2,10.88C54.31,85.07,43.74,88,28.57,88S2.83,85.07,2.83,77c0-7.11,8.05-10.25,20.19-10.88V63.51H0V54.93H57v8.58H34.11ZM27,47.61C20.82,51,11.93,52.74,2.51,52.84V44.16c8-.11,16.32-1.78,19.88-4.71H3.24V31H53.78v8.48H34.84a10.51,10.51,0,0,1-.52,1.36l20.82,4.08-2.4,8.37Zm1.46,26.68c-8.16,0-13.81.73-13.81,2.72s5.65,2.72,13.81,2.72S42.27,79.11,42.27,77,36.73,74.29,28.46,74.29Z"/><path class="cls-2" d="M78.48,74.92A43.3,43.3,0,0,0,91.66,73v9.62c-3.35,1.36-9.42,2-14.12,2H64.46V32.23H89.05V42H75.23V74.82l3.25.1ZM119.6,31v56.4H109.14V62.26h-4.71V86.33H94.17v-55h10.26V51.8h4.71V31Z"/><path class="cls-2" d="M184.06,60.27v9.1H127v-9.1H150V56.19H130.48V31h10.89v4.29h28.35V31H180.6V56.19H161.14v4.08ZM141.68,78.16h39.76v9.21H130.38V71.68h11.4v6.48Zm-.31-30.34h28.35v-4.4H141.37Z"/></svg>