<svg xmlns="http://www.w3.org/2000/svg" width="256" height="172.001" viewBox="0 0 256 172.001">
  <g id="그룹_10554" data-name="그룹 10554" transform="translate(-942 6748)">
    <rect id="사각형_7132" data-name="사각형 7132" width="256" height="172" transform="translate(942 -6748)" fill="none" opacity="0.478"/>
    <g id="그룹_10262" data-name="그룹 10262" transform="translate(886 -6960.289)">
      <ellipse id="타원_503" data-name="타원 503" cx="36.445" cy="2.145" rx="36.445" ry="2.145" transform="translate(62.971 379)" fill="#e2e2e2" opacity="0.677"/>
      <ellipse id="타원_506" data-name="타원 506" cx="36.211" cy="2.645" rx="36.211" ry="2.645" transform="translate(234.579 379)" fill="#e2e2e2" opacity="0.677"/>
    </g>
    <g id="그룹_10245" data-name="그룹 10245" transform="translate(935.1 -6739.147)">
      <g id="그룹_10246" data-name="그룹 10246" transform="translate(29.9)">
        <path id="패스_4135" data-name="패스 4135" d="M299.433,283.186c-30-12.715-57.147-12.232-82.714-4.471-39.394-6.88-66.369-5.816-83.672,4.471V251.25H299.433Z" transform="translate(-125.476 -171.011)" fill="#4c4c4c"/>
        <path id="패스_4136" data-name="패스 4136" d="M305.663,107.471c-28.732-13.018-57.429-13.859-86.558,0-29.836-8.59-58.678-8.5-86.558,0V6.556c29.642-8.847,58.476-8.634,86.558,0,29.664-8.6,58.543-8.878,86.558,0Z" transform="translate(-128.421 -2.039)" fill="#ececec"/>
        <path id="패스_4137" data-name="패스 4137" d="M154.021,39.242l-.93-2.38a103.07,103.07,0,0,1,21.852-5.226c11.815-1.588,29.418-1.967,46.184,5.242l-1.009,2.347c-16.2-6.968-33.287-6.6-44.765-5.067a102.611,102.611,0,0,0-21.332,5.083" transform="translate(-139.119 -20.886)" fill="#fff"/>
        <path id="패스_4138" data-name="패스 4138" d="M154.021,67.242l-.93-2.38a103.068,103.068,0,0,1,21.852-5.226c11.815-1.588,29.418-1.967,46.184,5.242l-1.009,2.347c-16.2-6.968-33.287-6.6-44.765-5.067a102.613,102.613,0,0,0-21.332,5.083" transform="translate(-139.119 -39.945)" fill="#fff"/>
        <path id="패스_4139" data-name="패스 4139" d="M154.021,95.242l-.93-2.38a103.07,103.07,0,0,1,21.852-5.226c11.815-1.588,29.418-1.967,46.184,5.242l-1.009,2.347c-16.2-6.968-33.287-6.6-44.765-5.067a102.613,102.613,0,0,0-21.332,5.083" transform="translate(-139.119 -59.002)" fill="#fff"/>
        <path id="패스_4140" data-name="패스 4140" d="M154.021,123.242l-.93-2.38a103.069,103.069,0,0,1,21.852-5.226c11.815-1.588,29.418-1.967,46.184,5.242l-1.009,2.347c-16.2-6.968-33.287-6.6-44.765-5.067a102.613,102.613,0,0,0-21.332,5.083" transform="translate(-139.119 -78.06)" fill="#fff"/>
        <path id="패스_4141" data-name="패스 4141" d="M154.021,151.242l-.93-2.38a103.071,103.071,0,0,1,21.852-5.226c11.815-1.588,29.418-1.967,46.184,5.242l-1.009,2.347c-16.2-6.968-33.287-6.6-44.765-5.067a102.613,102.613,0,0,0-21.332,5.083" transform="translate(-139.119 -97.118)" fill="#fff"/>
        <path id="패스_4142" data-name="패스 4142" d="M154.021,179.242l-.93-2.38a103.068,103.068,0,0,1,21.852-5.226c11.815-1.588,29.418-1.967,46.184,5.242l-1.009,2.347c-16.2-6.968-33.287-6.6-44.765-5.067a102.612,102.612,0,0,0-21.332,5.083" transform="translate(-139.119 -116.176)" fill="#fff"/>
        <path id="패스_4143" data-name="패스 4143" d="M415.021,238.242l-.93-2.38a103.069,103.069,0,0,1,21.852-5.226c11.815-1.588,29.418-1.967,46.184,5.242l-1.009,2.347c-16.2-6.968-33.287-6.6-44.765-5.067a102.611,102.611,0,0,0-21.332,5.083" transform="translate(-316.766 -156.334)" fill="#ffbb4e"/>
        <path id="패스_4144" data-name="패스 4144" d="M414.547,86.71V37.871l.9-.28c22.72-7.1,45.331-7.1,67.2,0l.883.286V86.645l-1.729-.652c-22.76-8.59-44.793-8.6-65.486-.015Zm33.713-9.724a96.522,96.522,0,0,1,32.714,5.98V39.742c-20.8-6.558-42.276-6.554-63.872.011V82.906a85.059,85.059,0,0,1,31.158-5.921" transform="translate(-317.077 -21.963)" fill="#fff"/>
        <path id="패스_4145" data-name="패스 4145" d="M622.713,182.612l.335-8.128,11.48-22.824a3.311,3.311,0,0,1,1.5-1.494,3.351,3.351,0,0,1,4.677,1.947,3.45,3.45,0,0,1,.145.651,3.314,3.314,0,0,1-.333,1.909l-11.5,22.855Z" transform="translate(-458.763 -101.969)" fill="#ffbb4e"/>
        <path id="패스_4146" data-name="패스 4146" d="M640.3,150.315l-12.461,24.776-.95-.478,12.052-23.963a3.176,3.176,0,0,1,1.359-.335" transform="translate(-461.608 -102.31)" fill="#3f3d56"/>
        <path id="패스_4147" data-name="패스 4147" d="M651.443,156.193l-11.986,23.832-.95-.478,12.435-24.724a3.177,3.177,0,0,1,.362.75,3.3,3.3,0,0,1,.139.62" transform="translate(-469.513 -105.378)" fill="#3f3d56"/>
        <path id="패스_4148" data-name="패스 4148" d="M646.4,151.369l-12.6,25.05-.95-.478,12.615-25.081a3.065,3.065,0,0,1,.392.165,3.248,3.248,0,0,1,.542.344" transform="translate(-465.664 -102.681)" fill="#3f3d56"/>
        <path id="패스_4149" data-name="패스 4149" d="M624.524,244.676l-1.268,1.021.106-2.692a2.517,2.517,0,0,1,1.161,1.671" transform="translate(-459.132 -165.399)" fill="#3f3d56"/>
        <path id="패스_4150" data-name="패스 4150" d="M232.44,294.223l-1.518-4.6,1.617-15.138a1.973,1.973,0,0,1,.524-1.148,2,2,0,0,1,3.017.105,2.058,2.058,0,0,1,.217.332,1.976,1.976,0,0,1,.215,1.135l-1.619,15.159Z" transform="translate(-192.094 -185.608)" fill="#212b36"/>
        <path id="패스_4151" data-name="패스 4151" d="M234.915,273.419l-1.755,16.432-.63-.067,1.7-15.893a1.885,1.885,0,0,1,.688-.472" transform="translate(-193.188 -186.1)" fill="#ff9f1c"/>
        <path id="패스_4152" data-name="패스 4152" d="M242.551,274.8l-1.688,15.8-.63-.067,1.751-16.4a1.894,1.894,0,0,1,.36.343,1.959,1.959,0,0,1,.207.317" transform="translate(-198.431 -186.589)" fill="#ff9f1c"/>
        <path id="패스_4153" data-name="패스 4153" d="M238.887,273.082,237.112,289.7l-.63-.067L238.259,273a1.81,1.81,0,0,1,.254.01,1.946,1.946,0,0,1,.374.078" transform="translate(-195.878 -185.81)" fill="#ff9f1c"/>
        <path id="패스_4154" data-name="패스 4154" d="M235.167,335.3l-.493.835-.505-1.524a1.5,1.5,0,0,1,1,.689" transform="translate(-194.304 -227.753)" fill="#ff9f1c"/>
        <path id="패스_4155" data-name="패스 4155" d="M735.19,273.944a2.653,2.653,0,0,1-4.609-2.627v-.006l.018-.031a2.843,2.843,0,0,1,.25-.354l-2.231-15.9-.067-.477L728.1,251.3l-.067-.468.247.012,4.323.2,1.159.052.145,2.96.822,16.643a2.649,2.649,0,0,1,.461,3.245Z" transform="translate(-530.449 -170.728)" fill="#fdd6cb"/>
        <path id="패스_4156" data-name="패스 4156" d="M723.612,226.929l5.489-.5a1.084,1.084,0,0,0,.977-1.173l-1.017-11.415a4.162,4.162,0,1,0-8.291.74c.007.079.016.157.028.235l1.646,11.2a1.082,1.082,0,0,0,1.069.924.785.785,0,0,0,.1,0" transform="translate(-525.494 -142.965)" fill="#cbcbcb"/>
        <path id="패스_4157" data-name="패스 4157" d="M703.38,213.008a7.645,7.645,0,0,0-2.812-8.8c-2.07-1.416-4.9-1.925-7.953,1.707a37.976,37.976,0,0,0-7.7,15.252l12.492,2.034s4.249-5.193,5.971-10.193" transform="translate(-501.101 -138.267)" fill="#cbcbcb"/>
        <path id="패스_4158" data-name="패스 4158" d="M668.264,460.926H664.7l-1.694-13.738h5.257Z" transform="translate(-486.189 -304.375)" fill="#ffb6b6"/>
        <path id="패스_4159" data-name="패스 4159" d="M646.808,491.343H658v-4.325h-6.869a4.325,4.325,0,0,0-4.323,4.325Z" transform="translate(-475.163 -331.484)" fill="#859a4d"/>
        <path id="패스_4160" data-name="패스 4160" d="M751.33,452.678l-3.382,1.118-5.921-12.512,4.991-1.65Z" transform="translate(-539.973 -299.233)" fill="#ffb6b6"/>
        <path id="패스_4161" data-name="패스 4161" d="M742.927,484.321l10.628-3.513L752.2,476.7l-6.522,2.156a4.325,4.325,0,0,0-2.751,5.465Z" transform="translate(-540.436 -324.463)" fill="#859a4d"/>
        <path id="패스_4162" data-name="패스 4162" d="M702.968,150.519a7.135,7.135,0,1,1-7.135,7.135,7.135,7.135,0,0,1,7.135-7.135" transform="translate(-508.531 -102.449)" fill="#fdd6cb"/>
        <path id="패스_4163" data-name="패스 4163" d="M656.692,327.639,660,305.808a1.017,1.017,0,0,1,1.993-.087l5.037,20.8a1.316,1.316,0,0,0,1.478.983l13.894-2.233a1.307,1.307,0,0,0,1.044-1.671l-18.117-59.729a1.021,1.021,0,0,1-.018-.523l.6-2.615a1.3,1.3,0,0,0-.676-1.457c-2.467-1.259-8.715-3.876-13.431-1.009a1.322,1.322,0,0,0-.6.85l-14.152,66.519a1.307,1.307,0,0,0,1.006,1.55,1.228,1.228,0,0,0,.156.023l17.07,1.529c.039,0,.078.005.116.005a1.31,1.31,0,0,0,1.292-1.111Z" transform="translate(-468.502 -174.911)" fill="#ffbb4e"/>
        <path id="패스_4164" data-name="패스 4164" d="M729.142,148.809a5.391,5.391,0,0,1-1.41-1.226,1.83,1.83,0,0,1-.282-1.772,1.86,1.86,0,0,1,2.262-.776,5.406,5.406,0,0,1,2.078,1.55,5.338,5.338,0,0,1,1.336,1.856,1.624,1.624,0,0,1-2.61,1.878A5.362,5.362,0,0,1,729.2,148.5Z" transform="translate(-529.973 -98.646)" fill="#2f2e41"/>
        <path id="패스_4165" data-name="패스 4165" d="M740.559,144c.04-2.01,2.331-3.452,4.31-3.1a6.126,6.126,0,0,1,4.262,3.9c1.609,3.932.4,8.419-1.149,12.376s-3.469,7.971-3.242,12.214a12.761,12.761,0,0,0,7.413,10.749c-2.234,1.012-4.9-.033-6.78-1.612a13.55,13.55,0,0,1-3.824-14.829c.964-2.508,2.662-4.653,3.988-6.989s2.3-5.089,1.614-7.687-3.6-4.7-6.089-3.7Z" transform="translate(-538.974 -95.866)" fill="#2f2e41"/>
        <path id="패스_4166" data-name="패스 4166" d="M699.96,158.92c.622-1.051,1.249-2.431.113-3.35a2.343,2.343,0,0,0-1.758-.465,8.383,8.383,0,0,1-3.918-.248,3.673,3.673,0,0,1-2.131-1.915,3.783,3.783,0,0,1,1.5-4.321,5.054,5.054,0,0,1,5.595-.1,5.764,5.764,0,0,1,5.414.629,8.606,8.606,0,0,1,3.24,4.546,8.777,8.777,0,0,1,.268,4.827,7.173,7.173,0,0,1-4.449,4.9,2.583,2.583,0,0,1-2.551-.378,4.8,4.8,0,0,1-1.291-1.892,3.045,3.045,0,0,1-.031-2.239" transform="translate(-505.951 -100.549)" fill="#2f2e41"/>
        <path id="패스_4167" data-name="패스 4167" d="M637.719,197.692a2.975,2.975,0,0,1,.069.476l12.48,7.2,3.033-1.746,3.234,4.233-5.07,3.614a2.325,2.325,0,0,1-2.789-.068l-12.87-10.152a3.05,3.05,0,1,1,1.8-3.92,3.151,3.151,0,0,1,.109.364Z" transform="translate(-464.877 -132.954)" fill="#fdd6cb"/>
        <path id="패스_4168" data-name="패스 4168" d="M690.574,215.12l4.033,5.228a1.308,1.308,0,0,0,1.834.235,1.338,1.338,0,0,0,.142-.127l4.566-4.742a3.631,3.631,0,0,0-4.319-5.839l-.017.012q-.059.044-.117.091l-5.727,3.2a1.307,1.307,0,0,0-.5,1.779,1.354,1.354,0,0,0,.106.16Z" transform="translate(-504.766 -142.365)" fill="#cbcbcb"/>
        <path id="패스_4169" data-name="패스 4169" d="M208.551,456.981h3.872l1.842-14.934H208.55Z" transform="translate(-176.867 -300.875)" fill="#ffb6b6"/>
        <path id="패스_4170" data-name="패스 4170" d="M205.46,484.85h7.625a4.859,4.859,0,0,1,4.859,4.859v.158H205.46Z" transform="translate(-174.764 -330.009)" fill="#b4b4b4"/>
        <path id="패스_4171" data-name="패스 4171" d="M114.156,452.091l3.828.579,4.054-14.491-5.019-.854Z" transform="translate(-112.618 -297.661)" fill="#ffb6b6"/>
        <path id="패스_4172" data-name="패스 4172" d="M110.091,479.185l7.539,1.139h0a4.86,4.86,0,0,1,4.078,5.531l-.024.156-12.344-1.866Z" transform="translate(-109.341 -326.153)" fill="#b4b4b4"/>
        <path id="패스_4173" data-name="패스 4173" d="M150.023,257.07l4.3,1.126-.286,6.97L154,277.855a2.543,2.543,0,1,1-3.365.423l-1.321-12.736Z" transform="translate(-136.548 -174.972)" fill="#fdd6cb"/>
        <path id="패스_4174" data-name="패스 4174" d="M148.223,224.812a3.509,3.509,0,0,1,2.169-3.121,3.281,3.281,0,0,1,3.551.571,3.128,3.128,0,0,1,1.043,2.419,81.134,81.134,0,0,1-.92,10.094l-.015.1-6.283,2.116Z" transform="translate(-135.497 -150.697)" fill="#ff9f1c"/>
        <path id="패스_4175" data-name="패스 4175" d="M133.892,263.063l9.611-2.488,4.442,14.962.158,55.74-7.349-.046-3.072-45.114L118.1,327.8l-7.9-.947,17.211-44.686s-.947-7.9,2.053-11.842l-.632-4.105Z" transform="translate(-109.93 -177.358)" fill="#101010"/>
        <path id="패스_4176" data-name="패스 4176" d="M153.7,227.259a1.474,1.474,0,0,1-.314-1.185L149,212.923a3.346,3.346,0,0,1,.923-3.531l1.9-1.73,1.29-5.159,7.412,1.812-.611,2.443,3.355-.61,7.066,15.737-14.769,5.9-.727.011a1.473,1.473,0,0,1-1.143-.541" transform="translate(-136.221 -137.832)" fill="#ff9f1c"/>
        <path id="패스_4177" data-name="패스 4177" d="M196.3,242.382l4.235-1.346,3.484,6.043,6.753,10.744a2.543,2.543,0,1,1-2.646,2.436,2.5,2.5,0,0,1,.027-.28l-7.924-10.058Z" transform="translate(-168.526 -164.059)" fill="#fdd6cb"/>
        <path id="패스_4178" data-name="패스 4178" d="M179.932,214.16a3.509,3.509,0,0,1,.165-3.8,3.282,3.282,0,0,1,3.307-1.415,3.128,3.128,0,0,1,2.174,1.487,81.139,81.139,0,0,1,4.618,9.023l.038.088-4.179,5.147Z" transform="translate(-157.062 -142.184)" fill="#ff9f1c"/>
        <path id="패스_4179" data-name="패스 4179" d="M166.877,162.615a5.889,5.889,0,1,1-5.889,5.889,5.889,5.889,0,0,1,5.889-5.889" transform="translate(-144.494 -110.682)" fill="#fdd6cb"/>
        <path id="패스_4180" data-name="패스 4180" d="M134.749,137.75a5.673,5.673,0,1,1-5.673,5.673,5.673,5.673,0,0,1,5.673-5.673" transform="translate(-122.773 -93.758)" fill="#212b36"/>
        <path id="패스_4181" data-name="패스 4181" d="M126.1,158.916a5.673,5.673,0,0,0,8.76-2.979,5.673,5.673,0,1,1-11.066-2.327,5.671,5.671,0,0,0,2.306,5.3" transform="translate(-119.017 -104.554)" fill="#212b36"/>
        <path id="패스_4182" data-name="패스 4182" d="M168.252,160.708a10.394,10.394,0,0,0-2.646-3.592,2.751,2.751,0,0,0-3.639-.33,6.743,6.743,0,1,0,4,5.4c.973-.137,1.308-1.341,2.282-1.478" transform="translate(-138.781 -106.339)" fill="#212b36"/>
        <rect id="사각형_6626" data-name="사각형 6626" width="0.639" height="100.331" transform="translate(90.365 4.531)" fill="#f9f9f9"/>
      </g>
    </g>
  </g>
</svg>
