<svg xmlns="http://www.w3.org/2000/svg" width="80" height="80" viewBox="0 0 80 80">
  <g id="그룹_10700" data-name="그룹 10700" transform="translate(-0.005)">
    <path id="패스_5192" data-name="패스 5192" d="M70.654,80H9.346A9.356,9.356,0,0,1,0,70.653V9.346A9.357,9.357,0,0,1,9.351,0H70.659A9.357,9.357,0,0,1,80,9.346V70.653A9.356,9.356,0,0,1,70.654,80ZM9.346,1.5A7.851,7.851,0,0,0,1.5,9.35h0v61.3a7.851,7.851,0,0,0,7.85,7.85H52.291A26.214,26.214,0,0,0,78.5,52.291V9.346a7.851,7.851,0,0,0-7.85-7.85h0Z" fill="#f2f2f2"/>
    <path id="패스_5193" data-name="패스 5193" d="M15.955,7.871a5.267,5.267,0,0,0-5.262,5.262v8.232a5.267,5.267,0,0,0,5.262,5.262h8.236a5.267,5.267,0,0,0,5.262-5.262V13.129a5.267,5.267,0,0,0-5.262-5.262Z" fill="#f2f2f2"/>
    <path id="패스_5195" data-name="패스 5195" d="M19.4,48.229a5.267,5.267,0,0,0-5.262,5.262v8.232A5.267,5.267,0,0,0,19.4,66.985h8.236A5.267,5.267,0,0,0,32.9,61.723V53.487a5.267,5.267,0,0,0-5.262-5.262Z" fill="#f2f2f2"/>
    <path id="패스_5195-2" data-name="패스 5195" d="M19.4,48.229a5.267,5.267,0,0,0-5.262,5.262v8.232A5.267,5.267,0,0,0,19.4,66.985h8.236A5.267,5.267,0,0,0,32.9,61.723V53.487a5.267,5.267,0,0,0-5.262-5.262Z" transform="translate(33.963 -34.915)" fill="#f2f2f2"/>
    <path id="패스_5196" data-name="패스 5196" d="M21.417,9.43a6.638,6.638,0,0,0-6.631,6.631V26.439a6.638,6.638,0,0,0,6.631,6.631H31.8a6.638,6.638,0,0,0,6.631-6.631V16.061A6.638,6.638,0,0,0,31.8,9.43Z" transform="translate(0 2)" fill="#dfdfe3"/>
    <path id="패스_5197" data-name="패스 5197" d="M53.849,40a6.638,6.638,0,0,0-6.63,6.631V57.009a6.638,6.638,0,0,0,6.63,6.631H64.227a6.638,6.638,0,0,0,6.631-6.631V46.63A6.638,6.638,0,0,0,64.227,40Z" fill="#dfdfe3"/>
    <path id="패스_5211" data-name="패스 5211" d="M70.654,80H9.346A9.356,9.356,0,0,1,0,70.653V9.346A9.357,9.357,0,0,1,9.351,0H70.659A9.357,9.357,0,0,1,80,9.346V70.653A9.356,9.356,0,0,1,70.654,80ZM9.346,1.5A7.851,7.851,0,0,0,1.5,9.35h0v61.3a7.851,7.851,0,0,0,7.85,7.85H52.291A26.214,26.214,0,0,0,78.5,52.291V9.346a7.851,7.851,0,0,0-7.85-7.85h0Z" fill="#e2e2e2"/>
  </g>
</svg>
