<svg xmlns="http://www.w3.org/2000/svg" width="80" height="80" viewBox="0 0 80 80">
  <g id="그룹_10700" data-name="그룹 10700" transform="translate(-0.005)">
    <path id="패스_5192" data-name="패스 5192" d="M70.654,80H9.346A9.356,9.356,0,0,1,0,70.653V9.346A9.357,9.357,0,0,1,9.351,0H70.659A9.357,9.357,0,0,1,80,9.346V70.653A9.356,9.356,0,0,1,70.654,80ZM9.346,1.5A7.851,7.851,0,0,0,1.5,9.35h0v61.3a7.851,7.851,0,0,0,7.85,7.85H52.291A26.214,26.214,0,0,0,78.5,52.291V9.346a7.851,7.851,0,0,0-7.85-7.85h0Z" fill="#f2f2f2"/>
    <path id="패스_5193" data-name="패스 5193" d="M15.955,7.871a5.267,5.267,0,0,0-5.262,5.262v8.232a5.267,5.267,0,0,0,5.262,5.262h8.236a5.267,5.267,0,0,0,5.262-5.262V13.129a5.267,5.267,0,0,0-5.262-5.262Z" fill="#f2f2f2"/>
    <path id="패스_5194" data-name="패스 5194" d="M30.6,26.632a5.267,5.267,0,0,0-5.262,5.262v8.232A5.267,5.267,0,0,0,30.6,45.388h8.236A5.267,5.267,0,0,0,44.1,40.126V31.89a5.267,5.267,0,0,0-5.262-5.262H30.6Z" fill="#f2f2f2"/>
    <path id="패스_5195" data-name="패스 5195" d="M19.4,48.229a5.267,5.267,0,0,0-5.262,5.262v8.232A5.267,5.267,0,0,0,19.4,66.985h8.236A5.267,5.267,0,0,0,32.9,61.723V53.487a5.267,5.267,0,0,0-5.262-5.262Z" fill="#f2f2f2"/>
    <path id="패스_5196" data-name="패스 5196" d="M21.417,9.43a6.638,6.638,0,0,0-6.631,6.631V26.439a6.638,6.638,0,0,0,6.631,6.631H31.8a6.638,6.638,0,0,0,6.631-6.631V16.061A6.638,6.638,0,0,0,31.8,9.43Z" fill="#dfdfe3"/>
    <path id="패스_5197" data-name="패스 5197" d="M53.849,40a6.638,6.638,0,0,0-6.63,6.631V57.009a6.638,6.638,0,0,0,6.63,6.631H64.227a6.638,6.638,0,0,0,6.631-6.631V46.63A6.638,6.638,0,0,0,64.227,40Z" fill="#dfdfe3"/>
    <g id="_" data-name=" " style="isolation: isolate">
      <g id="그룹_10701" data-name="그룹 10701" style="isolation: isolate">
        <path id="패스_5212" data-name="패스 5212" d="M65.163,19.145v.266c0,1.574-.65,2.615-3,4.673-1.45,1.26-1.65,1.768-1.65,2.785a1.305,1.305,0,0,1-1.45,1.186c-.825,0-1.524-.387-1.524-1.259,0-1.695.274-2.59,2.074-4.117,2.074-1.742,2.35-2.275,2.35-3.244v-.121c0-1.017-.725-1.913-2.7-1.913a5.374,5.374,0,0,0-3.175,1.042,1.393,1.393,0,0,1-1.65-2.229,8.011,8.011,0,0,1,4.924-1.549C62.988,14.665,65.163,16.5,65.163,19.145ZM60.938,31.518a1.9,1.9,0,1,1-1.9-1.84A1.838,1.838,0,0,1,60.938,31.518Z" fill="#d8d9dd"/>
      </g>
    </g>
    <path id="패스_5211" data-name="패스 5211" d="M70.654,80H9.346A9.356,9.356,0,0,1,0,70.653V9.346A9.357,9.357,0,0,1,9.351,0H70.659A9.357,9.357,0,0,1,80,9.346V70.653A9.356,9.356,0,0,1,70.654,80ZM9.346,1.5A7.851,7.851,0,0,0,1.5,9.35h0v61.3a7.851,7.851,0,0,0,7.85,7.85H52.291A26.214,26.214,0,0,0,78.5,52.291V9.346a7.851,7.851,0,0,0-7.85-7.85h0Z" fill="#e2e2e2"/>
  </g>
</svg>
