<svg xmlns="http://www.w3.org/2000/svg" xmlns:xlink="http://www.w3.org/1999/xlink" width="400" height="480" viewBox="0 0 400 480">
  <defs>
    <linearGradient id="linear-gradient" x1="0.5" x2="0.5" y2="1" gradientUnits="objectBoundingBox">
      <stop offset="0" stop-color="#f8f8f8"/>
      <stop offset="1" stop-color="#e0e0e0"/>
    </linearGradient>
  </defs>
  <g id="그룹_10559" data-name="그룹 10559" transform="translate(-1445 -312)">
    <rect id="사각형_7128" data-name="사각형 7128" width="400" height="480" transform="translate(1445 312)" fill="none" opacity="0.614"/>
    <g id="그룹_10547" data-name="그룹 10547" transform="translate(1455 342)">
      <path id="패스_4754" data-name="패스 4754" d="M388.388,407.613H269.979v57.679H388.388Z" transform="translate(-75.084 -112.2)" fill="#fdd5c1"/>
      <path id="패스_4755" data-name="패스 4755" d="M261.84,456.476c-13.888,13.7-19.351,81.2-18.62,119.027h165.3s-.3-82.491-12.83-110.289C384.17,439.651,365.013,477.36,261.84,456.476Z" transform="translate(-67.642 -125.504)" fill="#1f2d49"/>
      <path id="패스_4756" data-name="패스 4756" d="M406.319,38.527s13.716-15.692,40.339-17.975,34.589,21.106,33.452,35.476-22,44.048-17.83,56.6-15.45,6.469-17.588-18.644S434.587,33.87,412.964,46.426Z" transform="translate(-112.911 -5.615)" fill="#080b09"/>
      <path id="패스_4757" data-name="패스 4757" d="M412.08,35.124s3.28-1.905,5.656,2.542,6.812,13.477,1.189,15.872S412.08,35.124,412.08,35.124Z" transform="translate(-114.509 -9.556)" fill="#fff"/>
      <path id="패스_4758" data-name="패스 4758" d="M273.523,230.876s21.268,23.942,14.195,31.623c-14.009,15.784-51.269,45.45-63.478,55.27a5.022,5.022,0,0,1-7.075-.97L188.3,278.727a7.259,7.259,0,0,1,.991-9.909l55.919-48.367Z" transform="translate(-52.003 -60.682)" fill="#f6c84e"/>
      <path id="패스_4759" data-name="패스 4759" d="M249.266,276.834s-26.5,15.8-28.893,47.549l5.278,6.8s3.314,5.794,7.908,2.1L259.4,312.527Z" transform="translate(-61.321 -76.202)" fill="#ebb931" opacity="0.997" style="isolation: isolate"/>
      <path id="패스_4760" data-name="패스 4760" d="M283.163,270.633a30.025,30.025,0,1,0-29.935-30.024A29.98,29.98,0,0,0,283.163,270.633Z" transform="translate(-70.437 -57.965)" fill="#f6c84e"/>
      <path id="패스_4761" data-name="패스 4761" d="M176.73,360.168l-26.161-34.742,24.766-19.285,3.881-3.135L206.353,338.6l-4.725,3.409Z" transform="translate(-41.954 -83.405)" fill="#fdd5c1"/>
      <path id="패스_4762" data-name="패스 4762" d="M211.137,342.01c-7.007-9.411-20.186-27.8-26.292-35.869l3.882-3.135,27.068,35.384Z" transform="translate(-51.464 -83.405)" fill="#fcba9f"/>
      <path id="패스_4763" data-name="패스 4763" d="M159.778,371.972a21.8,21.8,0,1,0-21.731-21.8A21.764,21.764,0,0,0,159.778,371.972Z" transform="translate(-38.48 -90.391)" fill="#fdd5c1"/>
      <path id="패스_4764" data-name="패스 4764" d="M157.858,298.936S87.758,195.678,84.517,186.91c-3.152-8.564-19.711,12.044-19.711,12.044L119.06,317.68Z" transform="translate(-18.159 -50.876)" fill="#fdd5c1"/>
      <path id="패스_4765" data-name="패스 4765" d="M323.833,136.968,315.405,195.9s-2.212,7.822,7.606,9.006,30.751-1.462,38.228-9.453S366.1,183.5,366.1,183.5l-15.856-63.963Z" transform="translate(-87.628 -32.904)" fill="#fdd5c1"/>
      <path id="패스_4766" data-name="패스 4766" d="M323.636,151.336l20.614-7.3L318.712,182Z" transform="translate(-88.605 -39.647)" fill="#fcba9f"/>
      <path id="패스_4767" data-name="패스 4767" d="M290.6,37.682s-17.684,41.678-8.468,70.244c6.011,18.629,19.1,21.978,49.079,8.018,27.487-12.8,34.626-22.484,34.626-22.484L369.891,47S308.559.534,290.6,37.682Z" transform="translate(-77.717 -6.41)" fill="#fdd5c1"/>
      <path id="패스_4768" data-name="패스 4768" d="M295.29,200.162s-22.654,6.313-27.252,10S260.1,243.839,253.3,258.65c-10.059,21.928-16.572,33.592.327,57.689,10.193,14.534,6.595,51.52,6.595,51.52l124.231-.037c-3.759-72.653,12.88-158.3,12.88-158.3L341.326,196.58C328.7,198.764,295.29,200.162,295.29,200.162Z" transform="translate(-67.662 -54.111)" fill="#f6c84e"/>
      <path id="패스_4769" data-name="패스 4769" d="M308.919,196.929s1.676-11.42,7.03-12.224,38.069-5.74,43.158-3.591,11.249,15.815,11.249,15.815-10.445,25.554-25.443,26.9-40.812-3.295-38.082-12.8S308.919,196.929,308.919,196.929Z" transform="translate(-85.253 -49.706)" fill="#f6c84e"/>
      <path id="패스_4770" data-name="패스 4770" d="M295.7,204.806s3.62,22.04,23.274,21.692,48.215-29.918,48.215-29.918" transform="translate(-82.219 -54.111)" fill="none" stroke="#fff" stroke-miterlimit="10" stroke-width="1.357"/>
      <path id="패스_4771" data-name="패스 4771" d="M401.266,252.012s-19.531,12.951-13.778,26.02c6.469,14.694,6.413,52.538-12.152,54.91-33.126,4.232-18.733,10.042-3.417,13.755s9.046,3.716,9.046,19.632c0,11.328,35.49,21.149,34.568,12C409.361,317.088,435.014,278.313,401.266,252.012Z" transform="translate(-98.738 -69.369)" fill="#ebb931" opacity="0.997" style="isolation: isolate"/>
      <path id="패스_4772" data-name="패스 4772" d="M292.692,127.76l16.451.817c-.058.2-.149.481-.277.807a9.724,9.724,0,0,1-1.48,2.549c-1.459,1.793-4.008,3.5-8.413,3.051a7.381,7.381,0,0,1-5.257-4.185,11.758,11.758,0,0,1-.88-2.383C292.77,128.154,292.724,127.932,292.692,127.76Z" transform="translate(-81.386 -35.167)" fill="#e56441" stroke="#e56441" stroke-width="1"/>
      <path id="패스_4773" data-name="패스 4773" d="M291.7,87.847c.688-2.557-.157-5.008-1.887-5.476s-3.689,1.226-4.376,3.782.157,5.007,1.886,5.475S291.01,90.4,291.7,87.847Z" transform="translate(-79.306 -22.652)" fill="#080b09"/>
      <path id="패스_4774" data-name="패스 4774" d="M326.919,97.89c.688-2.556-.157-5.007-1.886-5.475s-3.689,1.225-4.377,3.782.157,5.007,1.887,5.475S326.232,100.447,326.919,97.89Z" transform="translate(-89.078 -25.417)" fill="#080b09"/>
      <path id="패스_4775" data-name="패스 4775" d="M285.041,71.139l12.937,3.729a.951.951,0,0,0,1.083-.624,3.057,3.057,0,0,0-2.719-3.487L285.23,69.585C284.378,69.354,283.976,70.85,285.041,71.139Z" transform="translate(-79.085 -19.148)" fill="#080b09"/>
      <path id="패스_4776" data-name="패스 4776" d="M339.765,84.619l-17.544-3.6a3.9,3.9,0,0,1,5.238-2.48l12.807,5.07C340.691,83.724,340.4,84.793,339.765,84.619Z" transform="translate(-89.578 -21.536)" fill="#080b09"/>
      <path id="패스_4777" data-name="패스 4777" d="M301.827,90.965,293.5,102.2l3.134,4.444" transform="translate(-81.611 -25.039)" fill="none" stroke="#e56441" stroke-linecap="round" stroke-width="2.239"/>
      <path id="패스_4778" data-name="패스 4778" d="M325.321,254.032c1.61,0,2.917-3.62,2.917-8.085s-1.306-8.084-2.917-8.084-2.918,3.619-2.918,8.084S323.709,254.032,325.321,254.032Z" transform="translate(-89.629 -65.474)" fill="#fff"/>
      <path id="패스_4779" data-name="패스 4779" d="M489.69,391.8l-43.263,3.556-7.385-31.448-8.9-24.182,45.529-5.465,5.692,27.064Z" transform="translate(-119.522 -92.01)" fill="#fdd5c1"/>
      <path id="패스_4780" data-name="패스 4780" d="M477.547,344.348l1.6,7.589-44.836.968-2.949-8.016Z" transform="translate(-119.858 -94.786)" fill="#fcba9f"/>
      <path id="패스_4781" data-name="패스 4781" d="M434.712,273.191a30.025,30.025,0,1,0-29.935-30.025A29.98,29.98,0,0,0,434.712,273.191Z" transform="translate(-112.483 -58.669)" fill="#f6c84e"/>
      <path id="패스_4782" data-name="패스 4782" d="M429.024,234.586s31.549-5.195,34.227,4.91c5.788,20.319,12.9,52.939,14.633,68.539a5.036,5.036,0,0,1-4.606,5.473l-47.514,4.068a7.228,7.228,0,0,1-7.814-6.145L405.083,252.99Z" transform="translate(-112.568 -64.205)" fill="#f6c84e"/>
      <path id="패스_4783" data-name="패스 4783" d="M300.179,27.312S301.3,47.555,318.4,57.366c0,0,5,15.527,23.66,19.178,0,0-1.1-14.271,7.792-14.12,15.1.257,7.675,23.235-2.536,27.006-6.939,2.561-11.119,11.655-.818,32.379,23.652-8.462,40.286-42.635,33.765-80.549C375.037,10.9,337.511.984,329.8,1.973c0,0-32.018-11.094-48.878,19.335-14.412,26.012-.952,41.536-.952,41.536l7.681-23.151S290.859,41.953,300.179,27.312Z" transform="translate(-76.272 0)" fill="#080b09"/>
      <path id="패스_4784" data-name="패스 4784" d="M461.222,478.084H346.635a9.105,9.105,0,0,1-9.025-7.99l-10.576-84.665a9.107,9.107,0,0,1,9.025-10.257H471.8a9.1,9.1,0,0,1,8.692,6.434,9.158,9.158,0,0,1,.334,3.823l-10.577,84.665a9.105,9.105,0,0,1-9.025,7.99Z" transform="translate(-90.894 -103.271)" fill="url(#linear-gradient)"/>
      <path id="패스_4785" data-name="패스 4785" d="M430.766,449a8.067,8.067,0,1,0-8.043-8.067A8.055,8.055,0,0,0,430.766,449Z" transform="translate(-117.462 -119.15)" fill="#fff"/>
      <path id="패스_4786" data-name="패스 4786" d="M49.874,185.767l-6.9-13.287s-24.416-14.008-27.245-19.073-3.942-19.527,1.068-23.229c0,0-19.481-14.675-16.164-17.649,3.306-3.189,41.577,25.328,41.577,25.328s-4.659-21.009,2.421-21.994A73.841,73.841,0,0,0,54.344,138.8c7.455,11.562,8.373,21.916,8.373,21.916L71.5,177.629Z" transform="translate(-0.248 -30.906)" fill="#fdd5c1"/>
      <path id="패스_4787" data-name="패스 4787" d="M24.961,137.487l11.8,7.457" transform="translate(-7.104 -37.844)" fill="none" stroke="#ff967c" stroke-linecap="round" stroke-linejoin="round" stroke-width="2.872"/>
      <path id="패스_4788" data-name="패스 4788" d="M22.527,149.258,32.539,155.5" transform="translate(-6.429 -41.085)" fill="none" stroke="#ff967c" stroke-linecap="round" stroke-linejoin="round" stroke-width="2.872"/>
      <path id="패스_4789" data-name="패스 4789" d="M25.22,161.984l6.679,4.233" transform="translate(-7.176 -44.588)" fill="none" stroke="#ff967c" stroke-linecap="round" stroke-linejoin="round" stroke-width="2.872"/>
      <path id="패스_4790" data-name="패스 4790" d="M460.2,508.275s6.056.5,5.144,3.569-6.319,1.651-11.257,4.717-24.455,5.252-34.2,3.623-12.458-11.909-12.458-11.909-1.63-9.752,15.591-10.753,25.236,4.541,28.231,10.549Z" transform="translate(-113.207 -136.916)" fill="#fdd5c1"/>
      <path id="패스_4791" data-name="패스 4791" d="M417.576,499.657l3.719,10.034" transform="translate(-116.034 -137.536)" fill="none" stroke="#e56441" stroke-linecap="round" stroke-width="2.239"/>
      <path id="패스_4792" data-name="패스 4792" d="M430.908,497.4l3.719,10.034" transform="translate(-119.733 -136.916)" fill="none" stroke="#e56441" stroke-linecap="round" stroke-width="2.239"/>
      <path id="패스_4793" data-name="패스 4793" d="M444.986,498.576l3.719,10.033" transform="translate(-123.639 -137.238)" fill="none" stroke="#e56441" stroke-linecap="round" stroke-width="2.239"/>
    </g>
  </g>
</svg>
