<svg xmlns="http://www.w3.org/2000/svg" xmlns:xlink="http://www.w3.org/1999/xlink" width="360" height="426" viewBox="0 0 360 426">
  <defs>
    <clipPath id="clip-path">
      <rect id="사각형_7470" data-name="사각형 7470" width="360" height="426" transform="translate(0 108)" fill="none" stroke="#f440a8" stroke-width="2" opacity="0.614"/>
    </clipPath>
    <linearGradient id="linear-gradient" x1="0.5" x2="0.5" y2="1" gradientUnits="objectBoundingBox">
      <stop offset="0" stop-color="#f8f8f8"/>
      <stop offset="1" stop-color="#e0e0e0"/>
    </linearGradient>
  </defs>
  <g id="마스크_그룹_318" data-name="마스크 그룹 318" transform="translate(0 -108)" clip-path="url(#clip-path)">
    <g id="그룹_10658" data-name="그룹 10658">
      <path id="패스_5023" data-name="패스 5023" d="M379,240.473c-11.685,31.275-35.427,64.977-69,75-50.743,15.173-57.125,55.8-148,52a180.887,180.887,0,0,1-39-6,160.8,160.8,0,0,1-19-6c-53.1-21.5-80.678-68.48-83-118-3.031-65.125,42.436-96.812,72-115s64.632-88.04,154-85a183.44,183.44,0,0,1,41,6c30.069,8.149,60.244,25.688,78,52,1.336,1.977,2.789,3.936,4,6C393.795,141.785,394.923,197.83,379,240.473Z" transform="translate(-47 83.527)" fill="#eff8ff" opacity="0.249"/>
      <g id="그룹_10656" data-name="그룹 10656" transform="translate(10 182)">
        <path id="패스_4754" data-name="패스 4754" d="M269.979,407.613h101.1v49.249h-101.1Z" transform="translate(-204.493 -155.375)" fill="#fdd5c1"/>
        <path id="패스_4755" data-name="패스 4755" d="M368.4,456.4c11.858,11.7,16.523,69.332,15.9,101.631H243.156s.254-70.435,10.955-94.17C263.951,442.032,280.309,474.23,368.4,456.4Z" transform="translate(-201.218 -173.798)" fill="#1f2d49"/>
        <path id="패스_4756" data-name="패스 4756" d="M469.414,35.877s-11.711-13.4-34.443-15.348S405.437,38.55,406.408,50.82s18.787,37.61,15.224,48.332,13.192,5.524,15.017-15.919,8.629-51.333,27.091-40.612Z" transform="translate(-386.94 -7.775)" fill="#080b09"/>
        <path id="패스_4757" data-name="패스 4757" d="M420.253,35.065s-2.8-1.627-4.829,2.17-5.816,11.507-1.015,13.552S420.253,35.065,420.253,35.065Z" transform="translate(-341.333 -13.234)" fill="#fff"/>
        <path id="패스_4758" data-name="패스 4758" d="M200.139,229.352s-18.16,20.443-12.12,27c11.961,13.477,43.776,38.807,54.2,47.192a4.288,4.288,0,0,0,6.041-.829l24.65-32.506a6.2,6.2,0,0,0-.846-8.461l-47.746-41.3Z" transform="translate(-56.283 -84.032)" fill="#f6c84e"/>
        <path id="패스_4759" data-name="패스 4759" d="M229.025,276.834s22.63,13.492,24.67,40.6l-4.507,5.808s-2.83,4.947-6.752,1.8l-22.063-17.727Z" transform="translate(-56.501 -105.524)" fill="#ebb931" opacity="0.997" style="isolation: isolate"/>
        <path id="패스_4760" data-name="패스 4760" d="M278.788,261.857a25.637,25.637,0,1,1,25.56-25.636A25.6,25.6,0,0,1,278.788,261.857Z" transform="translate(-127.424 -80.27)" fill="#f6c84e"/>
        <path id="패스_4761" data-name="패스 4761" d="M175.862,351.814,198.2,322.149l-21.147-16.466-3.314-2.677L150.569,333.4l4.035,2.911Z" transform="translate(42.059 -115.5)" fill="#fdd5c1"/>
        <path id="패스_4762" data-name="패스 4762" d="M188.821,336.309c5.983-8.035,17.236-23.739,22.45-30.626l-3.314-2.677-23.112,30.213Z" transform="translate(7.842 -115.5)" fill="#fcba9f"/>
        <path id="패스_4763" data-name="패스 4763" d="M156.6,365.6a18.611,18.611,0,1,1,18.555-18.611A18.583,18.583,0,0,1,156.6,365.6Z" transform="translate(72.828 -125.173)" fill="#fdd5c1"/>
        <path id="패스_4764" data-name="패스 4764" d="M64.806,282.259s59.855-88.166,62.622-95.653c2.692-7.313,16.83,10.283,16.83,10.283L97.934,298.263Z" transform="translate(148.913 -70.453)" fill="#fdd5c1"/>
        <path id="패스_4765" data-name="패스 4765" d="M351.66,134.42l7.2,50.318s1.889,6.679-6.495,7.69-26.257-1.248-32.641-8.072-4.15-10.2-4.15-10.2l13.538-54.615Z" transform="translate(-220.343 -45.565)" fill="#fdd5c1"/>
        <path id="패스_4766" data-name="패스 4766" d="M336.313,150.269l-17.6-6.235,21.805,32.415Z" transform="translate(-203.994 -54.903)" fill="#fcba9f"/>
        <path id="패스_4767" data-name="패스 4767" d="M347.173,35.578s15.1,35.587,7.231,59.977c-5.132,15.906-16.309,18.766-41.906,6.846-23.469-10.93-29.565-19.2-29.565-19.2l-3.461-39.67S331.838,3.859,347.173,35.578Z" transform="translate(-195.942 -8.875)" fill="#fdd5c1"/>
        <path id="패스_4768" data-name="패스 4768" d="M330.358,199.639s19.343,5.39,23.269,8.54,6.78,28.753,12.582,41.4c8.589,18.723,14.15,28.683-.279,49.258-8.7,12.41-5.631,43.99-5.631,43.99L254.224,342.8c3.21-62.034-11-135.162-11-135.162L291.05,196.58C301.833,198.445,330.358,199.639,330.358,199.639Z" transform="translate(-191.717 -74.933)" fill="#f6c84e"/>
        <path id="패스_4769" data-name="패스 4769" d="M359.087,194.539s-1.431-9.751-6-10.438-32.505-4.9-36.85-3.066-9.6,13.5-9.6,13.5,8.919,21.819,21.725,22.966,34.847-2.813,32.516-10.925S359.087,194.539,359.087,194.539Z" transform="translate(-217.064 -68.833)" fill="#f6c84e"/>
        <path id="패스_4770" data-name="패스 4770" d="M356.737,203.6s-3.091,18.819-19.873,18.522S295.7,196.58,295.7,196.58" transform="translate(-206.015 -74.933)" fill="none" stroke="#fff" stroke-miterlimit="10" stroke-width="1.357"/>
        <path id="패스_4771" data-name="패스 4771" d="M370.475,252.012s16.676,11.058,11.764,22.217c-5.523,12.546-5.476,44.859,10.376,46.885,28.285,3.613,16,8.574,2.918,11.744s-7.724,3.173-7.724,16.763c0,9.672-30.3,18.058-29.515,10.243C363.563,307.577,341.659,274.469,370.475,252.012Z" transform="translate(-295.787 -96.063)" fill="#ebb931" opacity="0.997" style="isolation: isolate"/>
        <path id="패스_4772" data-name="패스 4772" d="M306.739,127.76l-14.047.7c.05.173.127.41.237.689a8.3,8.3,0,0,0,1.264,2.176c1.246,1.531,3.422,2.987,7.183,2.605a6.3,6.3,0,0,0,4.489-3.574,10.043,10.043,0,0,0,.751-2.035C306.672,128.1,306.712,127.907,306.739,127.76Z" transform="translate(-154.162 -48.699)" fill="#e56441" stroke="#e56441" stroke-width="1"/>
        <path id="패스_4773" data-name="패스 4773" d="M285.4,87.035c-.587-2.183.134-4.276,1.611-4.676s3.15,1.046,3.736,3.229-.134,4.275-1.61,4.675S285.987,89.218,285.4,87.035Z" transform="translate(-133.75 -31.368)" fill="#080b09"/>
        <path id="패스_4774" data-name="패스 4774" d="M320.622,97.078c-.587-2.183.134-4.275,1.61-4.675s3.15,1.046,3.737,3.229-.134,4.275-1.611,4.675S321.209,99.261,320.622,97.078Z" transform="translate(-190.702 -35.197)" fill="#080b09"/>
        <path id="패스_4775" data-name="패스 4775" d="M296.4,70.908l-11.047,3.184a.812.812,0,0,1-.925-.533,2.61,2.61,0,0,1,2.322-2.977l9.488-1C296.964,69.385,297.308,70.662,296.4,70.908Z" transform="translate(-139.253 -26.515)" fill="#080b09"/>
        <path id="패스_4776" data-name="패스 4776" d="M322.821,83.687l14.98-3.075a3.333,3.333,0,0,0-4.472-2.118l-10.935,4.329C322.03,82.923,322.275,83.835,322.821,83.687Z" transform="translate(-203.441 -29.823)" fill="#080b09"/>
        <path id="패스_4777" data-name="패스 4777" d="M293.505,90.965l7.105,9.6-2.676,3.795" transform="translate(-148.535 -34.674)" fill="none" stroke="#e56441" stroke-linecap="round" stroke-width="2.239"/>
        <path id="패스_4778" data-name="패스 4778" d="M324.893,251.668c-1.375,0-2.491-3.091-2.491-6.9s1.115-6.9,2.491-6.9,2.491,3.09,2.491,6.9S326.269,251.668,324.893,251.668Z" transform="translate(-193.138 -90.669)" fill="#fff"/>
        <path id="패스_4779" data-name="패스 4779" d="M430.145,383.394l36.94,3.036,6.306-26.852,7.6-20.648-38.875-4.666-4.86,23.108Z" transform="translate(-413.212 -127.416)" fill="#fdd5c1"/>
        <path id="패스_4780" data-name="패스 4780" d="M432.721,344.348l-1.363,6.48,38.283.826,2.518-6.845Z" transform="translate(-405.133 -131.26)" fill="#fcba9f"/>
        <path id="패스_4781" data-name="패스 4781" d="M430.337,264.415a25.637,25.637,0,1,1,25.56-25.637A25.6,25.6,0,0,1,430.337,264.415Z" transform="translate(-372.472 -81.246)" fill="#f6c84e"/>
        <path id="패스_4782" data-name="패스 4782" d="M446.819,234.391s-26.938-4.436-29.225,4.192c-4.942,17.349-11.017,45.2-12.494,58.522a4.3,4.3,0,0,0,3.932,4.673l40.57,3.473a6.171,6.171,0,0,0,6.672-5.247l10.987-49.9Z" transform="translate(-384.024 -88.911)" fill="#f6c84e"/>
        <path id="패스_4783" data-name="패스 4783" d="M343.854,23.32S342.9,40.6,328.3,48.982c0,0-4.269,13.258-20.2,16.375,0,0,.941-12.185-6.653-12.056-12.9.219-6.553,19.839,2.166,23.059,5.925,2.187,9.494,9.952.7,27.647-20.2-7.225-34.4-36.4-28.83-68.776C279.937,9.306,311.979.84,318.562,1.684c0,0,27.339-9.473,41.735,16.509,12.306,22.211.813,35.466.813,35.466l-6.559-19.767S351.812,35.821,343.854,23.32Z" transform="translate(-202.037 0)" fill="#080b09"/>
        <path id="패스_4784" data-name="패스 4784" d="M343.761,463.043H441.6a7.775,7.775,0,0,0,7.706-6.822l9.03-72.291a7.776,7.776,0,0,0-7.706-8.758H334.73a7.774,7.774,0,0,0-7.421,5.494,7.82,7.82,0,0,0-.285,3.264l9.031,72.291a7.775,7.775,0,0,0,7.706,6.822Z" transform="translate(-326.964 -143.01)" fill="url(#linear-gradient)"/>
        <path id="패스_4785" data-name="패스 4785" d="M429.591,446.638a6.888,6.888,0,1,1,6.867-6.888A6.878,6.878,0,0,1,429.591,446.638Z" transform="translate(-364.104 -165)" fill="#fff"/>
        <path id="패스_4786" data-name="패스 4786" d="M18.716,175.027l5.9-11.345S45.459,151.72,47.875,147.4s3.366-16.673-.912-19.834c0,0,16.634-12.53,13.8-15.069-2.823-2.723-35.5,21.626-35.5,21.626s3.978-17.939-2.067-18.779a63.049,63.049,0,0,1-8.3,19.584A45.646,45.646,0,0,0,7.75,153.636l-7.5,14.442Z" transform="translate(271.911 -42.799)" fill="#fdd5c1"/>
        <path id="패스_4787" data-name="패스 4787" d="M35.034,137.487l-10.073,6.367" transform="translate(282.719 -52.407)" fill="none" stroke="#ff967c" stroke-linecap="round" stroke-linejoin="round" stroke-width="2.872"/>
        <path id="패스_4788" data-name="패스 4788" d="M31.076,149.258l-8.549,5.331" transform="translate(288.179 -56.894)" fill="none" stroke="#ff967c" stroke-linecap="round" stroke-linejoin="round" stroke-width="2.872"/>
        <path id="패스_4789" data-name="패스 4789" d="M30.922,161.984l-5.7,3.614" transform="translate(286.671 -61.746)" fill="none" stroke="#ff967c" stroke-linecap="round" stroke-linejoin="round" stroke-width="2.872"/>
        <path id="패스_4790" data-name="패스 4790" d="M411.859,506.686s-5.171.431-4.392,3.048,5.4,1.41,9.611,4.027,20.881,4.485,29.205,3.093,10.637-10.168,10.637-10.168,1.392-8.327-13.312-9.181-21.548,3.877-24.1,9.008Z" transform="translate(-375.14 -189.602)" fill="#fdd5c1"/>
        <path id="패스_4791" data-name="패스 4791" d="M420.751,499.657l-3.175,8.567" transform="translate(-345.222 -190.461)" fill="none" stroke="#e56441" stroke-linecap="round" stroke-width="2.239"/>
        <path id="패스_4792" data-name="패스 4792" d="M434.083,497.4l-3.175,8.568" transform="translate(-366.779 -189.602)" fill="none" stroke="#e56441" stroke-linecap="round" stroke-width="2.239"/>
        <path id="패스_4793" data-name="패스 4793" d="M448.162,498.576l-3.175,8.567" transform="translate(-389.543 -190.049)" fill="none" stroke="#e56441" stroke-linecap="round" stroke-width="2.239"/>
      </g>
    </g>
  </g>
</svg>
