<svg xmlns="http://www.w3.org/2000/svg" xmlns:xlink="http://www.w3.org/1999/xlink" width="1920" height="552" viewBox="0 0 1920 552">
  <defs>
    <linearGradient id="linear-gradient" x1="0.49" y1="0.071" x2="0.326" y2="1.232" gradientUnits="objectBoundingBox">
      <stop offset="0" stop-color="#306eea"/>
      <stop offset="0" stop-color="#2f6feb"/>
      <stop offset="1" stop-color="#1897fd"/>
    </linearGradient>
    <clipPath id="clip-path">
      <rect id="사각형_7154" data-name="사각형 7154" width="1920" height="552" transform="translate(-16175 -21596.367)" fill="url(#linear-gradient)"/>
    </clipPath>
  </defs>
  <g id="마스크_그룹_214" data-name="마스크 그룹 214" transform="translate(16175 21596.367)" clip-path="url(#clip-path)">
    <g id="그룹_10565" data-name="그룹 10565" transform="translate(-17053.465 -21604.961)">
      <rect id="사각형_7153" data-name="사각형 7153" width="1920" height="562" transform="translate(878.465 -0.405)" fill="url(#linear-gradient)"/>
      <g id="그룹_10564" data-name="그룹 10564" transform="translate(334.746 105.49)">
        <path id="패스_4847" data-name="패스 4847" d="M-19296.064-14932.566s202.2-269.222-877.582-290.64-1011.094,213.839-2351.865,254.006-292.961,540.459-292.961,540.459L-19706.752-14068l478.041-607.781-67.354-234.312Z" transform="translate(23208.148 15224.581)" fill="#fefefe" opacity="0.093"/>
      </g>
      <path id="패스_4848" data-name="패스 4848" d="M-20104.65-14992.923s160.4-213.576-696.2-230.568-802.111,169.642-1865.76,201.506-232.408,428.752-232.408,428.752l2468.561,286.177,379.234-482.16-53.432-185.881Z" transform="translate(23208.148 15529.691)" fill="#ececec" opacity="0.093"/>
    </g>
  </g>
</svg>
