<svg xmlns="http://www.w3.org/2000/svg" xmlns:xlink="http://www.w3.org/1999/xlink" width="360" height="196" viewBox="0 0 360 196">
  <defs>
    <clipPath id="clip-path">
      <path id="패스_5184" data-name="패스 5184" d="M360,196H0V0H360Z" transform="translate(-14337 497)" fill="#fff"/>
    </clipPath>
  </defs>
  <g id="그룹_10653" data-name="그룹 10653" transform="translate(14337 -497)">
    <path id="패스_5185" data-name="패스 5185" d="M360,196H0V0H360Z" transform="translate(-14337 497)" fill="#fff"/>
    <g id="마스크_그룹_317" data-name="마스크 그룹 317" clip-path="url(#clip-path)">
      <g id="그룹_10554" data-name="그룹 10554" transform="translate(-15279 7245)">
        <rect id="사각형_7132" data-name="사각형 7132" width="360" height="242" transform="translate(942 -6748)" fill="none" opacity="0.478"/>
        <g id="그룹_10262" data-name="그룹 10262" transform="translate(951.805 -6513.521)">
          <ellipse id="타원_503" data-name="타원 503" cx="51.26" cy="3.017" rx="51.26" ry="3.017" transform="translate(0 0)" fill="#e2e2e2" opacity="0.677"/>
          <ellipse id="타원_506" data-name="타원 506" cx="50.931" cy="3.72" rx="50.931" ry="3.72" transform="translate(241.367 0)" fill="#e2e2e2" opacity="0.677"/>
        </g>
        <g id="그룹_10245" data-name="그룹 10245" transform="translate(974.348 -6738.416)">
          <g id="그룹_10246" data-name="그룹 10246" transform="translate(0 0)">
            <path id="패스_4135" data-name="패스 4135" d="M367.07,296.168c-42.2-17.884-80.377-17.2-116.338-6.289-55.408-9.677-93.348-8.18-117.685,6.289V251.25H367.07Z" transform="translate(-122.397 -135.526)" fill="#4c4c4c"/>
            <path id="패스_4136" data-name="패스 4136" d="M376.035,151.158c-40.412-18.31-80.774-19.493-121.744,0-41.964-12.082-82.531-11.955-121.744,0V9.221c41.692-12.443,82.247-12.144,121.744,0,41.723-12.1,82.341-12.487,121.744,0Z" transform="translate(-126.742 0)" fill="#ececec"/>
            <path id="패스_4137" data-name="패스 4137" d="M154.4,42.72l-1.308-3.347a144.969,144.969,0,0,1,30.735-7.35c16.618-2.234,41.377-2.767,64.958,7.373l-1.419,3.3c-22.785-9.8-46.818-9.283-62.962-7.127a144.322,144.322,0,0,0-30,7.149" transform="translate(-133.438 -14.035)" fill="#fff"/>
            <path id="패스_4138" data-name="패스 4138" d="M154.4,70.72l-1.308-3.347a144.966,144.966,0,0,1,30.735-7.35c16.618-2.234,41.377-2.767,64.958,7.373l-1.419,3.3c-22.785-9.8-46.818-9.283-62.962-7.127a144.326,144.326,0,0,0-30,7.149" transform="translate(-133.438 -29.459)" fill="#fff"/>
            <path id="패스_4139" data-name="패스 4139" d="M154.4,98.72l-1.308-3.347a144.968,144.968,0,0,1,30.735-7.35c16.618-2.234,41.377-2.767,64.958,7.373l-1.419,3.3c-22.785-9.8-46.818-9.283-62.962-7.127a144.325,144.325,0,0,0-30,7.149" transform="translate(-133.438 -44.881)" fill="#fff"/>
            <path id="패스_4140" data-name="패스 4140" d="M154.4,126.72l-1.308-3.347a144.967,144.967,0,0,1,30.735-7.35c16.618-2.234,41.377-2.767,64.958,7.373l-1.419,3.3c-22.785-9.8-46.818-9.283-62.962-7.127a144.325,144.325,0,0,0-30,7.149" transform="translate(-133.438 -60.304)" fill="#fff"/>
            <path id="패스_4141" data-name="패스 4141" d="M154.4,154.72l-1.308-3.347a144.971,144.971,0,0,1,30.735-7.35c16.618-2.234,41.377-2.767,64.958,7.373l-1.419,3.3c-22.785-9.8-46.818-9.283-62.962-7.127a144.324,144.324,0,0,0-30,7.149" transform="translate(-133.438 -75.727)" fill="#fff"/>
            <path id="패스_4142" data-name="패스 4142" d="M154.4,182.72l-1.308-3.347a144.964,144.964,0,0,1,30.735-7.35c16.618-2.234,41.377-2.767,64.958,7.373l-1.419,3.3c-22.785-9.8-46.818-9.283-62.962-7.127a144.327,144.327,0,0,0-30,7.149" transform="translate(-133.438 -91.15)" fill="#fff"/>
            <path id="패스_4143" data-name="패스 4143" d="M415.4,241.72l-1.308-3.347a144.966,144.966,0,0,1,30.735-7.35c16.618-2.233,41.376-2.767,64.958,7.373l-1.419,3.3c-22.785-9.8-46.818-9.283-62.962-7.127a144.324,144.324,0,0,0-30,7.149" transform="translate(-277.202 -123.649)" fill="#ffbb4e"/>
            <path id="패스_4144" data-name="패스 4144" d="M414.547,108.842V40.149l1.266-.394c31.956-9.986,63.758-9.986,94.517,0l1.242.4V108.75l-2.432-.917c-32.012-12.082-63-12.1-92.106-.021Zm47.417-13.677a135.758,135.758,0,0,1,46.012,8.411V42.781c-29.255-9.224-59.461-9.218-89.836.015v60.695a119.637,119.637,0,0,1,43.824-8.328" transform="translate(-277.454 -14.907)" fill="#fff"/>
            <path id="패스_4145" data-name="패스 4145" d="M622.713,195.945l.471-11.432,16.147-32.1a4.657,4.657,0,0,1,2.11-2.1,4.713,4.713,0,0,1,6.578,2.738,4.848,4.848,0,0,1,.2.916,4.662,4.662,0,0,1-.469,2.685L631.58,188.794Z" transform="translate(-392.115 -79.653)" fill="#ffbb4e"/>
            <path id="패스_4146" data-name="패스 4146" d="M645.752,150.315l-17.526,34.848-1.336-.672,16.951-33.7a4.467,4.467,0,0,1,1.911-.471" transform="translate(-394.419 -79.928)" fill="#3f3d56"/>
            <path id="패스_4147" data-name="패스 4147" d="M656.7,156.75l-16.858,33.52-1.336-.672L656,154.823a4.467,4.467,0,0,1,.509,1.055,4.643,4.643,0,0,1,.2.872" transform="translate(-400.815 -82.411)" fill="#3f3d56"/>
            <path id="패스_4148" data-name="패스 4148" d="M651.908,151.576l-17.722,35.233-1.336-.672,17.743-35.276a4.305,4.305,0,0,1,.551.232,4.578,4.578,0,0,1,.762.484" transform="translate(-397.701 -80.229)" fill="#3f3d56"/>
            <path id="패스_4149" data-name="패스 4149" d="M625.039,245.355l-1.783,1.436.149-3.786a3.54,3.54,0,0,1,1.633,2.35" transform="translate(-392.414 -130.985)" fill="#3f3d56"/>
            <path id="패스_4150" data-name="패스 4150" d="M233.057,302.972l-2.135-6.47L233.2,275.21a2.775,2.775,0,0,1,.737-1.615,2.813,2.813,0,0,1,4.243.148,2.9,2.9,0,0,1,.305.467,2.779,2.779,0,0,1,.3,1.6l-2.277,21.321Z" transform="translate(-176.309 -147.337)" fill="#212b36"/>
            <path id="패스_4151" data-name="패스 4151" d="M235.884,273.419l-2.468,23.112-.886-.094,2.391-22.354a2.65,2.65,0,0,1,.968-.664" transform="translate(-177.194 -147.737)" fill="#ff9f1c"/>
            <path id="패스_4152" data-name="패스 4152" d="M243.493,275.071l-2.374,22.223-.886-.094,2.463-23.067a2.663,2.663,0,0,1,.506.482,2.758,2.758,0,0,1,.291.446" transform="translate(-181.437 -148.135)" fill="#ff9f1c"/>
            <path id="패스_4153" data-name="패스 4153" d="M239.865,273.116l-2.5,23.373-.886-.094,2.5-23.394a2.521,2.521,0,0,1,.357.014,2.732,2.732,0,0,1,.526.11" transform="translate(-179.371 -147.5)" fill="#ff9f1c"/>
            <path id="패스_4154" data-name="패스 4154" d="M235.573,335.58l-.693,1.174-.71-2.144a2.11,2.11,0,0,1,1.407.969" transform="translate(-178.097 -181.447)" fill="#ff9f1c"/>
            <path id="패스_4155" data-name="패스 4155" d="M738.1,283.339a3.731,3.731,0,1,1-6.483-3.7v-.008l.025-.044a4.012,4.012,0,0,1,.352-.5l-3.138-22.363-.094-.671-.634-4.57-.094-.658.347.017,6.08.281,1.63.073.2,4.163,1.156,23.408a3.726,3.726,0,0,1,.648,4.564Z" transform="translate(-450.129 -135.298)" fill="#fdd6cb"/>
            <path id="패스_4156" data-name="패스 4156" d="M724.774,233.791l7.72-.7a1.525,1.525,0,0,0,1.374-1.65l-1.431-16.055a5.854,5.854,0,1,0-11.661,1.041c.01.111.023.221.039.331l2.315,15.753a1.522,1.522,0,0,0,1.5,1.3,1.11,1.11,0,0,0,.141,0" transform="translate(-446.119 -112.828)" fill="#cbcbcb"/>
            <path id="패스_4157" data-name="패스 4157" d="M710.886,217.019a10.753,10.753,0,0,0-3.955-12.377c-2.911-1.992-6.892-2.708-11.186,2.4a53.414,53.414,0,0,0-10.83,21.452l17.57,2.861s5.976-7.3,8.4-14.336" transform="translate(-426.378 -109.028)" fill="#cbcbcb"/>
            <path id="패스_4158" data-name="패스 4158" d="M670.4,466.511h-5.013l-2.383-19.323H670.4Z" transform="translate(-414.311 -243.454)" fill="#ffb6b6"/>
            <path id="패스_4159" data-name="패스 4159" d="M646.808,493.1H662.55v-6.083h-9.661a6.083,6.083,0,0,0-6.08,6.083Z" transform="translate(-405.387 -265.392)" fill="#859a4d"/>
            <path id="패스_4160" data-name="패스 4160" d="M755.112,457.98l-4.757,1.573-8.328-17.6,7.02-2.321Z" transform="translate(-457.836 -239.292)" fill="#ffb6b6"/>
            <path id="패스_4161" data-name="패스 4161" d="M743.016,487.419l14.948-4.941-1.906-5.778-9.173,3.032A6.083,6.083,0,0,0,743.016,487.419Z" transform="translate(-458.211 -259.711)" fill="#859a4d"/>
            <path id="패스_4162" data-name="패스 4162" d="M705.868,150.519a10.035,10.035,0,1,1-10.035,10.035,10.035,10.035,0,0,1,10.035-10.035" transform="translate(-432.391 -80.041)" fill="#fdd6cb"/>
            <path id="패스_4163" data-name="패스 4163" d="M664.688,356.364l4.653-30.705a1.43,1.43,0,0,1,2.8-.122l7.085,29.255a1.851,1.851,0,0,0,2.079,1.383l19.542-3.141a1.838,1.838,0,0,0,1.468-2.35l-25.482-84.009a1.436,1.436,0,0,1-.025-.736l.844-3.678a1.828,1.828,0,0,0-.951-2.049c-3.47-1.771-12.258-5.452-18.891-1.419a1.86,1.86,0,0,0-.844,1.2l-19.9,93.559a1.838,1.838,0,0,0,1.415,2.18,1.725,1.725,0,0,0,.219.032l24.009,2.151c.055,0,.11.007.163.007a1.843,1.843,0,0,0,1.817-1.563Z" transform="translate(-399.996 -138.685)" fill="#ffbb4e"/>
            <path id="패스_4164" data-name="패스 4164" d="M729.876,150.394a7.581,7.581,0,0,1-1.983-1.724,2.574,2.574,0,0,1-.4-2.492,2.616,2.616,0,0,1,3.182-1.091,7.6,7.6,0,0,1,2.923,2.18,7.507,7.507,0,0,1,1.879,2.611,2.284,2.284,0,0,1-3.671,2.641,7.542,7.542,0,0,1-1.851-2.558Z" transform="translate(-449.743 -76.972)" fill="#2f2e41"/>
            <path id="패스_4165" data-name="패스 4165" d="M740.559,145.282c.056-2.827,3.279-4.855,6.062-4.36a8.616,8.616,0,0,1,5.995,5.485c2.263,5.53.563,11.841-1.616,17.407s-4.879,11.211-4.56,17.179a17.949,17.949,0,0,0,10.427,15.118c-3.142,1.423-6.892-.046-9.536-2.267a19.058,19.058,0,0,1-5.378-20.857c1.356-3.527,3.744-6.544,5.609-9.83s3.235-7.158,2.27-10.812-5.063-6.611-8.564-5.2Z" transform="translate(-457.027 -74.714)" fill="#2f2e41"/>
            <path id="패스_4166" data-name="패스 4166" d="M703.164,163.471c.875-1.478,1.757-3.419.159-4.712a3.3,3.3,0,0,0-2.473-.654,11.791,11.791,0,0,1-5.511-.349,5.166,5.166,0,0,1-3-2.693,5.321,5.321,0,0,1,2.11-6.077,7.108,7.108,0,0,1,7.869-.141,8.107,8.107,0,0,1,7.615.885,12.105,12.105,0,0,1,4.557,6.394,12.346,12.346,0,0,1,.377,6.789,10.089,10.089,0,0,1-6.257,6.892,3.633,3.633,0,0,1-3.588-.532,6.751,6.751,0,0,1-1.816-2.661,4.283,4.283,0,0,1-.043-3.149" transform="translate(-430.288 -78.504)" fill="#2f2e41"/>
            <path id="패스_4167" data-name="패스 4167" d="M640.168,198.649a4.179,4.179,0,0,1,.1.669l17.553,10.127,4.266-2.456,4.549,5.954-7.131,5.083a3.27,3.27,0,0,1-3.923-.1l-18.1-14.279a4.29,4.29,0,1,1,2.532-5.514,4.425,4.425,0,0,1,.153.512Z" transform="translate(-397.063 -104.727)" fill="#fdd6cb"/>
            <path id="패스_4168" data-name="패스 4168" d="M690.685,217.542l5.672,7.353a1.84,1.84,0,0,0,2.58.331,1.87,1.87,0,0,0,.2-.179l6.422-6.67a5.108,5.108,0,1,0-6.075-8.213l-.024.017q-.083.062-.165.128l-8.055,4.5a1.838,1.838,0,0,0-.7,2.5,1.893,1.893,0,0,0,.149.225Z" transform="translate(-429.344 -112.344)" fill="#cbcbcb"/>
            <path id="패스_4169" data-name="패스 4169" d="M208.551,463.052H214l2.591-21H208.55Z" transform="translate(-163.986 -240.621)" fill="#ffb6b6"/>
            <path id="패스_4170" data-name="패스 4170" d="M205.46,484.85h10.725a6.834,6.834,0,0,1,6.834,6.834v.222H205.46Z" transform="translate(-162.285 -264.198)" fill="#b4b4b4"/>
            <path id="패스_4171" data-name="패스 4171" d="M114.156,458.093l5.384.814,5.7-20.382-7.059-1.2Z" transform="translate(-111.991 -238.02)" fill="#ffb6b6"/>
            <path id="패스_4172" data-name="패스 4172" d="M110.4,479.185l10.6,1.6h0a6.836,6.836,0,0,1,5.736,7.779l-.034.219-17.362-2.625Z" transform="translate(-109.34 -261.078)" fill="#b4b4b4"/>
            <path id="패스_4173" data-name="패스 4173" d="M150.311,257.07l6.048,1.584-.4,9.8L155.9,286.3a3.577,3.577,0,1,1-4.733.595l-1.858-17.913Z" transform="translate(-131.357 -138.732)" fill="#fdd6cb"/>
            <path id="패스_4174" data-name="패스 4174" d="M148.408,226.2a4.935,4.935,0,0,1,3.051-4.39,4.615,4.615,0,0,1,4.994.8,4.4,4.4,0,0,1,1.467,3.4,114.121,114.121,0,0,1-1.294,14.2l-.021.141-8.837,2.976Z" transform="translate(-130.507 -119.087)" fill="#ff9f1c"/>
            <path id="패스_4175" data-name="패스 4175" d="M143.523,264.074l13.518-3.5,6.248,21.044.222,78.4-10.336-.065L148.854,296.5l-27.542,58.627L110.2,353.8l24.207-62.851s-1.332-11.111,2.888-16.656l-.889-5.774Z" transform="translate(-109.819 -140.663)" fill="#101010"/>
            <path id="패스_4176" data-name="패스 4176" d="M155.68,237.322a2.073,2.073,0,0,1-.442-1.667l-6.169-18.5a4.706,4.706,0,0,1,1.3-4.966l2.672-2.433,1.814-7.256,10.425,2.549-.859,3.436,4.719-.858,9.938,22.134-20.773,8.3-1.023.015a2.072,2.072,0,0,1-1.608-.761" transform="translate(-131.094 -108.676)" fill="#ff9f1c"/>
            <path id="패스_4177" data-name="패스 4177" d="M196.3,242.929l5.957-1.893,4.9,8.5,9.5,15.111a3.577,3.577,0,1,1-3.722,3.426,3.52,3.52,0,0,1,.038-.394l-11.145-14.147Z" transform="translate(-157.234 -129.9)" fill="#fdd6cb"/>
            <path id="패스_4178" data-name="패스 4178" d="M180.127,216.3a4.936,4.936,0,0,1,.232-5.345,4.616,4.616,0,0,1,4.651-1.99,4.4,4.4,0,0,1,3.058,2.091,114.123,114.123,0,0,1,6.5,12.691l.053.124-5.878,7.239Z" transform="translate(-147.959 -112.199)" fill="#ff9f1c"/>
            <path id="패스_4179" data-name="패스 4179" d="M169.271,162.615a8.283,8.283,0,1,1-8.283,8.283,8.283,8.283,0,0,1,8.283-8.283" transform="translate(-137.788 -86.704)" fill="#fdd6cb"/>
            <path id="패스_4180" data-name="패스 4180" d="M137.055,137.75a7.979,7.979,0,1,1-7.979,7.979,7.979,7.979,0,0,1,7.979-7.979" transform="translate(-120.209 -73.008)" fill="#212b36"/>
            <path id="패스_4181" data-name="패스 4181" d="M127.133,161.073a7.979,7.979,0,0,0,12.321-4.19,7.979,7.979,0,1,1-15.564-3.273,7.976,7.976,0,0,0,3.243,7.454" transform="translate(-117.169 -81.745)" fill="#212b36"/>
            <path id="패스_4182" data-name="패스 4182" d="M174.645,162.531a14.619,14.619,0,0,0-3.722-5.052,3.869,3.869,0,0,0-5.118-.464,9.484,9.484,0,1,0,5.626,7.6c1.369-.193,1.84-1.886,3.21-2.079" transform="translate(-133.192 -83.194)" fill="#212b36"/>
            <rect id="사각형_6626" data-name="사각형 6626" width="0.899" height="141.116" transform="translate(127.1 9.24)" fill="#f9f9f9"/>
          </g>
        </g>
      </g>
    </g>
  </g>
</svg>
