<svg xmlns="http://www.w3.org/2000/svg" xmlns:xlink="http://www.w3.org/1999/xlink" width="390" height="450" viewBox="0 0 390 450">
  <defs>
    <style>
      .cls-1 {
        fill: #fdd5c1;
      }

      .cls-2 {
        fill: #1f2d49;
      }

      .cls-3 {
        fill: #080b09;
      }

      .cls-4 {
        fill: #fff;
      }

      .cls-5 {
        fill: #f6c84e;
      }

      .cls-6 {
        fill: #ebb931;
        opacity: 0.997;
        isolation: isolate;
      }

      .cls-7 {
        fill: #fcba9f;
      }

      .cls-10, .cls-12, .cls-8 {
        fill: none;
      }

      .cls-8 {
        stroke: #fff;
        stroke-miterlimit: 10;
        stroke-width: 1.357px;
      }

      .cls-9 {
        fill: #e56441;
      }

      .cls-10, .cls-9 {
        stroke: #e56441;
      }

      .cls-10, .cls-12 {
        stroke-linecap: round;
      }

      .cls-10 {
        stroke-width: 2.239px;
      }

      .cls-11 {
        fill: url(#linear-gradient);
      }

      .cls-12 {
        stroke: #ff967c;
        stroke-linejoin: round;
        stroke-width: 2.872px;
      }
    </style>
    <linearGradient id="linear-gradient" x1="0.5" x2="0.5" y2="1" gradientUnits="objectBoundingBox">
      <stop offset="0" stop-color="#f8f8f8"/>
      <stop offset="1" stop-color="#e0e0e0"/>
    </linearGradient>
  </defs>
  <g id="그룹_10546" data-name="그룹 10546" transform="translate(1787.272 6814)">
    <path id="패스_4754" data-name="패스 4754" class="cls-1" d="M388.388,407.613H269.979v57.679H388.388Z" transform="translate(-1862.355 -6926.2)"/>
    <path id="패스_4755" data-name="패스 4755" class="cls-2" d="M261.84,456.476c-13.888,13.7-19.351,81.2-18.62,119.028H408.525s-.3-82.491-12.83-110.289C384.17,439.651,365.013,477.36,261.84,456.476Z" transform="translate(-1854.914 -6939.503)"/>
    <path id="패스_4756" data-name="패스 4756" class="cls-3" d="M406.319,38.527s13.716-15.692,40.339-17.975,34.589,21.106,33.452,35.476-22,44.048-17.83,56.605-15.45,6.469-17.588-18.644S434.587,33.87,412.964,46.426Z" transform="translate(-1900.182 -6819.614)"/>
    <path id="패스_4757" data-name="패스 4757" class="cls-4" d="M412.08,35.124s3.28-1.905,5.656,2.542,6.812,13.477,1.189,15.872S412.08,35.124,412.08,35.124Z" transform="translate(-1901.781 -6823.557)"/>
    <path id="패스_4758" data-name="패스 4758" class="cls-5" d="M273.523,230.876s21.268,23.942,14.195,31.623c-14.009,15.784-51.269,45.45-63.478,55.27a5.022,5.022,0,0,1-7.075-.97L188.3,278.727a7.259,7.259,0,0,1,.991-9.909l55.919-48.367Z" transform="translate(-1839.275 -6874.682)"/>
    <path id="패스_4759" data-name="패스 4759" class="cls-6" d="M249.266,276.834s-26.5,15.8-28.893,47.549l5.278,6.8s3.314,5.794,7.908,2.1L259.4,312.527Z" transform="translate(-1848.592 -6890.201)"/>
    <path id="패스_4760" data-name="패스 4760" class="cls-5" d="M283.163,270.633a30.025,30.025,0,1,0-29.935-30.025A29.98,29.98,0,0,0,283.163,270.633Z" transform="translate(-1857.708 -6871.965)"/>
    <path id="패스_4761" data-name="패스 4761" class="cls-1" d="M176.731,360.168l-26.162-34.743,24.766-19.285,3.881-3.135L206.353,338.6l-4.726,3.409Z" transform="translate(-1829.226 -6897.405)"/>
    <path id="패스_4762" data-name="패스 4762" class="cls-7" d="M211.137,342.01c-7.007-9.411-20.186-27.8-26.292-35.869l3.882-3.135,27.068,35.384Z" transform="translate(-1838.735 -6897.405)"/>
    <path id="패스_4763" data-name="패스 4763" class="cls-1" d="M159.778,371.972a21.8,21.8,0,1,0-21.731-21.8A21.764,21.764,0,0,0,159.778,371.972Z" transform="translate(-1825.751 -6904.39)"/>
    <path id="패스_4764" data-name="패스 4764" class="cls-1" d="M157.858,298.936S87.758,195.678,84.517,186.91c-3.152-8.564-19.711,12.044-19.711,12.044L119.06,317.68Z" transform="translate(-1805.431 -6864.875)"/>
    <path id="패스_4765" data-name="패스 4765" class="cls-1" d="M323.833,136.968,315.405,195.9s-2.212,7.822,7.606,9.006,30.751-1.462,38.228-9.454S366.1,183.5,366.1,183.5l-15.856-63.963Z" transform="translate(-1874.899 -6846.904)"/>
    <path id="패스_4766" data-name="패스 4766" class="cls-7" d="M323.636,151.336l20.614-7.3L318.712,182Z" transform="translate(-1875.876 -6853.647)"/>
    <path id="패스_4767" data-name="패스 4767" class="cls-1" d="M290.6,37.682s-17.684,41.678-8.468,70.244c6.011,18.629,19.1,21.978,49.079,8.018,27.487-12.8,34.626-22.484,34.626-22.484L369.891,47S308.559.534,290.6,37.682Z" transform="translate(-1864.989 -6820.409)"/>
    <path id="패스_4768" data-name="패스 4768" class="cls-5" d="M295.29,200.162s-22.654,6.313-27.252,10S260.1,243.84,253.3,258.65c-10.059,21.928-16.573,33.592.327,57.689,10.193,14.534,6.595,51.52,6.595,51.52l124.232-.037c-3.759-72.653,12.88-158.3,12.88-158.3L341.326,196.58C328.7,198.764,295.29,200.162,295.29,200.162Z" transform="translate(-1854.933 -6868.111)"/>
    <path id="패스_4769" data-name="패스 4769" class="cls-5" d="M308.919,196.929s1.676-11.42,7.03-12.224,38.069-5.74,43.158-3.591,11.249,15.815,11.249,15.815-10.445,25.554-25.443,26.9-40.812-3.295-38.082-12.8S308.919,196.929,308.919,196.929Z" transform="translate(-1872.524 -6863.706)"/>
    <path id="패스_4770" data-name="패스 4770" class="cls-8" d="M295.7,204.806s3.62,22.04,23.274,21.692,48.215-29.918,48.215-29.918" transform="translate(-1869.491 -6868.111)"/>
    <path id="패스_4771" data-name="패스 4771" class="cls-6" d="M401.266,252.012s-19.531,12.951-13.778,26.02c6.469,14.694,6.413,52.538-12.152,54.91-33.126,4.232-18.733,10.042-3.417,13.755s9.046,3.716,9.046,19.632c0,11.328,35.49,21.149,34.568,12C409.361,317.088,435.014,278.314,401.266,252.012Z" transform="translate(-1886.01 -6883.369)"/>
    <path id="패스_4772" data-name="패스 4772" class="cls-9" d="M292.692,127.76l16.451.817c-.059.2-.149.481-.277.807a9.721,9.721,0,0,1-1.48,2.549c-1.459,1.793-4.008,3.5-8.413,3.051a7.382,7.382,0,0,1-5.257-4.185,11.761,11.761,0,0,1-.88-2.383C292.77,128.154,292.724,127.932,292.692,127.76Z" transform="translate(-1868.657 -6849.167)"/>
    <path id="패스_4773" data-name="패스 4773" class="cls-3" d="M291.7,87.847c.688-2.557-.157-5.008-1.887-5.476s-3.689,1.226-4.376,3.782.157,5.007,1.886,5.475S291.01,90.4,291.7,87.847Z" transform="translate(-1866.577 -6836.652)"/>
    <path id="패스_4774" data-name="패스 4774" class="cls-3" d="M326.919,97.89c.688-2.556-.157-5.007-1.886-5.475s-3.689,1.225-4.377,3.782.157,5.007,1.887,5.475S326.232,100.447,326.919,97.89Z" transform="translate(-1876.349 -6839.417)"/>
    <path id="패스_4775" data-name="패스 4775" class="cls-3" d="M285.041,71.139l12.937,3.73a.951.951,0,0,0,1.083-.624,3.057,3.057,0,0,0-2.719-3.487L285.23,69.585C284.378,69.354,283.976,70.85,285.041,71.139Z" transform="translate(-1866.356 -6833.147)"/>
    <path id="패스_4776" data-name="패스 4776" class="cls-3" d="M339.765,84.619l-17.544-3.6a3.9,3.9,0,0,1,5.238-2.48l12.807,5.07C340.691,83.724,340.4,84.793,339.765,84.619Z" transform="translate(-1876.85 -6835.536)"/>
    <path id="패스_4777" data-name="패스 4777" class="cls-10" d="M301.827,90.965,293.5,102.2l3.134,4.444" transform="translate(-1868.883 -6839.039)"/>
    <path id="패스_4778" data-name="패스 4778" class="cls-4" d="M325.321,254.032c1.611,0,2.917-3.62,2.917-8.085s-1.306-8.084-2.917-8.084-2.918,3.619-2.918,8.084S323.709,254.032,325.321,254.032Z" transform="translate(-1876.9 -6879.474)"/>
    <path id="패스_4779" data-name="패스 4779" class="cls-1" d="M489.69,391.8l-43.263,3.556-7.385-31.448-8.9-24.182,45.529-5.465,5.692,27.064Z" transform="translate(-1906.793 -6906.01)"/>
    <path id="패스_4780" data-name="패스 4780" class="cls-7" d="M477.547,344.348l1.6,7.589-44.836.967-2.949-8.016Z" transform="translate(-1907.129 -6908.786)"/>
    <path id="패스_4781" data-name="패스 4781" class="cls-5" d="M434.712,273.191a30.025,30.025,0,1,0-29.935-30.025A29.98,29.98,0,0,0,434.712,273.191Z" transform="translate(-1899.755 -6872.669)"/>
    <path id="패스_4782" data-name="패스 4782" class="cls-5" d="M429.024,234.586s31.549-5.195,34.227,4.91c5.788,20.319,12.9,52.939,14.633,68.539a5.036,5.036,0,0,1-4.606,5.473l-47.514,4.068a7.228,7.228,0,0,1-7.814-6.145L405.083,252.99Z" transform="translate(-1899.839 -6878.205)"/>
    <path id="패스_4783" data-name="패스 4783" class="cls-3" d="M300.179,27.312S301.3,47.555,318.4,57.366c0,0,5,15.527,23.66,19.178,0,0-1.1-14.271,7.792-14.12,15.1.257,7.675,23.235-2.536,27.006-6.939,2.561-11.119,11.655-.818,32.379,23.652-8.462,40.286-42.635,33.765-80.549C375.038,10.9,337.511.984,329.8,1.973c0,0-32.019-11.094-48.879,19.335-14.412,26.012-.952,41.536-.952,41.536l7.681-23.151S290.859,41.953,300.179,27.312Z" transform="translate(-1863.543 -6814)"/>
    <path id="패스_4784" data-name="패스 4784" class="cls-11" d="M461.222,478.084H346.635a9.105,9.105,0,0,1-9.025-7.99l-10.576-84.665a9.107,9.107,0,0,1,9.025-10.257H471.8a9.1,9.1,0,0,1,8.692,6.434,9.16,9.16,0,0,1,.334,3.823l-10.577,84.665a9.105,9.105,0,0,1-9.025,7.99Z" transform="translate(-1878.166 -6917.27)"/>
    <path id="패스_4785" data-name="패스 4785" class="cls-4" d="M430.766,449a8.067,8.067,0,1,0-8.043-8.067A8.056,8.056,0,0,0,430.766,449Z" transform="translate(-1904.734 -6933.15)"/>
    <path id="패스_4786" data-name="패스 4786" class="cls-1" d="M49.874,185.767l-6.9-13.287s-24.416-14.008-27.245-19.073-3.942-19.527,1.068-23.229c0,0-19.481-14.675-16.164-17.649,3.306-3.189,41.577,25.328,41.577,25.328s-4.659-21.009,2.421-21.994A73.841,73.841,0,0,0,54.344,138.8c7.455,11.562,8.373,21.916,8.373,21.916L71.5,177.629Z" transform="translate(-1787.52 -6844.906)"/>
    <path id="패스_4787" data-name="패스 4787" class="cls-12" d="M24.961,137.487l11.8,7.457" transform="translate(-1794.376 -6851.844)"/>
    <path id="패스_4788" data-name="패스 4788" class="cls-12" d="M22.527,149.258,32.539,155.5" transform="translate(-1793.701 -6855.084)"/>
    <path id="패스_4789" data-name="패스 4789" class="cls-12" d="M25.22,161.984l6.679,4.233" transform="translate(-1794.448 -6858.588)"/>
    <path id="패스_4790" data-name="패스 4790" class="cls-1" d="M460.2,508.275s6.056.5,5.144,3.569-6.319,1.651-11.257,4.717-24.455,5.252-34.2,3.623-12.458-11.909-12.458-11.909-1.63-9.752,15.591-10.753,25.236,4.54,28.231,10.549Z" transform="translate(-1900.479 -6950.916)"/>
    <path id="패스_4791" data-name="패스 4791" class="cls-10" d="M417.576,499.657l3.719,10.034" transform="translate(-1903.306 -6951.536)"/>
    <path id="패스_4792" data-name="패스 4792" class="cls-10" d="M430.908,497.4l3.719,10.034" transform="translate(-1907.005 -6950.916)"/>
    <path id="패스_4793" data-name="패스 4793" class="cls-10" d="M444.986,498.576l3.719,10.033" transform="translate(-1910.91 -6951.238)"/>
  </g>
</svg>
