<svg xmlns="http://www.w3.org/2000/svg" xmlns:xlink="http://www.w3.org/1999/xlink" width="360" height="196" viewBox="0 0 360 196">
  <defs>
    <linearGradient id="linear-gradient" x1="0.49" y1="0.071" x2="0.326" y2="1.232" gradientUnits="objectBoundingBox">
      <stop offset="0" stop-color="#306eea"/>
      <stop offset="0" stop-color="#2f6feb"/>
      <stop offset="1" stop-color="#1897fd"/>
    </linearGradient>
    <clipPath id="clip-path">
      <path id="패스_4843" data-name="패스 4843" d="M0,0H360V196H0Z" opacity="0.85" fill="url(#linear-gradient)"/>
    </clipPath>
  </defs>
  <g id="마스크_그룹_213" data-name="마스크 그룹 213" clip-path="url(#clip-path)">
    <g id="그룹_10554" data-name="그룹 10554" transform="translate(-942 6748.125)">
      <rect id="사각형_7132" data-name="사각형 7132" width="360" height="242" transform="translate(942 -6748.125)" fill="none" opacity="0.478"/>
      <g id="그룹_10262" data-name="그룹 10262" transform="translate(951.803 -6513.563)">
        <ellipse id="타원_503" data-name="타원 503" cx="51.251" cy="3.016" rx="51.251" ry="3.016" fill="#e2e2e2" opacity="0.677"/>
        <ellipse id="타원_506" data-name="타원 506" cx="50.922" cy="3.72" rx="50.922" ry="3.72" transform="translate(241.324)" fill="#e2e2e2" opacity="0.677"/>
      </g>
      <g id="그룹_10245" data-name="그룹 10245" transform="translate(974.342 -6738.417)">
        <g id="그룹_10246" data-name="그룹 10246">
          <path id="패스_4135" data-name="패스 4135" d="M367.027,296.16c-42.187-17.88-80.363-17.2-116.317-6.287-55.4-9.675-93.331-8.179-117.664,6.287V251.25h233.98Z" transform="translate(-122.399 -135.547)" fill="#4c4c4c"/>
          <path id="패스_4136" data-name="패스 4136" d="M375.991,151.131c-40.4-18.307-80.76-19.489-121.722,0-41.957-12.08-82.516-11.953-121.722,0V9.219c41.684-12.441,82.232-12.142,121.722,0,41.715-12.094,82.326-12.485,121.722,0Z" transform="translate(-126.743 0)" fill="#ececec"/>
          <path id="패스_4137" data-name="패스 4137" d="M154.4,42.718l-1.308-3.347a144.943,144.943,0,0,1,30.729-7.349c16.615-2.233,41.369-2.766,64.946,7.372l-1.419,3.3c-22.781-9.8-46.81-9.281-62.951-7.125a144.3,144.3,0,0,0-30,7.148" transform="translate(-133.441 -14.038)" fill="#fff"/>
          <path id="패스_4138" data-name="패스 4138" d="M154.4,70.718l-1.308-3.347a144.94,144.94,0,0,1,30.729-7.349c16.615-2.233,41.369-2.766,64.946,7.372l-1.419,3.3c-22.781-9.8-46.81-9.281-62.951-7.125a144.3,144.3,0,0,0-30,7.148" transform="translate(-133.441 -29.465)" fill="#fff"/>
          <path id="패스_4139" data-name="패스 4139" d="M154.4,98.718l-1.308-3.347a144.944,144.944,0,0,1,30.729-7.349c16.615-2.233,41.369-2.766,64.946,7.372l-1.419,3.3c-22.781-9.8-46.81-9.281-62.951-7.125a144.3,144.3,0,0,0-30,7.148" transform="translate(-133.441 -44.889)" fill="#fff"/>
          <path id="패스_4140" data-name="패스 4140" d="M154.4,126.718l-1.308-3.347a144.943,144.943,0,0,1,30.729-7.349c16.615-2.233,41.369-2.766,64.946,7.372l-1.419,3.3c-22.781-9.8-46.81-9.281-62.951-7.125a144.3,144.3,0,0,0-30,7.148" transform="translate(-133.441 -60.314)" fill="#fff"/>
          <path id="패스_4141" data-name="패스 4141" d="M154.4,154.718l-1.308-3.347a144.944,144.944,0,0,1,30.729-7.349c16.615-2.233,41.369-2.766,64.946,7.372l-1.419,3.3c-22.781-9.8-46.81-9.281-62.951-7.125a144.3,144.3,0,0,0-30,7.148" transform="translate(-133.441 -75.739)" fill="#fff"/>
          <path id="패스_4142" data-name="패스 4142" d="M154.4,182.718l-1.308-3.347a144.94,144.94,0,0,1,30.729-7.349c16.615-2.233,41.369-2.766,64.946,7.372l-1.419,3.3c-22.781-9.8-46.81-9.281-62.951-7.125a144.3,144.3,0,0,0-30,7.148" transform="translate(-133.441 -91.164)" fill="#fff"/>
          <path id="패스_4143" data-name="패스 4143" d="M415.4,241.718l-1.308-3.347a144.937,144.937,0,0,1,30.729-7.349c16.615-2.233,41.369-2.766,64.946,7.372l-1.419,3.3c-22.781-9.8-46.81-9.281-62.951-7.125a144.3,144.3,0,0,0-30,7.148" transform="translate(-277.226 -123.668)" fill="#c35959"/>
          <path id="패스_4144" data-name="패스 4144" d="M414.547,108.828V40.148l1.266-.394c31.95-9.984,63.747-9.984,94.5,0l1.242.4v68.58l-2.431-.917c-32.006-12.08-62.99-12.094-92.09-.021Zm47.409-13.674a135.734,135.734,0,0,1,46,8.409V42.779c-29.243-9.222-59.451-9.217-89.82.015v60.684a119.615,119.615,0,0,1,43.816-8.326" transform="translate(-277.478 -14.911)" fill="#fff"/>
          <path id="패스_4145" data-name="패스 4145" d="M622.713,195.936l.471-11.43,16.144-32.1a4.655,4.655,0,0,1,2.109-2.1,4.712,4.712,0,0,1,6.577,2.738,4.856,4.856,0,0,1,.2.915,4.66,4.66,0,0,1-.468,2.685l-16.172,32.14Z" transform="translate(-392.157 -79.665)" fill="#c35959"/>
          <path id="패스_4146" data-name="패스 4146" d="M645.748,150.315l-17.523,34.841-1.336-.672,16.948-33.7a4.466,4.466,0,0,1,1.911-.471" transform="translate(-394.461 -79.941)" fill="#3f3d56"/>
          <path id="패스_4147" data-name="패스 4147" d="M656.7,156.75l-16.855,33.514-1.336-.672,17.487-34.768a4.468,4.468,0,0,1,.509,1.055,4.636,4.636,0,0,1,.2.872" transform="translate(-400.858 -82.424)" fill="#3f3d56"/>
          <path id="패스_4148" data-name="패스 4148" d="M651.9,151.576,634.186,186.8l-1.336-.672,17.74-35.27a4.308,4.308,0,0,1,.551.232,4.567,4.567,0,0,1,.762.484" transform="translate(-397.743 -80.241)" fill="#3f3d56"/>
          <path id="패스_4149" data-name="패스 4149" d="M625.039,245.355l-1.783,1.436.149-3.786a3.54,3.54,0,0,1,1.633,2.35" transform="translate(-392.455 -131.005)" fill="#3f3d56"/>
          <path id="패스_4150" data-name="패스 4150" d="M233.057,302.966l-2.135-6.469L233.2,275.21a2.775,2.775,0,0,1,.737-1.614,2.813,2.813,0,0,1,4.243.148,2.894,2.894,0,0,1,.305.467,2.779,2.779,0,0,1,.3,1.6l-2.277,21.317Z" transform="translate(-176.319 -147.36)" fill="#212b36"/>
          <path id="패스_4151" data-name="패스 4151" d="M235.884,273.419l-2.468,23.108-.886-.094,2.391-22.35a2.65,2.65,0,0,1,.967-.664" transform="translate(-177.204 -147.76)" fill="#c35959"/>
          <path id="패스_4152" data-name="패스 4152" d="M243.493,275.071l-2.374,22.219-.886-.094,2.462-23.062a2.661,2.661,0,0,1,.506.482,2.756,2.756,0,0,1,.291.446" transform="translate(-181.448 -148.157)" fill="#c35959"/>
          <path id="패스_4153" data-name="패스 4153" d="M239.864,273.116l-2.5,23.369-.886-.094,2.5-23.393a2.538,2.538,0,0,1,.357.014,2.735,2.735,0,0,1,.526.11" transform="translate(-179.381 -147.523)" fill="#c35959"/>
          <path id="패스_4154" data-name="패스 4154" d="M235.572,335.58l-.693,1.174-.71-2.143a2.11,2.11,0,0,1,1.406.969" transform="translate(-178.107 -181.475)" fill="#c35959"/>
          <path id="패스_4155" data-name="패스 4155" d="M738.1,283.333a3.73,3.73,0,0,1-6.481-3.694v-.008l.025-.044a3.99,3.99,0,0,1,.352-.5l-3.137-22.359-.094-.671-.634-4.569-.094-.658.347.017,6.079.281,1.63.073.2,4.163,1.156,23.4a3.725,3.725,0,0,1,.648,4.563Z" transform="translate(-450.179 -135.319)" fill="#fdd6cb"/>
          <path id="패스_4156" data-name="패스 4156" d="M724.773,233.787l7.719-.7a1.524,1.524,0,0,0,1.374-1.65l-1.43-16.052a5.853,5.853,0,1,0-11.659,1.041c.01.111.022.221.039.33l2.315,15.75a1.522,1.522,0,0,0,1.5,1.3,1.1,1.1,0,0,0,.14,0" transform="translate(-446.169 -112.845)" fill="#cbcbcb"/>
          <path id="패스_4157" data-name="패스 4157" d="M710.881,217.016a10.751,10.751,0,0,0-3.954-12.375c-2.911-1.991-6.891-2.707-11.184,2.4a53.4,53.4,0,0,0-10.828,21.448l17.567,2.86s5.975-7.3,8.4-14.334" transform="translate(-426.425 -109.045)" fill="#cbcbcb"/>
          <path id="패스_4158" data-name="패스 4158" d="M670.4,466.507h-5.012l-2.382-19.319H670.4Z" transform="translate(-414.356 -243.49)" fill="#ffb6b6"/>
          <path id="패스_4159" data-name="패스 4159" d="M646.808,493.1h15.739v-6.082h-9.66a6.082,6.082,0,0,0-6.079,6.082Z" transform="translate(-405.431 -265.431)" fill="#859a4d"/>
          <path id="패스_4160" data-name="패스 4160" d="M755.109,457.977l-4.756,1.572-8.326-17.595,7.019-2.32Z" transform="translate(-457.887 -239.328)" fill="#ffb6b6"/>
          <path id="패스_4161" data-name="패스 4161" d="M743.016,487.417l14.946-4.94-1.905-5.777-9.172,3.032a6.082,6.082,0,0,0-3.869,7.685Z" transform="translate(-458.262 -259.75)" fill="#859a4d"/>
          <path id="패스_4162" data-name="패스 4162" d="M705.867,150.519a10.034,10.034,0,1,1-10.034,10.034,10.034,10.034,0,0,1,10.034-10.034" transform="translate(-432.438 -80.054)" fill="#fdd6cb"/>
          <path id="패스_4163" data-name="패스 4163" d="M664.682,356.347l4.652-30.7a1.43,1.43,0,0,1,2.8-.122l7.083,29.25a1.851,1.851,0,0,0,2.079,1.382l19.538-3.14a1.838,1.838,0,0,0,1.468-2.35l-25.477-83.994a1.436,1.436,0,0,1-.025-.736l.844-3.677a1.828,1.828,0,0,0-.951-2.049c-3.469-1.77-12.255-5.451-18.887-1.419a1.859,1.859,0,0,0-.844,1.2l-19.9,93.542a1.838,1.838,0,0,0,1.415,2.18,1.725,1.725,0,0,0,.219.032l24,2.15c.055,0,.11.007.163.007a1.842,1.842,0,0,0,1.817-1.562Z" transform="translate(-400.039 -138.706)" fill="#c35959"/>
          <path id="패스_4164" data-name="패스 4164" d="M729.876,150.393a7.582,7.582,0,0,1-1.983-1.724,2.573,2.573,0,0,1-.4-2.492,2.616,2.616,0,0,1,3.181-1.091,7.6,7.6,0,0,1,2.922,2.18,7.507,7.507,0,0,1,1.879,2.61,2.284,2.284,0,0,1-3.67,2.641,7.538,7.538,0,0,1-1.851-2.558Z" transform="translate(-449.793 -76.984)" fill="#2f2e41"/>
          <path id="패스_4165" data-name="패스 4165" d="M740.559,145.281c.056-2.827,3.278-4.854,6.061-4.359a8.615,8.615,0,0,1,5.993,5.484c2.263,5.529.563,11.839-1.616,17.4s-4.878,11.209-4.559,17.176A17.946,17.946,0,0,0,756.863,196.1c-3.142,1.423-6.891-.046-9.534-2.267a19.055,19.055,0,0,1-5.378-20.853c1.356-3.527,3.743-6.543,5.608-9.828s3.234-7.156,2.27-10.81-5.062-6.609-8.563-5.2Z" transform="translate(-457.079 -74.726)" fill="#2f2e41"/>
          <path id="패스_4166" data-name="패스 4166" d="M703.161,163.468c.875-1.478,1.756-3.419.159-4.711a3.3,3.3,0,0,0-2.472-.654,11.788,11.788,0,0,1-5.51-.349,5.165,5.165,0,0,1-3-2.693,5.32,5.32,0,0,1,2.109-6.076,7.107,7.107,0,0,1,7.868-.141,8.106,8.106,0,0,1,7.613.884,12.1,12.1,0,0,1,4.556,6.393,12.344,12.344,0,0,1,.377,6.788,10.087,10.087,0,0,1-6.256,6.891,3.632,3.632,0,0,1-3.587-.532,6.748,6.748,0,0,1-1.816-2.661,4.282,4.282,0,0,1-.044-3.149" transform="translate(-430.335 -78.517)" fill="#2f2e41"/>
          <path id="패스_4167" data-name="패스 4167" d="M640.166,198.648a4.189,4.189,0,0,1,.1.669l17.55,10.125,4.265-2.455,4.548,5.953-7.13,5.082a3.27,3.27,0,0,1-3.922-.1l-18.1-14.276a4.289,4.289,0,1,1,2.531-5.512,4.423,4.423,0,0,1,.153.512Z" transform="translate(-397.106 -104.744)" fill="#fdd6cb"/>
          <path id="패스_4168" data-name="패스 4168" d="M690.685,217.54l5.671,7.352a1.839,1.839,0,0,0,2.579.331,1.885,1.885,0,0,0,.2-.179l6.421-6.668a5.107,5.107,0,0,0-6.074-8.211l-.024.017q-.083.062-.165.128l-8.054,4.5a1.838,1.838,0,0,0-.7,2.5,1.917,1.917,0,0,0,.149.225Z" transform="translate(-429.391 -112.362)" fill="#cbcbcb"/>
          <path id="패스_4169" data-name="패스 4169" d="M208.551,463.048H214l2.59-21H208.55Z" transform="translate(-163.994 -240.657)" fill="#ffb6b6"/>
          <path id="패스_4170" data-name="패스 4170" d="M205.46,484.85h10.723a6.833,6.833,0,0,1,6.833,6.833v.222H205.46Z" transform="translate(-162.292 -264.238)" fill="#b4b4b4"/>
          <path id="패스_4171" data-name="패스 4171" d="M114.156,458.09l5.383.814,5.7-20.378-7.058-1.2Z" transform="translate(-111.992 -238.056)" fill="#ffb6b6"/>
          <path id="패스_4172" data-name="패스 4172" d="M110.4,479.185l10.6,1.6h0a6.834,6.834,0,0,1,5.735,7.778l-.034.219L109.34,486.16Z" transform="translate(-109.34 -261.117)" fill="#b4b4b4"/>
          <path id="패스_4173" data-name="패스 4173" d="M150.311,257.07l6.047,1.583-.4,9.8L155.9,286.3a3.576,3.576,0,1,1-4.732.595l-1.858-17.91Z" transform="translate(-131.36 -138.753)" fill="#fdd6cb"/>
          <path id="패스_4174" data-name="패스 4174" d="M148.408,226.2a4.935,4.935,0,0,1,3.05-4.389,4.614,4.614,0,0,1,4.994.8,4.4,4.4,0,0,1,1.467,3.4,114.1,114.1,0,0,1-1.294,14.195l-.021.134-8.835,2.976Z" transform="translate(-130.51 -119.105)" fill="#c35959"/>
          <path id="패스_4175" data-name="패스 4175" d="M143.517,264.074l13.515-3.5,6.247,21.04L163.5,360l-10.335-.065-4.32-63.442L121.309,355.11,110.2,353.778l24.2-62.84s-1.332-11.109,2.887-16.653l-.889-5.773Z" transform="translate(-109.819 -140.684)" fill="#101010"/>
          <path id="패스_4176" data-name="패스 4176" d="M155.679,237.316a2.073,2.073,0,0,1-.442-1.666l-6.168-18.494a4.705,4.705,0,0,1,1.3-4.965l2.672-2.433,1.814-7.255,10.423,2.548-.859,3.435,4.718-.858,9.937,22.13-20.769,8.3-1.022.015a2.072,2.072,0,0,1-1.607-.761" transform="translate(-131.098 -108.693)" fill="#c35959"/>
          <path id="패스_4177" data-name="패스 4177" d="M196.3,242.929l5.955-1.893,4.9,8.5,9.5,15.109a3.576,3.576,0,1,1-3.721,3.426,3.532,3.532,0,0,1,.038-.394l-11.143-14.144Z" transform="translate(-157.241 -129.92)" fill="#fdd6cb"/>
          <path id="패스_4178" data-name="패스 4178" d="M180.127,216.3a4.935,4.935,0,0,1,.232-5.344,4.615,4.615,0,0,1,4.651-1.99,4.4,4.4,0,0,1,3.057,2.091,114.1,114.1,0,0,1,6.494,12.689l.053.124-5.877,7.238Z" transform="translate(-147.965 -112.216)" fill="#c35959"/>
          <path id="패스_4179" data-name="패스 4179" d="M169.269,162.615a8.281,8.281,0,1,1-8.281,8.281,8.281,8.281,0,0,1,8.281-8.281" transform="translate(-137.792 -86.717)" fill="#fdd6cb"/>
          <path id="패스_4180" data-name="패스 4180" d="M137.054,137.75a7.978,7.978,0,1,1-7.978,7.978,7.978,7.978,0,0,1,7.978-7.978" transform="translate(-120.211 -73.019)" fill="#212b36"/>
          <path id="패스_4181" data-name="패스 4181" d="M127.133,161.072a7.978,7.978,0,0,0,12.319-4.189,7.978,7.978,0,1,1-15.562-3.272,7.975,7.975,0,0,0,3.243,7.46" transform="translate(-117.171 -81.758)" fill="#212b36"/>
          <path id="패스_4182" data-name="패스 4182" d="M174.641,162.53a14.616,14.616,0,0,0-3.721-5.051,3.869,3.869,0,0,0-5.117-.464,9.482,9.482,0,1,0,5.625,7.594c1.368-.193,1.839-1.886,3.209-2.078" transform="translate(-133.196 -83.207)" fill="#212b36"/>
          <rect id="사각형_6626" data-name="사각형 6626" width="0.899" height="141.09" transform="translate(127.077 9.239)" fill="#f9f9f9"/>
        </g>
      </g>
    </g>
  </g>
</svg>
