<svg xmlns="http://www.w3.org/2000/svg" xmlns:xlink="http://www.w3.org/1999/xlink" width="200" height="250" viewBox="0 0 200 250">
  <defs>
    <style>
      .cls-1 {
        fill: rgba(244,64,168,0.23);
        stroke: #af0166;
        stroke-width: 2px;
        opacity: 0.498;
      }

      .cls-2 {
        clip-path: url(#clip-path);
      }

      .cls-14, .cls-16, .cls-20, .cls-3 {
        fill: none;
        stroke-linecap: round;
      }

      .cls-3 {
        stroke: #fff;
        stroke-width: 6px;
        opacity: 0.6;
      }

      .cls-16, .cls-3 {
        stroke-miterlimit: 10;
      }

      .cls-4 {
        fill: #233b62;
      }

      .cls-5 {
        fill: #ffccb3;
      }

      .cls-6 {
        fill: #1c85e8;
      }

      .cls-7 {
        fill: #1f2d49;
      }

      .cls-8 {
        fill: #0d1b33;
      }

      .cls-9 {
        fill: #080b09;
      }

      .cls-10 {
        fill: #ffe3a5;
      }

      .cls-11 {
        fill: #ffcf83;
      }

      .cls-12, .cls-17 {
        fill: #fdd5c1;
      }

      .cls-13, .cls-19 {
        fill: #e56441;
      }

      .cls-14 {
        stroke: #ff9f1c;
      }

      .cls-14, .cls-20 {
        stroke-width: 0.947px;
      }

      .cls-15 {
        fill: #fff;
      }

      .cls-16 {
        stroke: #ffcf83;
        stroke-width: 4px;
      }

      .cls-17 {
        stroke: #000;
      }

      .cls-18 {
        fill: #fcba9f;
      }

      .cls-19, .cls-20 {
        stroke: #e56441;
      }
    </style>
    <clipPath id="clip-path">
      <rect id="사각형_7089" data-name="사각형 7089" class="cls-1" width="200" height="250" transform="translate(140 530)"/>
    </clipPath>
  </defs>
  <g id="마스크_그룹_200" data-name="마스크 그룹 200" class="cls-2" transform="translate(-140 -530)">
    <g id="Character08" transform="translate(140.553 530)">
      <path id="패스_4361" data-name="패스 4361" class="cls-3" d="M438.9,576.6h8.53" transform="translate(-360.554 -279.849)"/>
      <path id="패스_4362" data-name="패스 4362" class="cls-4" d="M716.8,764.375c-.176.019-.254.117-.157.195-.078.1-.078.1-.059.273a21.19,21.19,0,0,0-.78,3.7l15.021,12.072,1.662-1.869s-5.543-6.858-7.626-8.852c-.9-.88-1.694-1.681-2.491-2.483-.7-.723-1.322-1.544-1.926-2.189-.836-1.153-3.275-.71-3.294-.886C717.05,764.258,716.8,764.375,716.8,764.375Z" transform="translate(-418.098 -318.858)"/>
      <path id="패스_4363" data-name="패스 4363" class="cls-5" d="M567.46,631.981l14.5,14.056,81.1,78.314,1.48,1.349.641,1,.1.078,11.488,17.4,1.283,1.992.427.665,7.775,11.856-6.4,3.185-1.855.913-2.616,1.261-4.12,2.136-.078.1-4.374,2.253-.214-.332L656.6,749.126a28.752,28.752,0,0,0-7.956-9.438l-88.182-67.5L543.7,659.351Z" transform="translate(-382.333 -291.358)"/>
      <path id="패스_4364" data-name="패스 4364" class="cls-6" d="M706.982,751.622c-3.887-1.8-8.251-3.419-12.515-3.168,2.571,2.252,3.742,6.259,5.441,9.179,3.5,6.013,12.456,17.185,7.878,26.68-2.572,5.335-9.77,8.17-9.867,8.091-1.2,5.479-7.174,27.783,4.725,14.853,6.645-7.22,13.237-14.932,16.552-22.587,1.359-3.139-1.516-6.27-2.926-8.92-1.8-4.01-4.5-9.321-4.163-13.759l.078-.1c.2-.307,15.6,13.487,15.865,13.552.528-.858,1.761-2.59,1.761-2.59S707.722,751.9,706.982,751.622Z" transform="translate(-413.665 -315.557)"/>
      <path id="패스_4365" data-name="패스 4365" class="cls-4" d="M499.848,844.537c-.139-.109-.263-.094-.248.03-.124.015-.124.015-.233.154a21.256,21.256,0,0,0-3.145,2.1l2.3,19.134,2.495-.173s.834-8.779.74-11.66c-.025-1.255-.035-2.386-.044-3.517,0-1.007.134-2.029.154-2.912.208-1.408-1.845-2.8-1.736-2.936C500.111,844.631,499.848,844.537,499.848,844.537Z" transform="translate(-372.466 -335.515)"/>
      <path id="패스_4366" data-name="패스 4366" class="cls-5" d="M481.437,649.65l.535,20.187,3.2,112.693.115,2-.238,1.16.015.124-3.959,20.475-.475,2.321-.159.773-2.733,13.912-6.806-2.2-1.964-.645-2.752-.928-4.439-1.354-.124.015-4.7-1.449.08-.387,6.205-20.618a28.741,28.741,0,0,0,.913-12.311L448.324,673.5l-3.01-20.9Z" transform="translate(-361.886 -295.03)"/>
      <path id="패스_4367" data-name="패스 4367" class="cls-6" d="M491.4,828.386c-1.516-4.008-3.506-8.213-6.73-11.015.263,3.407-1.7,7.091-2.53,10.366-1.7,6.742-3.113,21-13.025,24.581-5.57,2.014-12.7-.993-12.712-1.116-4.692,3.074-24.556,14.842-7.009,13.922,9.8-.514,19.905-1.417,27.627-4.572,3.166-1.293,3.3-5.542,4.146-8.422,1.515-4.128,3.3-9.812,6.646-12.747l.124-.015c.355-.082,1.722,20.552,1.864,20.782.977-.243,3.07-.62,3.07-.62S491.738,829.1,491.4,828.386Z" transform="translate(-361.256 -329.885)"/>
      <path id="패스_4368" data-name="패스 4368" class="cls-7" d="M455.8,458.457,427.13,579.518l-.052,8.594,23.311,143.349,37.117-4.018L476.739,590.537l29.53-71.432-5.97-58.579Z" transform="translate(-358.097 -255.296)"/>
      <path id="패스_4369" data-name="패스 4369" class="cls-7" d="M451.691,635.243a25.068,25.068,0,1,0-25.068-25.068A25.068,25.068,0,0,0,451.691,635.243Z" transform="translate(-358.002 -281.616)"/>
      <path id="패스_4370" data-name="패스 4370" class="cls-8" d="M499.176,580.767l-7.07-59.814-2.339,82.572Z" transform="translate(-371.124 -268.284)"/>
      <path id="패스_4371" data-name="패스 4371" class="cls-7" d="M546.823,457.981s13.367,22.454,13.543,41.26c.263,28.224-9.909,78.83-9.909,78.83L639.324,667.9l-21.153,31.725S542.333,636.7,510.246,606.815l-7.187-14.552-10.34-84.4,15.8-49.886Z" transform="translate(-371.738 -255.197)"/>
      <path id="패스_4372" data-name="패스 4372" class="cls-8" d="M462.988,458.457l77.844.8,7.564,15.655-86.723-10.9Z" transform="translate(-365.286 -255.296)"/>
      <path id="패스_4373" data-name="패스 4373" class="cls-7" d="M530.557,641.889a25.068,25.068,0,1,0-25.068-25.068A25.068,25.068,0,0,0,530.557,641.889Z" transform="translate(-374.392 -282.998)"/>
      <path id="패스_4374" data-name="패스 4374" class="cls-9" d="M447.62,246.417a73.262,73.262,0,0,1-2.026,22.822c-3.071,11.186-26.318,34.873-5.7,54.173s45.838-32.46,45.838-32.46l-7.9-23.906-27.3-28.407Z" transform="translate(-358.388 -208.85)"/>
      <path id="패스_4375" data-name="패스 4375" class="cls-9" d="M525.892,251.886s6.188,7.861,20.281,14.285c13.834,6.306,28.732,16.668,25.661,39.258s-43.963,5.045-55.976-7.9S505.5,261.49,505.5,261.49Z" transform="translate(-374.378 -212.367)"/>
      <path id="패스_4376" data-name="패스 4376" class="cls-10" d="M482.778,303.536s-15.692,6.209-18.089,8.126-4.671,17.559-8.744,24.987-10.031,21.136-1.328,33.728,7.778,22.591,7.778,22.591l-1.852,31.587,75,1.382a4.669,4.669,0,0,0,4.8-5.086c-.833-9.209-4.641-22.143-4.939-36.807-.406-19.875-.709-86.282-.709-86.282l-32.674-1.025C495.439,297.872,482.778,303.536,482.778,303.536Z" transform="translate(-362.889 -221.688)"/>
      <path id="패스_4377" data-name="패스 4377" class="cls-11" d="M528.756,332.3s-10.931,9.966-11.574,17.361-2.13,28.011-16.176,30.067c-17.219,2.521-21.726,4.975-13.744,6.9s26.1-1.2,26.1,7.073c0,5.885,7.039,10.288,10.575,7.073S555.638,348.7,528.756,332.3Z" transform="translate(-369.81 -229.078)"/>
      <path id="패스_4378" data-name="패스 4378" class="cls-12" d="M367.118,330.663l-5.926-7.584a13.487,13.487,0,0,0-4.809-4.231c-2.916-1.459-7.386-4.183-8.94-6.905-2.575-4.327-12.721-16.013-3.92-25.1,3.258-3.353,2.444-2.56,8.956-2.459s7.512,6.858,10.767,11.282c0,0,.731-5.1,4.329-7.434s1.21,11.907,3.978,17.3.531,7.437,7.088,16.917Z" transform="translate(-340 -219.089)"/>
      <path id="패스_4379" data-name="패스 4379" class="cls-13" d="M354.5,285.409l5.293,12.007Z" transform="translate(-343.014 -219.334)"/>
      <path id="패스_4380" data-name="패스 4380" class="cls-14" d="M354.5,285.409l5.293,12.007" transform="translate(-343.014 -219.334)"/>
      <path id="패스_4381" data-name="패스 4381" class="cls-13" d="M345.79,288.1l7.333,12.786Z" transform="translate(-341.203 -219.894)"/>
      <path id="패스_4382" data-name="패스 4382" class="cls-14" d="M345.79,288.1l7.333,12.786" transform="translate(-341.203 -219.894)"/>
      <path id="패스_4383" data-name="패스 4383" class="cls-13" d="M340.324,298.716l5.781,7.633Z" transform="translate(-340.067 -222.099)"/>
      <path id="패스_4384" data-name="패스 4384" class="cls-14" d="M340.324,298.716l5.781,7.633" transform="translate(-340.067 -222.099)"/>
      <path id="패스_4385" data-name="패스 4385" class="cls-13" d="M367.128,302.1s-2.24,6.414-1.852,11.469Z" transform="translate(-345.244 -222.803)"/>
      <path id="패스_4386" data-name="패스 4386" class="cls-14" d="M367.128,302.1s-2.24,6.414-1.852,11.469" transform="translate(-345.244 -222.803)"/>
      <path id="패스_4387" data-name="패스 4387" class="cls-10" d="M451.363,312.968c-6.084,2.109-14.564,6.386-16.86,11.158l-20.277,46.194-33.77-51.312-12.788,13.469,31.538,65.23c5.763,14.343,20.4,19.732,31.007,4.273l16.943-26.611Z" transform="translate(-345.75 -225.061)"/>
      <path id="패스_4388" data-name="패스 4388" class="cls-11" d="M459.124,363.1s-1.828-3.154-1.828,13.309l-10.675,35.937,16.942-26.612C477.156,367.463,466.418,362.581,459.124,363.1Z" transform="translate(-362.158 -235.429)"/>
      <path id="패스_4389" data-name="패스 4389" class="cls-15" d="M494.077,335.589,438.063,357.9a3.392,3.392,0,0,0-1.9,4.407L464.2,432.69a3.392,3.392,0,0,0,4.406,1.9l56.014-22.311a3.393,3.393,0,0,0,1.9-4.407l-28.035-70.384A3.392,3.392,0,0,0,494.077,335.589Z" transform="translate(-359.935 -229.712)"/>
      <path id="패스_4390" data-name="패스 4390" class="cls-16" d="M449.413,369.76l23.1-9.2" transform="translate(-362.738 -234.951)"/>
      <path id="패스_4391" data-name="패스 4391" class="cls-16" d="M453.816,381.512l10.528-4.194" transform="translate(-363.653 -238.434)"/>
      <path id="패스_4392" data-name="패스 4392" class="cls-17" d="M488.834,280.3l.882,24.691s-1.207,5.407,4.341,4.807,13.02-4.969,17.22-9.768,3.912-5.184,2.113-8.333-10.249-27.153-10.249-27.153Z" transform="translate(-370.931 -214.997)"/>
      <path id="패스_4393" data-name="패스 4393" class="cls-18" d="M488.993,285.338l10.232-6.516s-4.534,19.9-9.476,29.136Z" transform="translate(-370.964 -217.965)"/>
      <path id="패스_4394" data-name="패스 4394" class="cls-12" d="M454.168,234.015s-.163,24.573,10.439,36.939c6.914,8.064,14.187,7,26.319-6.281,11.124-12.173,12.684-18.519,12.684-18.519l-7.681-24.108S455.417,211.652,454.168,234.015Z" transform="translate(-363.726 -205.664)"/>
      <path id="패스_4395" data-name="패스 4395" class="cls-9" d="M464.093,224.65s4.44,10.785,12.688,13.8,10.4,8.617,10.4,8.617,1.582-9.22,8.064-8.885,5.165,11.779,1.142,15.578c0,0,4.839,8.975,8.944,15.615l17.971-17.837s-9.26-10.7-11.3-19.318-8.625-31.673-33.746-30.146c-29.494,1.794-27.8,25.76-26.548,39.072C451.716,241.144,460.966,237.6,464.093,224.65Z" transform="translate(-363.101 -202)"/>
      <path id="패스_4396" data-name="패스 4396" class="cls-19" d="M471.516,273.9l7.169-3.517c.006.041.013.084.018.129a4.8,4.8,0,0,1-.032,1.462,4.445,4.445,0,0,1-2.923,3.337,3.619,3.619,0,0,1-3.242-.551,5.8,5.8,0,0,1-.962-.828Z" transform="translate(-367.332 -216.212)"/>
      <path id="패스_4397" data-name="패스 4397" class="cls-9" d="M461.041,260.951c.906-.223,1.374-1.488,1.044-2.823s-1.332-2.236-2.238-2.013-1.374,1.488-1.044,2.823S460.135,261.175,461.041,260.951Z" transform="translate(-364.668 -213.239)"/>
      <path id="패스_4398" data-name="패스 4398" class="cls-9" d="M478,257.021c.906-.224,1.374-1.488,1.044-2.823s-1.332-2.237-2.238-2.013-1.374,1.488-1.044,2.822S477.095,257.245,478,257.021Z" transform="translate(-368.192 -212.422)"/>
      <path id="패스_4399" data-name="패스 4399" class="cls-9" d="M454.931,252.311l6.837-1.569a.5.5,0,0,0,.337-.557,1.592,1.592,0,0,0-2.117-.9l-5.362,2.271C454.18,251.668,454.374,252.449,454.931,252.311Z" transform="translate(-363.77 -211.8)"/>
      <path id="패스_4400" data-name="패스 4400" class="cls-9" d="M481.708,245.259l-8.9,2.791a2.035,2.035,0,0,1,1.764-2.449l7.115-.928C481.905,244.618,482.043,245.177,481.708,245.259Z" transform="translate(-367.59 -210.867)"/>
      <path id="패스_4402" data-name="패스 4402" class="cls-20" d="M467.456,256.592l-.966,7.21,2.547,1.23" transform="translate(-366.287 -213.345)"/>
      <path id="패스_4403" data-name="패스 4403" class="cls-12" d="M469.764,416.168,447.68,422.5l-2.7,13.609L450,451.174s3.532-2.377,2.8-7.92,17.925-5.385,21.345-12.355" transform="translate(-361.817 -246.508)"/>
      <path id="패스_4404" data-name="패스 4404" class="cls-10" d="M526.5,316.573s-.145-18.707,14.842-18.708c10.047,0,14.859,4.71,16.14,19.416.9,10.283,1.544,66.7,1.544,66.7s2.528,25.747-19.309,26.228l-63.062-1.889L475.228,390.7l54.972-5.479Z" transform="translate(-368.103 -221.922)"/>
      <path id="패스_4405" data-name="패스 4405" class="cls-10" d="M482.2,312.327s5.686-1.619,4.764-7.2c-.9-5.5-.933-10.268.871-9.6,0,0,1.591,2.73,11.488-.3,9.832-2.92,9.215-6.294,9.215-6.294s1.391-1.233,2.43,1.931,3.672,11.926,9.24,11.3l1.505,16.331L492.1,328.226C492.04,328.339,478.352,315.079,482.2,312.327Z" transform="translate(-369.411 -220.014)"/>
      <path id="패스_4406" data-name="패스 4406" class="cls-11" d="M426.394,382.725l9.482,14.089-5.057-24.07Z" transform="translate(-357.954 -237.483)"/>
    </g>
  </g>
</svg>
