<svg xmlns="http://www.w3.org/2000/svg" xmlns:xlink="http://www.w3.org/1999/xlink" width="188" height="188" viewBox="0 0 188 188">
  <defs>
    <style>
      .cls-1, .cls-17 {
        fill: #fff;
      }

      .cls-1, .cls-23 {
        stroke: #e2e2e2;
      }

      .cls-2 {
        fill: rgba(244,64,168,0.23);
        stroke: #af0166;
        stroke-width: 2px;
        opacity: 0.498;
      }

      .cls-3 {
        clip-path: url(#clip-path);
      }

      .cls-4 {
        clip-path: url(#clip-path-2);
      }

      .cls-16, .cls-18, .cls-22, .cls-23, .cls-25, .cls-5 {
        fill: none;
      }

      .cls-5 {
        stroke: #fff;
        stroke-width: 6px;
        opacity: 0.6;
      }

      .cls-16, .cls-18, .cls-22, .cls-5 {
        stroke-linecap: round;
      }

      .cls-18, .cls-5 {
        stroke-miterlimit: 10;
      }

      .cls-6 {
        fill: #233b62;
      }

      .cls-7 {
        fill: #ffccb3;
      }

      .cls-8 {
        fill: #1c85e8;
      }

      .cls-9 {
        fill: #1f2d49;
      }

      .cls-10 {
        fill: #0d1b33;
      }

      .cls-11 {
        fill: #080b09;
      }

      .cls-12 {
        fill: #ffe3a5;
      }

      .cls-13 {
        fill: #ffcf83;
      }

      .cls-14, .cls-19 {
        fill: #fdd5c1;
      }

      .cls-15, .cls-21 {
        fill: #e56441;
      }

      .cls-16 {
        stroke: #ff9f1c;
      }

      .cls-16, .cls-22 {
        stroke-width: 0.947px;
      }

      .cls-18 {
        stroke: #ffcf83;
        stroke-width: 3px;
      }

      .cls-19 {
        stroke: #000;
      }

      .cls-20 {
        fill: #fcba9f;
      }

      .cls-21, .cls-22 {
        stroke: #e56441;
      }

      .cls-24 {
        stroke: none;
      }
    </style>
    <clipPath id="clip-path">
      <circle id="타원_516" data-name="타원 516" class="cls-1" cx="94" cy="94" r="94" transform="translate(-19334 -6783)"/>
    </clipPath>
    <clipPath id="clip-path-2">
      <rect id="사각형_7089" data-name="사각형 7089" class="cls-2" width="130" height="163" transform="translate(140.07 529.583)"/>
    </clipPath>
  </defs>
  <g id="그룹_10548" data-name="그룹 10548" transform="translate(19334 6783)">
    <g id="타원_514" data-name="타원 514" class="cls-1" transform="translate(-19334 -6783)">
      <circle class="cls-24" cx="94" cy="94" r="94"/>
      <circle class="cls-25" cx="94" cy="94" r="93.5"/>
    </g>
    <g id="마스크_그룹_211" data-name="마스크 그룹 211" class="cls-3">
      <g id="마스크_그룹_200" data-name="마스크 그룹 200" class="cls-4" transform="translate(-19451.07 -7287.583)">
        <g id="Character08" transform="translate(140.35 530.001)">
          <path id="패스_4361" data-name="패스 4361" class="cls-5" d="M438.9,576.6h5.551" transform="translate(-387.912 -383.477)"/>
          <path id="패스_4362" data-name="패스 4362" class="cls-6" d="M716.452,764.352c-.115.012-.165.076-.1.127-.051.065-.051.065-.038.178a13.792,13.792,0,0,0-.508,2.408l9.776,7.857,1.081-1.216s-3.607-4.463-4.963-5.761c-.586-.573-1.1-1.094-1.621-1.616-.456-.471-.86-1-1.253-1.425-.544-.75-2.132-.462-2.144-.577C716.615,764.276,716.452,764.352,716.452,764.352Z" transform="translate(-522.058 -474.412)"/>
          <path id="패스_4363" data-name="패스 4363" class="cls-7" d="M559.163,631.981l9.437,9.148,52.78,50.967.963.878.417.651.065.051L630.3,705l.835,1.3.278.433,5.06,7.716-4.165,2.073-1.207.594-1.7.821-2.681,1.39-.051.065-2.847,1.466-.139-.216-6.506-12.418A18.71,18.71,0,0,0,612,702.076l-57.388-43.929L543.7,649.793Z" transform="translate(-438.683 -410.306)"/>
          <path id="패스_4364" data-name="패스 4364" class="cls-8" d="M702.612,750.507c-2.53-1.172-5.37-2.225-8.145-2.062,1.673,1.466,2.435,4.073,3.541,5.974,2.278,3.913,8.106,11.184,5.127,17.363-1.674,3.472-6.358,5.317-6.422,5.266-.781,3.566-4.669,18.081,3.075,9.666,4.325-4.7,8.615-9.718,10.772-14.7.884-2.043-.987-4.081-1.9-5.805-1.171-2.61-2.929-6.066-2.709-8.954l.051-.065c.13-.2,10.152,8.777,10.325,8.82.344-.558,1.146-1.686,1.146-1.686S703.093,750.688,702.612,750.507Z" transform="translate(-511.722 -466.718)"/>
          <path id="패스_4365" data-name="패스 4365" class="cls-6" d="M498.582,844.512c-.091-.071-.171-.061-.161.02-.081.01-.081.01-.152.1A13.833,13.833,0,0,0,496.222,846l1.5,12.452,1.624-.113s.543-5.713.482-7.588c-.016-.817-.023-1.553-.029-2.289,0-.655.087-1.32.1-1.9.135-.916-1.2-1.822-1.13-1.911C498.753,844.573,498.582,844.512,498.582,844.512Z" transform="translate(-415.682 -513.243)"/>
          <path id="패스_4366" data-name="패스 4366" class="cls-7" d="M468.823,649.65l.348,13.138,2.083,73.34.075,1.3-.155.755.01.081-2.577,13.325-.309,1.51-.1.5-1.779,9.054-4.429-1.432-1.278-.42-1.791-.6-2.889-.881-.081.01-3.059-.943.052-.252,4.038-13.418a18.7,18.7,0,0,0,.594-8.012l-10.3-71.534-1.959-13.6Z" transform="translate(-391.019 -418.866)"/>
          <path id="패스_4367" data-name="패스 4367" class="cls-8" d="M474.248,824.539c-.987-2.608-2.282-5.345-4.38-7.168.171,2.217-1.106,4.615-1.646,6.746-1.106,4.388-2.026,13.667-8.477,16-3.625,1.311-8.265-.646-8.273-.726-3.054,2-15.981,9.659-4.561,9.06,6.378-.334,12.954-.922,17.98-2.975,2.06-.841,2.148-3.607,2.7-5.481.986-2.687,2.148-6.386,4.325-8.3l.081-.01c.231-.053,1.121,13.375,1.213,13.525.636-.158,2-.4,2-.4S474.468,825,474.248,824.539Z" transform="translate(-389.55 -500.118)"/>
          <path id="패스_4368" data-name="패스 4368" class="cls-9" d="M445.77,458.457l-18.658,78.786-.034,5.593,15.171,93.291,24.156-2.615-7.007-89.1,19.218-46.488L474.73,459.8Z" transform="translate(-382.185 -326.242)"/>
          <path id="패스_4369" data-name="패스 4369" class="cls-9" d="M442.937,617.735a16.314,16.314,0,1,0-16.314-16.314,16.314,16.314,0,0,0,16.314,16.314Z" transform="translate(-381.965 -387.597)"/>
          <path id="패스_4370" data-name="패스 4370" class="cls-10" d="M495.89,559.88l-4.6-38.927-1.522,53.738Z" transform="translate(-412.554 -356.518)"/>
          <path id="패스_4371" data-name="패스 4371" class="cls-9" d="M527.93,457.98s8.7,14.613,8.814,26.852c.171,18.368-6.449,51.3-6.449,51.3l57.834,58.46-13.766,20.646s-49.355-40.951-70.237-60.4l-4.677-9.47-6.729-54.927L503,457.977Z" transform="translate(-413.985 -326.01)"/>
          <path id="패스_4372" data-name="패스 4372" class="cls-10" d="M462.529,458.457l50.661.521,4.923,10.188-56.439-7.094Z" transform="translate(-398.944 -326.242)"/>
          <path id="패스_4373" data-name="패스 4373" class="cls-9" d="M521.8,624.381a16.314,16.314,0,1,0-16.314-16.314A16.314,16.314,0,0,0,521.8,624.381Z" transform="translate(-420.171 -390.817)"/>
          <path id="패스_4374" data-name="패스 4374" class="cls-11" d="M441.974,243.7a47.681,47.681,0,0,1-1.318,14.852c-2,7.28-17.128,22.7-3.71,35.256s29.831-21.125,29.831-21.125l-5.141-15.558-17.767-18.487Z" transform="translate(-383.902 -219.254)"/>
          <path id="패스_4375" data-name="패스 4375" class="cls-11" d="M518.744,251.886s4.027,5.116,13.2,9.3c9,4.1,18.7,10.847,16.7,25.549s-28.611,3.283-36.429-5.141-6.741-23.454-6.741-23.454Z" transform="translate(-420.139 -226.168)"/>
          <path id="패스_4376" data-name="패스 4376" class="cls-12" d="M471.38,301.162s-10.212,4.041-11.772,5.288-3.04,11.427-5.691,16.261-6.528,13.755-.864,21.95,5.062,14.7,5.062,14.7l-1.205,20.557,48.81.9a3.038,3.038,0,0,0,3.124-3.31c-.542-5.993-3.02-14.411-3.214-23.954-.264-12.935-.461-56.152-.461-56.152l-21.264-.667C479.62,297.476,471.38,301.162,471.38,301.162Z" transform="translate(-393.357 -247.897)"/>
          <path id="패스_4377" data-name="패스 4377" class="cls-13" d="M512.933,332.3s-7.114,6.486-7.532,11.3-1.386,18.229-10.527,19.568c-11.206,1.641-14.139,3.238-8.945,4.49s16.986-.781,16.986,4.6c0,3.83,4.581,6.7,6.882,4.6S530.427,342.973,512.933,332.3Z" transform="translate(-409.491 -265.125)"/>
          <path id="패스_4378" data-name="패스 4378" class="cls-14" d="M357.648,314.449l-3.857-4.936a8.777,8.777,0,0,0-3.13-2.754c-1.9-.95-4.807-2.722-5.818-4.494-1.676-2.816-8.279-10.421-2.551-16.335,2.12-2.182,1.591-1.666,5.829-1.6s4.889,4.463,7.007,7.342c0,0,.476-3.319,2.817-4.838s.788,7.749,2.589,11.259.346,4.84,4.613,11.01Z" transform="translate(-340 -241.838)"/>
          <path id="패스_4379" data-name="패스 4379" class="cls-15" d="M354.5,285.409l3.445,7.814Z" transform="translate(-347.025 -242.409)"/>
          <path id="패스_4380" data-name="패스 4380" class="cls-16" d="M354.5,285.409l3.445,7.814" transform="translate(-347.025 -242.409)"/>
          <path id="패스_4381" data-name="패스 4381" class="cls-15" d="M345.79,288.1l4.772,8.321Z" transform="translate(-342.805 -243.713)"/>
          <path id="패스_4382" data-name="패스 4382" class="cls-16" d="M345.79,288.1l4.772,8.321" transform="translate(-342.805 -243.713)"/>
          <path id="패스_4383" data-name="패스 4383" class="cls-15" d="M340.324,298.716l3.762,4.968Z" transform="translate(-340.156 -248.855)"/>
          <path id="패스_4384" data-name="패스 4384" class="cls-16" d="M340.324,298.716l3.762,4.968" transform="translate(-340.156 -248.855)"/>
          <path id="패스_4385" data-name="패스 4385" class="cls-15" d="M366.466,302.1a22.312,22.312,0,0,0-1.205,7.464Z" transform="translate(-352.223 -250.495)"/>
          <path id="패스_4386" data-name="패스 4386" class="cls-16" d="M366.466,302.1a22.312,22.312,0,0,0-1.205,7.464" transform="translate(-352.223 -250.495)"/>
          <path id="패스_4387" data-name="패스 4387" class="cls-12" d="M422.136,312.968c-3.959,1.373-9.478,4.156-10.972,7.262l-13.2,30.063L375.99,316.9l-8.322,8.766,20.525,42.451c3.751,9.334,13.276,12.842,20.179,2.781L419.4,353.578Z" transform="translate(-353.404 -255.76)"/>
          <path id="패스_4388" data-name="패스 4388" class="cls-13" d="M454.758,363.016s-1.19-2.053-1.19,8.661l-6.947,23.388,11.026-17.319C466.493,365.855,459.5,362.678,454.758,363.016Z" transform="translate(-391.653 -279.929)"/>
          <path id="패스_4389" data-name="패스 4389" class="cls-17" d="M473.769,335.5l-36.454,14.52a2.207,2.207,0,0,0-1.237,2.868l18.246,45.8a2.207,2.207,0,0,0,2.867,1.237l36.454-14.52a2.208,2.208,0,0,0,1.236-2.868l-18.245-45.806a2.207,2.207,0,0,0-2.869-1.236Z" transform="translate(-386.47 -266.602)"/>
          <path id="패스_4390" data-name="패스 4390" class="cls-18" d="M449.413,366.547l15.033-5.987" transform="translate(-393.005 -278.815)"/>
          <path id="패스_4391" data-name="패스 4391" class="cls-18" d="M453.816,380.047l6.852-2.729" transform="translate(-395.138 -286.934)"/>
          <path id="패스_4392" data-name="패스 4392" class="cls-19" d="M488.834,274.8l.574,16.069s-.785,3.519,2.825,3.128,8.473-3.234,11.207-6.357,2.546-3.374,1.375-5.423-6.67-17.671-6.67-17.671Z" transform="translate(-412.103 -232.3)"/>
          <path id="패스_4393" data-name="패스 4393" class="cls-20" d="M488.993,283.063l6.659-4.241s-2.951,12.951-6.167,18.962Z" transform="translate(-412.18 -239.218)"/>
          <path id="패스_4394" data-name="패스 4394" class="cls-14" d="M454.168,228.993s-.106,15.992,6.794,24.04c4.5,5.248,9.233,4.556,17.128-4.088,7.239-7.922,8.255-12.052,8.255-12.052l-5-15.689S454.981,214.439,454.168,228.993Z" transform="translate(-395.308 -210.543)"/>
          <path id="패스_4395" data-name="패스 4395" class="cls-11" d="M459.574,216.741s2.89,7.019,8.257,8.981,6.768,5.608,6.768,5.608,1.03-6,5.248-5.782,3.361,7.666.743,10.138c0,0,3.149,5.841,5.821,10.162l11.7-11.608s-6.026-6.964-7.354-12.572-5.613-20.613-21.962-19.619c-19.195,1.168-18.092,16.765-17.277,25.428C451.52,227.475,457.539,225.169,459.574,216.741Z" transform="translate(-393.849 -202.002)"/>
          <path id="패스_4396" data-name="패스 4396" class="cls-21" d="M471.516,272.672l4.666-2.289c0,.027.008.055.012.084a3.123,3.123,0,0,1-.021.951,2.893,2.893,0,0,1-1.9,2.172,2.356,2.356,0,0,1-2.11-.359,3.774,3.774,0,0,1-.626-.539Z" transform="translate(-403.713 -235.13)"/>
          <path id="패스_4397" data-name="패스 4397" class="cls-11" d="M460.223,259.25c.59-.145.894-.968.679-1.837s-.867-1.455-1.456-1.31-.894.968-.679,1.837S459.633,259.4,460.223,259.25Z" transform="translate(-397.503 -228.201)"/>
          <path id="패스_4398" data-name="패스 4398" class="cls-11" d="M477.182,255.32c.59-.146.894-.968.679-1.837s-.867-1.456-1.457-1.31-.894.968-.679,1.837S476.593,255.466,477.182,255.32Z" transform="translate(-405.719 -226.297)"/>
          <path id="패스_4399" data-name="패스 4399" class="cls-11" d="M454.738,251.209l4.449-1.021a.325.325,0,0,0,.219-.363,1.036,1.036,0,0,0-1.378-.586l-3.49,1.478C454.25,250.791,454.376,251.3,454.738,251.209Z" transform="translate(-395.411 -224.846)"/>
          <path id="패스_4400" data-name="패스 4400" class="cls-11" d="M478.584,245.053l-5.792,1.816a1.324,1.324,0,0,1,1.148-1.594l4.63-.6C478.713,244.636,478.8,245,478.584,245.053Z" transform="translate(-404.317 -222.672)"/>
          <path id="패스_4402" data-name="패스 4402" class="cls-22" d="M467.119,256.592l-.629,4.692,1.658.8" transform="translate(-401.278 -228.448)"/>
          <path id="패스_4403" data-name="패스 4403" class="cls-14" d="M461.109,416.168l-14.372,4.121-1.757,8.857,3.267,9.8a5.29,5.29,0,0,0,1.822-5.154c-.476-3.607,11.666-3.5,13.891-8.041" transform="translate(-390.858 -305.755)"/>
          <path id="패스_4404" data-name="패스 4404" class="cls-12" d="M508.6,310.04s-.094-12.174,9.659-12.175c6.539,0,9.67,3.065,10.5,12.636.586,6.692,1,43.408,1,43.408s1.645,16.756-12.566,17.069l-41.041-1.229-.929-11.467L511,354.716Z" transform="translate(-405.511 -248.443)"/>
          <path id="패스_4405" data-name="패스 4405" class="cls-12" d="M481.962,304.075s3.7-1.054,3.1-4.686c-.586-3.579-.607-6.682.567-6.248,0,0,1.035,1.777,7.476-.2,6.4-1.9,6-4.1,6-4.1s.905-.8,1.581,1.257,2.39,7.761,6.013,7.354l.979,10.628L488.4,314.422C488.366,314.5,479.458,305.866,481.962,304.075Z" transform="translate(-408.559 -243.999)"/>
          <path id="패스_4406" data-name="패스 4406" class="cls-13" d="M426.394,379.24l6.171,9.169-3.291-15.665Z" transform="translate(-381.853 -284.718)"/>
        </g>
      </g>
    </g>
    <g id="타원_517" data-name="타원 517" class="cls-23" transform="translate(-19334 -6783)">
      <circle class="cls-24" cx="94" cy="94" r="94"/>
      <circle class="cls-25" cx="94" cy="94" r="93.5"/>
    </g>
  </g>
</svg>
